<svg width="79" height="79" viewBox="0 0 79 79" fill="none" xmlns="http://www.w3.org/2000/svg">
<g clip-path="url(#clip0_2640_18)">
<path fill-rule="evenodd" clip-rule="evenodd" d="M28.2702 28.0247C23.2483 33.0466 22.2893 40.6052 25.415 46.5933C26.4692 48.6129 25.6865 51.1047 23.6669 52.1589C21.6473 53.2131 19.1555 52.4305 18.1014 50.4109C13.3559 41.3195 14.7938 29.8338 22.4366 22.1911C31.858 12.7696 47.1331 12.7696 56.5545 22.1911C65.9759 31.6124 65.9759 46.8875 56.5545 56.3089C48.9117 63.9517 37.426 65.3895 28.3347 60.6441C26.3151 59.59 25.5325 57.0981 26.5866 55.0785C27.6408 53.0589 30.1326 52.2764 32.1522 53.3306C38.1403 56.4562 45.6989 55.4972 50.7208 50.4753C56.9204 44.2757 56.9204 34.2243 50.7208 28.0247C44.5213 21.8251 34.4698 21.8251 28.2702 28.0247Z" fill="black"/>
<path fill-rule="evenodd" clip-rule="evenodd" d="M17.6641 17.4177C5.60674 29.4752 5.60674 49.0241 17.6641 61.0816C29.7216 73.139 49.2706 73.139 61.328 61.0816C72.1064 50.3032 73.252 33.5303 64.7544 21.4835C63.4412 19.6219 63.8859 17.0482 65.7475 15.735C67.6091 14.4219 70.1828 14.8665 71.496 16.7281C82.2681 31.9994 80.8268 53.25 67.1616 66.9152C51.8824 82.1945 27.1098 82.1945 11.8305 66.9152C-3.44871 51.636 -3.44872 26.8634 11.8305 11.5841C25.5155 -2.1008 46.8079 -3.52653 62.084 7.29671C63.9429 8.61375 64.3821 11.1883 63.0651 13.0472C61.748 14.9061 59.1734 15.3453 57.3145 14.0283C45.2641 5.4905 28.4582 6.62373 17.6641 17.4177Z" fill="black"/>
<path d="M45.86 32.886C49.3747 36.4007 49.3747 42.0992 45.86 45.6139C42.3453 49.1286 36.6468 49.1286 33.1321 45.6139C29.6174 42.0992 29.6174 36.4007 33.1321 32.886C36.6468 29.3713 42.3453 29.3713 45.86 32.886Z" fill="#01FF86"/>
</g>
<defs>
<clipPath id="clip0_2640_18">
<rect width="79" height="79" fill="white"/>
</clipPath>
</defs>
</svg>
