<svg width="365" height="79" viewBox="0 0 365 79" fill="none" xmlns="http://www.w3.org/2000/svg">
<g clip-path="url(#clip0_2640_56)">
<path d="M153.599 18.6702C157.601 18.6702 160.846 15.4255 160.846 11.423C160.846 7.42046 157.601 4.17578 153.599 4.17578C149.596 4.17578 146.352 7.42046 146.352 11.423C146.352 15.4255 149.596 18.6702 153.599 18.6702Z" fill="black"/>
<path d="M114.965 73.7175V34.3517H107V23.5935H114.965V20.145C114.965 16.4537 115.597 13.4423 116.86 11.111C118.139 8.76338 120.057 7.03105 122.615 5.91394C125.173 4.79683 128.46 4.23828 132.475 4.23828C133.463 4.23828 134.572 4.26256 135.802 4.31113C137.032 4.3597 138.214 4.43255 139.348 4.52969C139.412 4.52969 139.477 4.53779 139.542 4.55398H139.76V15.2637C139.534 15.2475 139.307 15.2394 139.08 15.2394C138.854 15.2232 138.619 15.207 138.376 15.1908C137.793 15.1747 137.219 15.1585 136.652 15.1423C136.085 15.1261 135.551 15.118 135.049 15.118C133.56 15.118 132.37 15.3285 131.479 15.7494C130.605 16.1542 129.965 16.7775 129.561 17.6193C129.172 18.4612 128.978 19.5621 128.978 20.9221V23.5935H139.566V34.3517H128.978V73.7175H114.965Z" fill="black"/>
<path d="M160.645 73.7178L160.646 23.5938H146.633V73.718L160.645 73.7178Z" fill="black"/>
<path d="M168.008 73.7175V23.5934H181.632V31.066C182.386 29.8345 183.26 28.7117 184.255 27.6975C185.906 26.0138 187.849 24.7186 190.083 23.8119C192.317 22.8891 194.762 22.4277 197.417 22.4277C201.028 22.4277 204.12 23.1157 206.694 24.4919C209.285 25.868 211.276 27.9566 212.668 30.7574C214.077 33.5583 214.781 37.0391 214.781 41.2V73.7175H200.769V43.2642C200.769 41.3214 200.437 39.6943 199.773 38.3829C199.125 37.0553 198.17 36.0677 196.907 35.4201C195.644 34.7563 194.082 34.4245 192.22 34.4245C190.472 34.4245 188.82 34.8292 187.266 35.6387C185.728 36.4482 184.465 37.7029 183.478 39.4029C182.506 41.0866 182.021 43.1913 182.021 45.717V73.7175H168.008Z" fill="black"/>
<path fill-rule="evenodd" clip-rule="evenodd" d="M230.242 71.6541C233.528 73.8074 237.365 74.884 241.753 74.884C246.14 74.884 249.815 73.7669 252.778 71.5327C254.673 70.0938 256.259 68.3107 257.538 66.1834V73.7183H271.065V4.55469H257.052V30.4031C255.846 28.5875 254.397 27.0464 252.705 25.7798C249.743 23.5456 246.092 22.4285 241.753 22.4285C237.365 22.4285 233.528 23.5051 230.242 25.6584C226.955 27.8116 224.421 30.8635 222.64 34.8138C220.86 38.7642 219.969 43.3783 219.969 48.6562C219.969 53.9342 220.86 58.5483 222.64 62.4987C224.421 66.449 226.955 69.5009 230.242 71.6541ZM252.171 61.8916C250.423 63.0411 248.334 63.6158 245.905 63.6158C243.477 63.6158 241.38 63.0572 239.616 61.9401C237.867 60.8068 236.523 59.1474 235.584 56.9617C234.662 54.7599 234.2 52.0804 234.2 48.9234C234.2 45.7501 234.67 43.0302 235.609 40.7636C236.548 38.4808 237.891 36.7404 239.64 35.5424C241.405 34.3443 243.493 33.7453 245.905 33.7453C248.334 33.7453 250.423 34.3281 252.171 35.4938C253.92 36.6595 255.263 38.3675 256.202 40.6179C257.141 42.8521 257.611 45.5478 257.611 48.7048C257.611 51.8619 257.141 54.5575 256.202 56.7917C255.263 59.0259 253.92 60.7259 252.171 61.8916Z" fill="black"/>
<path fill-rule="evenodd" clip-rule="evenodd" d="M330.037 73.7175C329.924 73.3452 329.811 72.9647 329.697 72.5761C329.6 72.1714 329.511 71.7586 329.43 71.3376C329.268 70.5929 329.123 69.84 328.993 69.0791C328.902 68.4505 328.826 67.8432 328.766 67.257C328.518 67.6591 328.253 68.0479 327.973 68.4234C326.37 70.5929 324.258 72.2523 321.635 73.4018C319.012 74.5351 315.952 75.1018 312.455 75.1018C308.845 75.1018 305.68 74.5351 302.96 73.4018C300.24 72.2685 298.127 70.5767 296.621 68.3263C295.132 66.0597 294.387 63.2912 294.387 60.0208C294.387 57.1552 295.01 54.6538 296.257 52.5168C297.52 50.3797 299.552 48.6231 302.353 47.2469C305.153 45.8708 308.804 44.9479 313.305 44.4784L321.416 43.677C323.003 43.5151 324.298 43.2399 325.302 42.8513C326.306 42.4466 327.059 41.8799 327.56 41.1514C328.078 40.4228 328.338 39.4838 328.338 38.3343C328.338 37.0229 328.062 35.9463 327.512 35.1044C326.961 34.2625 326.063 33.6392 324.816 33.2345C323.586 32.8135 321.959 32.6031 319.935 32.6031C317.814 32.6031 316.098 32.8297 314.787 33.2831C313.475 33.7364 312.479 34.4973 311.799 35.5658C311.136 36.6344 310.739 38.0996 310.609 39.9614H296.621C296.799 36.1892 297.698 33.0159 299.317 30.4417C300.952 27.8513 303.47 25.868 306.87 24.4919C310.27 23.1157 314.665 22.4277 320.056 22.4277C325.253 22.4277 329.495 23.0429 332.782 24.2733C336.068 25.5038 338.464 27.2523 339.97 29.5189C341.492 31.7855 342.253 34.5135 342.253 37.7029V63.8336C342.253 64.6754 342.309 65.6873 342.423 66.8692C342.536 68.0349 342.698 69.2329 342.909 70.4634C343.135 71.6776 343.386 72.7623 343.661 73.7175H330.037ZM328.338 49.7274V54.2167C328.338 56.6938 327.811 58.7742 326.759 60.4579C325.723 62.1417 324.314 63.3964 322.533 64.2221C320.769 65.0478 318.802 65.4607 316.632 65.4607C314.867 65.4607 313.386 65.2178 312.188 64.7321C311.006 64.2302 310.124 63.5098 309.541 62.5707C308.958 61.6155 308.667 60.466 308.667 59.1223C308.667 57.8433 308.926 56.7585 309.444 55.8681C309.978 54.9776 310.844 54.2491 312.042 53.6824C313.24 53.1158 314.843 52.711 316.851 52.4682L322.849 51.7154C324.873 51.4725 326.427 51.0192 327.512 50.3554C327.81 50.1715 328.085 49.9622 328.338 49.7274Z" fill="black"/>
<path d="M350.281 23.5938V73.7179H364.294V23.5938H350.281Z" fill="black"/>
<path d="M357.247 18.6702C361.25 18.6702 364.494 15.4255 364.494 11.423C364.494 7.42046 361.25 4.17578 357.247 4.17578C353.245 4.17578 350 7.42046 350 11.423C350 15.4255 353.245 18.6702 357.247 18.6702Z" fill="black"/>
<path fill-rule="evenodd" clip-rule="evenodd" d="M28.2702 28.0247C23.2483 33.0466 22.2893 40.6052 25.415 46.5933C26.4692 48.6129 25.6865 51.1047 23.6669 52.1589C21.6473 53.2131 19.1555 52.4305 18.1014 50.4109C13.3559 41.3195 14.7938 29.8338 22.4366 22.1911C31.858 12.7696 47.1331 12.7696 56.5545 22.1911C65.9759 31.6124 65.9759 46.8875 56.5545 56.3089C48.9117 63.9517 37.426 65.3895 28.3347 60.6441C26.3151 59.59 25.5325 57.0981 26.5866 55.0785C27.6408 53.0589 30.1326 52.2764 32.1522 53.3306C38.1403 56.4562 45.6989 55.4972 50.7208 50.4753C56.9204 44.2757 56.9204 34.2243 50.7208 28.0247C44.5213 21.8251 34.4698 21.8251 28.2702 28.0247Z" fill="black"/>
<path fill-rule="evenodd" clip-rule="evenodd" d="M17.6641 17.4177C5.60674 29.4752 5.60674 49.0241 17.6641 61.0816C29.7216 73.139 49.2706 73.139 61.328 61.0816C72.1064 50.3032 73.252 33.5303 64.7544 21.4835C63.4412 19.6219 63.8859 17.0482 65.7475 15.735C67.6091 14.4219 70.1828 14.8665 71.496 16.7281C82.2681 31.9994 80.8268 53.25 67.1616 66.9152C51.8824 82.1945 27.1098 82.1945 11.8305 66.9152C-3.44871 51.636 -3.44872 26.8634 11.8305 11.5841C25.5155 -2.1008 46.8079 -3.52653 62.084 7.29671C63.9429 8.61375 64.3821 11.1883 63.0651 13.0472C61.748 14.9061 59.1734 15.3453 57.3145 14.0283C45.2641 5.4905 28.4582 6.62373 17.6641 17.4177Z" fill="black"/>
<path d="M45.86 32.886C49.3747 36.4007 49.3747 42.0992 45.86 45.6139C42.3453 49.1286 36.6468 49.1286 33.1321 45.6139C29.6174 42.0992 29.6174 36.4007 33.1321 32.886C36.6468 29.3713 42.3453 29.3713 45.86 32.886Z" fill="#01FF86"/>
</g>
<defs>
<clipPath id="clip0_2640_56">
<rect width="365" height="79" fill="white"/>
</clipPath>
</defs>
</svg>
