<svg width="768" height="768" viewBox="0 0 768 768" fill="none" xmlns="http://www.w3.org/2000/svg">
<path d="M355.822 102.38L412.605 102.403C412.601 107.031 412.429 113.157 412.879 117.684C416.666 118.148 423.705 118.113 427.702 118.068C427.781 123.179 427.909 128.289 428.077 133.398C433.125 133.36 438.169 133.385 443.212 133.473C443.227 138.219 443.111 143.992 443.4 148.645C448.249 148.939 453.739 148.836 458.647 148.839C458.655 161.391 458.775 174.108 458.647 186.646C462.667 186.644 469.976 186.858 473.73 186.547C473.906 191.749 474 196.954 474.004 202.159C484.357 202.083 494.715 202.092 505.072 202.185L505.151 217.463L520.549 217.514C520.492 222.737 520.519 227.96 520.635 233.182L536.257 233.147L536.227 248.613C541.342 248.953 546.476 249.046 551.602 248.892L551.64 285.487C556.823 285.594 562.005 285.669 567.184 285.711C567.709 330.53 567.184 376.44 567.18 421.331L567.203 461.55C567.218 466.894 567.008 477.341 567.488 482.321C571.02 482.516 579.214 482.636 582.641 482.374C582.559 487.234 582.529 493.121 582.727 497.966C587.685 498 593.228 498.161 598.14 498.034C598.073 502.099 597.791 509.422 598.125 513.337C602.674 513.581 608.726 513.424 613.391 513.435C613.162 533.107 613.496 552.799 613.193 572.467C608.981 572.152 602.801 572.576 598.163 572.456C597.99 577.53 597.9 582.604 597.893 587.681C563.213 588.439 528.214 587.46 493.504 587.812C481.965 587.929 470.171 587.872 458.64 587.629C458.696 597.982 458.674 608.336 458.576 618.69H443.351C443.227 623.936 443.19 629.186 443.235 634.436L427.98 634.459C427.815 639.611 427.759 644.767 427.811 649.924L412.916 649.976C412.59 655.061 412.545 660.157 412.774 665.25C404.546 665.032 395.426 665.231 387.116 665.216C376.841 665.194 366.058 665.062 355.837 665.314C355.881 661.882 356.624 653.179 355.099 650.816C353.032 649.264 343.949 649.984 340.516 649.991C340.688 644.94 340.555 639.562 340.464 634.507C335.685 634.312 329.914 634.459 325.06 634.462C325.137 629.269 325.111 624.071 324.982 618.877C320.119 618.611 314.597 618.769 309.699 618.814C310.188 610.597 309.725 596.385 309.76 587.715C305.007 587.542 299.06 587.764 294.196 587.779L262.12 587.816L170.314 587.951C170.73 583.725 170.427 576.945 170.326 572.595C166.097 572.224 159.436 572.422 155.102 572.501C155.619 553.144 154.652 533.224 155.229 513.731C160.28 513.409 165.22 513.416 170.279 513.386C170.429 508.89 170.597 502.597 170.287 498.169C175.173 497.955 180.658 498.004 185.592 497.94C186.058 494.156 185.967 486.42 185.923 482.467C190.2 482.584 196.747 482.61 200.938 482.329C201.368 474.949 201.102 464.602 201.109 457.057L201.128 410.017L201.132 285.752C206.172 285.805 211.439 285.476 216.655 285.514C216.293 273.363 216.651 261.069 216.759 248.911C221.878 248.987 226.999 248.896 232.113 248.638C232.279 243.599 232.221 238.251 232.241 233.186L247.673 233.042C247.832 227.88 247.893 222.648 247.994 217.478L263.096 217.528C263.32 212.732 263.218 207.027 263.25 202.161C273.595 202.21 283.94 202.165 294.284 202.024C294.527 197.286 294.437 191.488 294.487 186.668L309.593 186.521C309.351 183.426 309.624 176.498 309.652 173.149L309.723 148.861C313.1 148.882 322.21 149.108 325.089 148.557L325.091 133.473C328.499 133.444 337.787 133.654 340.523 133.244L340.515 117.951C345.522 117.933 350.584 117.979 355.581 117.704C356.06 113.386 355.887 106.832 355.822 102.38ZM370.956 186.715C379.432 186.7 388.834 186.491 397.234 186.717C397.792 174.629 397.474 160.747 397.41 148.58C388.894 148.608 379.571 148.776 371.119 148.517C370.47 159.88 370.921 175.212 370.956 186.715Z" fill="#F5CE10"/>
<path d="M355.822 102.38L412.605 102.403C412.601 107.031 412.429 113.157 412.879 117.684C416.666 118.148 423.705 118.113 427.703 118.068C427.781 123.179 427.909 128.289 428.078 133.398C433.125 133.36 438.169 133.385 443.213 133.473C443.228 138.219 443.111 143.992 443.4 148.645C448.249 148.939 453.739 148.836 458.648 148.839C458.655 161.391 458.775 174.108 458.648 186.646C462.668 186.644 469.976 186.858 473.73 186.547C473.906 191.749 474 196.954 474.004 202.159C458.663 202.234 443.321 202.204 427.98 202.071L340.4 202.095C340.138 207.236 340.049 212.384 340.133 217.531C325.238 217.695 309.273 217.957 294.377 217.838C294.3 222.632 294.087 228.399 294.218 233.122C284.125 233.016 273.176 233.556 263.248 233.281L247.806 233.231C247.79 238.339 247.826 243.538 247.747 248.637L232.187 248.636C232.272 260.969 232.252 273.304 232.128 285.637L216.592 285.666C216.224 306.636 216.532 328.643 216.526 349.699L216.579 482.325L200.938 482.329C201.368 474.949 201.102 464.602 201.109 457.057L201.128 410.018L201.132 285.752C206.172 285.805 211.439 285.476 216.655 285.514C216.293 273.363 216.651 261.069 216.759 248.911C221.878 248.987 227 248.896 232.113 248.638C232.279 243.599 232.221 238.251 232.241 233.186L247.673 233.042C247.832 227.88 247.893 222.648 247.994 217.478L263.096 217.528C263.32 212.732 263.218 207.027 263.25 202.161C273.595 202.211 283.94 202.165 294.284 202.024C294.527 197.286 294.437 191.489 294.487 186.668L309.593 186.521C309.351 183.426 309.624 176.498 309.652 173.149L309.723 148.861C313.1 148.883 322.21 149.108 325.089 148.557L325.091 133.473C328.499 133.444 337.787 133.654 340.523 133.244L340.515 117.951C345.522 117.933 350.585 117.979 355.581 117.704C356.06 113.386 355.887 106.832 355.822 102.38ZM370.956 186.715C379.433 186.7 388.834 186.491 397.234 186.717C397.793 174.629 397.474 160.747 397.41 148.58C388.894 148.608 379.571 148.776 371.119 148.517C370.47 159.88 370.921 175.212 370.956 186.715Z" fill="black"/>
<path d="M355.822 102.38L412.605 102.403C412.601 107.031 412.429 113.157 412.879 117.684C412.796 122.937 412.777 128.19 412.819 133.443C417.784 133.46 423.004 133.555 427.95 133.443C428.029 138.395 428.22 143.879 428.085 148.784L443.28 148.703C443.261 161.116 443.498 174.24 443.269 186.6C433.178 186.664 423.086 186.597 412.995 186.4C412.897 173.799 412.898 161.197 412.991 148.596L397.508 148.513L397.47 133.242C389.606 133.229 379.193 133.525 371.537 133.168C370.961 135.334 371.215 145.344 370.933 148.535C368.535 148.546 357.261 148.445 355.504 148.748L355.433 148.511C350.444 148.576 345.411 148.7 340.428 148.527C340.424 143.54 340.452 138.553 340.515 133.567L340.523 133.244L340.515 117.951C345.522 117.933 350.585 117.979 355.581 117.704C356.06 113.386 355.887 106.832 355.822 102.38Z" fill="#3E913D"/>
<path d="M355.891 117.671L371.069 117.642L371.304 133.053L371.537 133.168C370.961 135.334 371.215 145.344 370.933 148.534C368.535 148.546 357.261 148.445 355.504 148.747L355.433 148.511C350.444 148.576 345.411 148.7 340.428 148.527C340.424 143.54 340.452 138.553 340.515 133.567L340.523 133.244L340.515 117.951C345.522 117.933 350.585 117.979 355.581 117.704L355.891 117.671Z" fill="#3E913D"/>
<path d="M355.891 117.671L371.069 117.642L371.304 133.053C367.594 133.36 360.004 133.126 355.987 133.107L355.891 117.671Z" fill="#5AAA59"/>
<path d="M340.515 117.951C345.522 117.933 350.585 117.979 355.581 117.704L355.597 133.185L340.523 133.244L340.515 117.951Z" fill="black"/>
<path d="M340.515 133.567L355.511 133.585C355.514 137.366 355.741 145.04 355.433 148.511C350.444 148.576 345.411 148.7 340.428 148.527C340.424 143.54 340.452 138.554 340.515 133.567Z" fill="#5AAA59"/>
<path d="M355.822 102.38L412.605 102.403C412.601 107.031 412.429 113.157 412.879 117.684C400.684 117.154 383.527 117.672 371.069 117.642L355.891 117.671L355.581 117.704C356.06 113.386 355.887 106.832 355.822 102.38Z" fill="black"/>
<path d="M325.091 133.473C328.499 133.444 337.787 133.655 340.523 133.244L340.515 133.567C340.452 138.554 340.423 143.54 340.428 148.527C345.411 148.7 350.444 148.576 355.432 148.511L355.504 148.748C355.646 161.357 355.372 174.049 355.569 186.561C349.919 186.595 333.021 187.067 328.08 186.441C326.876 186.507 326.004 186.699 325.136 185.905C324.896 183.536 324.921 181.186 324.97 178.808C325.178 168.833 324.844 158.812 325.089 148.845L325.089 148.557L325.091 133.473Z" fill="#3E913D"/>
<path d="M325.089 148.845L340.495 148.703C340.538 161.388 340.108 173.443 340.366 186.287C336.921 186.28 331.347 186.105 328.08 186.441C326.876 186.507 326.004 186.699 325.136 185.905C324.896 183.536 324.921 181.186 324.97 178.808C325.178 168.833 324.844 158.812 325.089 148.845Z" fill="#5AAA59"/>
<path d="M325.091 133.473C328.499 133.444 337.787 133.655 340.523 133.244L340.515 133.567C340.452 138.554 340.424 143.54 340.428 148.527C335.316 148.462 330.202 148.472 325.089 148.557L325.091 133.473Z" fill="black"/>
<path d="M294.497 202.202C309.615 201.914 325.194 202.194 340.4 202.095C340.138 207.236 340.049 212.384 340.133 217.531C325.238 217.695 309.273 217.957 294.377 217.838C294.3 222.632 294.087 228.399 294.218 233.122C284.126 233.016 273.176 233.556 263.249 233.281L263.262 217.588C273.637 217.701 284.012 217.695 294.386 217.569L294.497 202.202Z" fill="#F9E067"/>
<path d="M598.125 513.338C602.674 513.581 608.726 513.424 613.391 513.435C613.162 533.108 613.496 552.799 613.193 572.467C608.981 572.152 602.801 572.576 598.162 572.456C597.99 577.53 597.9 582.604 597.893 587.681C563.213 588.439 528.214 587.46 493.504 587.813C481.965 587.929 470.171 587.873 458.64 587.629C458.696 597.983 458.674 608.336 458.576 618.69H443.351C443.227 623.936 443.19 629.186 443.235 634.436L427.98 634.459C427.815 639.611 427.759 644.768 427.811 649.924L412.916 649.976C412.59 655.061 412.545 660.158 412.774 665.25C404.546 665.033 395.426 665.231 387.116 665.216C376.841 665.194 366.058 665.063 355.837 665.314C355.881 661.883 356.624 653.179 355.099 650.816C353.032 649.264 343.949 649.984 340.516 649.991C340.688 644.94 340.555 639.563 340.464 634.508C335.685 634.313 329.914 634.459 325.06 634.463C325.137 629.269 325.111 624.071 324.982 618.878C320.119 618.611 314.597 618.769 309.699 618.814C310.188 610.598 309.725 596.385 309.76 587.715C305.007 587.543 299.06 587.764 294.196 587.779L262.12 587.816L170.314 587.951C170.73 583.725 170.427 576.945 170.326 572.595C166.097 572.224 159.436 572.423 155.102 572.501C155.619 553.144 154.652 533.224 155.229 513.731C160.28 513.409 165.22 513.416 170.279 513.386C170.588 527.85 170.098 542.588 170.531 556.868C170.559 561.949 170.388 567.236 170.288 572.333C191.153 572.633 212.691 572.351 233.621 572.348L346.21 572.381L598.05 572.303L598.125 513.338Z" fill="black"/>
<path d="M325.068 587.854L443.464 587.749C443.216 598.155 443.561 608.438 443.347 618.72L428.137 618.735C427.875 623.97 427.882 629.201 427.845 634.448L412.714 634.451C412.796 639.623 412.845 644.798 412.864 649.973C399.799 650.175 386.734 650.239 373.668 650.168C370.133 650.171 358.402 650.393 355.786 649.939C355.614 644.993 355.715 639.454 355.702 634.463L340.512 634.489L340.485 618.758L325.059 618.739C324.884 613.616 324.958 608.513 324.993 603.386C325.058 598.208 325.083 593.033 325.068 587.854Z" fill="#845744"/>
<path d="M325.068 587.854L443.464 587.749C443.216 598.155 443.561 608.438 443.348 618.72L428.138 618.735C427.875 623.97 427.883 629.201 427.845 634.448L412.714 634.451C412.796 639.623 412.845 644.798 412.864 649.973C399.799 650.175 386.734 650.239 373.668 650.168C370.133 650.171 358.403 650.393 355.786 649.939C359.561 649.579 366.798 649.774 370.799 649.774L397.583 649.811L397.519 634.485L412.751 634.399C412.718 624.045 412.748 613.691 412.841 603.341C403.489 603.21 393.45 603.476 384.015 603.476L324.993 603.386C325.058 598.208 325.083 593.033 325.068 587.854Z" fill="#613D2B"/>
<path d="M567.487 482.321C571.02 482.516 579.214 482.636 582.641 482.374C582.559 487.234 582.529 493.121 582.727 497.966C587.685 498 593.227 498.161 598.14 498.034C598.072 502.099 597.791 509.423 598.125 513.338L598.05 572.303L346.21 572.381L233.621 572.348C212.691 572.351 191.153 572.633 170.288 572.333C170.388 567.236 170.559 561.949 170.531 556.868L171.28 557.13C181.242 557.483 191.801 557.085 201.764 556.973L241.692 556.89L392.932 556.871L520.841 556.901L559.597 556.931C567.21 556.973 575.231 557.333 582.784 556.946C582.619 542.366 582.634 527.79 582.825 513.21L567.345 513.443C567.371 508.283 567.439 503.104 567.27 497.951L551.752 497.959C551.659 493.515 551.554 486.619 551.902 482.329L567.487 482.321Z" fill="#D0A305"/>
<path d="M567.487 482.321C571.02 482.516 579.214 482.636 582.641 482.374C582.559 487.234 582.529 493.121 582.727 497.966C579.596 498.026 569.981 498.353 567.371 497.756C567.487 493.17 567.791 486.743 567.487 482.321Z" fill="black"/>
<path d="M582.728 497.966C587.685 498 593.228 498.161 598.14 498.034C598.073 502.099 597.791 509.423 598.125 513.338C593.014 513.39 587.906 513.39 582.799 513.341L582.728 497.966Z" fill="black"/>
<path d="M505.196 220.463C505.485 224.546 505.346 229.077 505.309 233.202C510.356 233.243 515.614 233.361 520.635 233.183L536.257 233.147L536.227 248.613C541.342 248.954 546.476 249.047 551.602 248.892L551.64 285.487C556.822 285.594 562.005 285.669 567.184 285.711C567.709 330.53 567.184 376.44 567.18 421.331L567.202 461.55C567.217 466.894 567.007 477.341 567.487 482.321L551.902 482.329C547.031 482.55 541.087 482.711 536.246 482.355L536.314 285.284C531.645 285.858 525.277 285.689 520.492 285.648L520.605 248.618C515.284 248.777 510.446 248.971 505.132 248.672C505.166 243.535 505.166 238.397 505.136 233.26C504.881 229.998 504.967 223.74 505.196 220.463Z" fill="#D0A305"/>
<path d="M551.64 285.487C556.823 285.594 562.005 285.669 567.184 285.711C567.709 330.53 567.184 376.44 567.18 421.331L567.203 461.55C567.218 466.894 567.008 477.341 567.488 482.321L551.902 482.329L551.779 350.912C551.895 336.728 551.895 322.543 551.779 308.358C551.79 301.156 552.113 292.565 551.64 285.487Z" fill="black"/>
<path d="M520.635 233.182L536.258 233.147L536.227 248.613C541.342 248.953 546.476 249.046 551.602 248.892L551.64 285.487C548.183 285.936 539.843 285.609 536.254 285.502L536.258 248.689C531.109 248.723 525.964 248.712 520.815 248.659L520.635 233.182Z" fill="black"/>
<path d="M247.806 233.231L263.249 233.281C263.126 238.231 262.894 243.644 262.973 248.555C257.93 248.554 252.887 248.674 247.849 248.916C247.235 259.287 247.383 274.836 247.554 285.366C242.448 285.386 237.343 285.524 232.244 285.778C231.697 300.593 232.028 316.597 232.031 331.5L232.055 410.126L231.997 460.736C232.002 466.2 231.539 477.345 231.993 482.239C226.917 482.257 221.843 482.396 216.774 482.651C216.698 486.637 216.329 494.261 216.581 497.962C211.499 497.887 205.791 498.217 201.017 498.079C200.947 492.829 200.921 487.579 200.938 482.329L216.579 482.325L216.526 349.699C216.532 328.643 216.224 306.636 216.592 285.666L232.128 285.637C232.252 273.304 232.272 260.969 232.187 248.636L247.747 248.637C247.826 243.538 247.79 238.339 247.806 233.231Z" fill="#F9E067"/>
<path d="M185.923 482.467C190.2 482.584 196.747 482.61 200.938 482.329C200.921 487.579 200.947 492.829 201.016 498.079C200.929 501.694 200.537 509.963 200.884 513.33C198.468 513.326 187.387 513.019 185.955 514.148C185.587 528.398 185.488 542.655 185.659 556.909C181.046 556.939 175.828 556.871 171.28 557.13L170.531 556.867C170.098 542.587 170.588 527.85 170.279 513.386C170.429 508.89 170.597 502.597 170.287 498.169C175.173 497.955 180.658 498.004 185.592 497.94C186.058 494.156 185.967 486.42 185.923 482.467Z" fill="#F9E067"/>
<path d="M185.923 482.467C190.2 482.584 196.747 482.61 200.938 482.329C200.921 487.579 200.947 492.829 201.016 498.079C195.904 497.962 190.789 497.94 185.676 498.008L185.649 513.394L176.799 513.457C175.091 513.334 172.088 513.405 170.279 513.386C170.429 508.89 170.597 502.597 170.287 498.169C175.173 497.955 180.658 498.004 185.592 497.94C186.058 494.156 185.967 486.42 185.923 482.467Z" fill="black"/>
<path d="M474.004 202.159C484.358 202.083 494.715 202.092 505.073 202.185L505.151 217.463L520.549 217.514C520.493 222.737 520.519 227.96 520.635 233.183C515.614 233.361 510.356 233.243 505.309 233.202C505.346 229.077 505.485 224.546 505.196 220.463C505.316 218.972 505.553 218.47 504.435 217.582C496.864 217.749 481.091 218.149 474.049 217.545C474.094 212.416 474.075 207.288 474.004 202.159Z" fill="black"/>
<path d="M427.98 202.071C443.321 202.204 458.662 202.234 474.004 202.16C474.075 207.288 474.094 212.417 474.049 217.545C469.226 218.093 461.392 217.739 456.251 217.673C446.895 217.513 437.535 217.568 428.182 217.839C428.194 212.583 428.126 207.326 427.98 202.071Z" fill="#D0A305"/>
<path d="M474.049 217.545C481.091 218.149 496.864 217.749 504.435 217.582C505.553 218.47 505.316 218.971 505.196 220.462C504.968 223.74 504.881 229.998 505.136 233.26L504.015 233.237C496.478 232.749 482.006 233.247 474.041 233.268C473.981 228.027 473.985 222.786 474.049 217.545Z" fill="#D0A305"/>
<path d="M504.435 217.582C505.553 218.47 505.316 218.972 505.196 220.463C504.968 223.74 504.881 229.998 505.136 233.26L504.015 233.237C504.008 230.439 503.393 219.391 504.435 217.582Z" fill="#F5CE10"/>
<path d="M278.565 285.539L340.366 285.561C340.423 290.756 340.433 295.952 340.397 301.148L355.585 301.043L355.632 316.509L371.031 316.623C371.021 340.406 370.786 364.512 371.081 388.264C365.912 388.309 360.743 388.301 355.574 388.234C355.701 393.368 355.706 398.501 355.589 403.635C350.526 403.808 345.458 403.785 340.397 403.571L340.424 419.258C319.983 419.213 299.086 419.437 278.697 419.182C278.668 414.244 278.498 408.439 278.692 403.571C273.56 403.864 268.416 403.871 263.284 403.586L263.238 388.395C258.461 388.14 252.774 388.208 247.926 388.148C247.704 364.302 247.67 340.454 247.826 316.607C252.962 316.616 258.096 316.583 263.231 316.511L263.202 301.041C268.362 300.978 273.501 300.881 278.661 301.013L278.565 285.539Z" fill="#FEFEFE"/>
<path d="M278.565 285.539L340.366 285.561C340.423 290.756 340.433 295.952 340.397 301.148L355.585 301.043L355.632 316.509L371.031 316.623C371.021 340.406 370.786 364.512 371.081 388.264C365.912 388.309 360.743 388.301 355.574 388.234C355.461 364.86 356.136 339.926 355.518 316.754L340.161 316.773L340.239 301.26C319.913 300.952 299.07 301.216 278.693 301.207L278.917 316.699C273.692 316.746 268.467 316.759 263.242 316.736L263.273 388.174L278.874 388.226C278.839 393.101 278.928 398.76 278.692 403.571C273.56 403.864 268.416 403.871 263.284 403.586L263.238 388.395C258.461 388.14 252.774 388.208 247.926 388.148C247.704 364.302 247.67 340.454 247.826 316.607C252.962 316.616 258.096 316.583 263.231 316.511L263.202 301.041C268.362 300.978 273.501 300.881 278.661 301.013L278.565 285.539Z" fill="black"/>
<path d="M340.275 388.282C345.375 388.211 350.475 388.192 355.574 388.234C355.701 393.367 355.706 398.501 355.589 403.635C350.526 403.807 345.458 403.785 340.397 403.571L340.424 419.257C319.983 419.212 299.086 419.437 278.697 419.182C278.668 414.244 278.498 408.439 278.692 403.571L340.202 403.515L340.275 388.282Z" fill="black"/>
<path d="M290.259 331.828L329.27 331.805C329.122 345.569 329.244 359.519 329.253 373.297C316.473 373.008 303.212 373.354 290.317 373.235L290.259 331.828Z" fill="black"/>
<path d="M428.152 285.559C448.646 285.339 469.327 285.514 489.832 285.545L489.746 301.133C494.839 301.052 500.059 301.1 505.166 301.089C505.114 306.245 505.155 311.402 505.29 316.557L520.62 316.663L520.534 388.286C515.542 388.215 510.322 388.32 505.316 388.35L505.361 403.65C500.167 403.733 494.97 403.714 489.776 403.598L489.761 419.25L428.242 419.246C428.175 414.03 428.16 408.814 428.194 403.601C423.082 403.8 417.964 403.845 412.849 403.729L412.841 388.376L397.474 388.196L397.47 316.622L412.759 316.563L412.8 301.029C417.881 301.05 422.962 301.097 428.044 301.173C428.006 295.968 428.044 290.763 428.152 285.559Z" fill="#FEFEFE"/>
<path d="M428.152 285.559C448.646 285.339 469.327 285.514 489.832 285.545L489.746 301.133C494.839 301.052 500.059 301.1 505.166 301.089C505.114 306.245 505.155 311.402 505.29 316.557L520.62 316.663L520.534 388.286C515.542 388.215 510.322 388.32 505.316 388.35L505.361 403.65C500.167 403.733 494.97 403.714 489.776 403.598C489.506 399.165 489.701 392.839 489.712 388.26C494.872 388.211 500.032 388.204 505.192 388.234C505.455 374.916 505.2 361.454 505.271 348.126C505.324 337.678 505.451 327.098 505.207 316.662C500.025 316.69 494.842 316.69 489.66 316.663L489.709 301.269C469.335 301.134 448.957 301.148 428.58 301.311C427.879 302.493 428.231 314.333 428.25 316.586C423.742 316.872 417.506 316.735 412.867 316.771L412.931 388.226L428.22 388.294L428.269 403.496C448.594 403.691 469.56 403.178 489.776 403.598L489.761 419.25L428.242 419.246C428.175 414.03 428.16 408.814 428.194 403.601C423.082 403.8 417.964 403.845 412.849 403.729L412.841 388.376L397.474 388.196L397.47 316.622L412.759 316.563L412.8 301.029C417.881 301.05 422.962 301.097 428.044 301.173C428.006 295.968 428.044 290.763 428.152 285.559Z" fill="black"/>
<path d="M439.316 331.8L478.189 331.869L478.241 359.185C478.245 362.665 478.459 369.648 478.125 372.908L477.439 373.224L439.316 373.324V331.8Z" fill="black"/>
</svg>
