<svg xmlns="http://www.w3.org/2000/svg" width="768" height="768" fill="none" viewBox="0 0 768 768"><path fill="#f5ce10" d="m355.822 102.38 56.783.023c-.004 4.628-.176 10.754.274 15.281 3.787.464 10.826.429 14.823.384.079 5.111.207 10.221.375 15.33a606 606 0 0 1 15.135.075c.015 4.746-.101 10.519.188 15.172 4.849.294 10.339.191 15.247.194.008 12.552.128 25.269 0 37.807 4.02-.002 11.329.212 15.083-.099q.266 7.804.274 15.612a1904 1904 0 0 1 31.068.026l.079 15.278 15.398.051q-.087 7.835.086 15.668l15.622-.035-.03 15.466c5.115.34 10.249.433 15.375.279l.038 36.595q7.775.16 15.544.224c.525 44.819 0 90.729-.004 135.62l.023 40.219c.015 5.344-.195 15.791.285 20.771 3.532.195 11.726.315 15.153.053-.082 4.86-.112 10.747.086 15.592 4.958.034 10.501.195 15.413.068-.067 4.065-.349 11.388-.015 15.303 4.549.244 10.601.087 15.266.098-.229 19.672.105 39.364-.198 59.032-4.212-.315-10.392.109-15.03-.011a466 466 0 0 0-.27 15.225c-34.68.758-69.679-.221-104.389.131-11.539.117-23.333.06-34.864-.183a2088 2088 0 0 1-.064 31.061h-15.225a489 489 0 0 0-.116 15.746l-15.255.023a367 367 0 0 0-.169 15.465l-14.895.052a140 140 0 0 0-.142 15.274c-8.228-.218-17.348-.019-25.658-.034-10.275-.022-21.058-.154-31.279.098.044-3.432.787-12.135-.738-14.498-2.067-1.552-11.15-.832-14.583-.825.172-5.051.039-10.429-.052-15.484-4.779-.195-10.55-.048-15.404-.045.077-5.193.051-10.391-.078-15.585-4.863-.266-10.385-.108-15.283-.063.489-8.217.026-22.429.061-31.099-4.753-.173-10.7.049-15.564.064l-32.076.037-91.806.135c.416-4.226.113-11.006.012-15.356-4.229-.371-10.89-.173-15.224-.094.517-19.357-.45-39.277.127-58.77 5.051-.322 9.991-.315 15.05-.345.15-4.496.318-10.789.008-15.217 4.886-.214 10.371-.165 15.305-.229.466-3.784.375-11.52.331-15.473 4.277.117 10.824.143 15.015-.138.43-7.38.164-17.727.171-25.272l.019-47.04.004-124.265c5.04.053 10.307-.276 15.523-.238-.362-12.151-.004-24.445.104-36.603 5.119.076 10.24-.015 15.354-.273.166-5.039.108-10.387.128-15.452l15.432-.144c.159-5.162.22-10.394.321-15.564l15.102.05c.224-4.796.122-10.501.154-15.367q15.518.074 31.034-.137c.243-4.738.153-10.536.203-15.356l15.106-.147c-.242-3.095.031-10.023.059-13.372l.071-24.288c3.377.021 12.487.247 15.366-.304l.002-15.084c3.408-.029 12.696.181 15.432-.229l-.008-15.293c5.007-.018 10.069.028 15.066-.247.479-4.318.306-10.872.241-15.324m15.134 84.335c8.476-.015 17.878-.224 26.278.002.558-12.088.24-25.97.176-38.137-8.516.028-17.839.196-26.291-.063-.649 11.363-.198 26.695-.163 38.198"/><path fill="#000" d="m355.822 102.38 56.783.023c-.004 4.628-.176 10.754.274 15.281 3.787.464 10.826.429 14.824.384.078 5.111.206 10.221.375 15.33a606 606 0 0 1 15.135.075c.015 4.746-.102 10.519.187 15.172 4.849.294 10.339.191 15.248.194.007 12.552.127 25.269 0 37.807 4.02-.002 11.328.212 15.082-.099q.266 7.804.274 15.612-23.012.112-46.024-.088l-87.58.024a230 230 0 0 0-.267 15.436c-14.895.164-30.86.426-45.756.307-.077 4.794-.29 10.561-.159 15.284-10.093-.106-21.042.434-30.97.159l-15.442-.05c-.016 5.108.02 10.307-.059 15.406l-15.56-.001q.127 18.5-.059 37.001l-15.536.029c-.368 20.97-.06 42.977-.066 64.033l.053 132.626-15.641.004c.43-7.38.164-17.727.171-25.272l.019-47.039.004-124.266c5.04.053 10.307-.276 15.523-.238-.362-12.151-.004-24.445.104-36.603 5.119.076 10.241-.015 15.354-.273.166-5.039.108-10.387.128-15.452l15.432-.144c.159-5.162.22-10.394.321-15.564l15.102.05c.224-4.796.122-10.501.154-15.367q15.518.075 31.034-.137c.243-4.738.153-10.535.203-15.356l15.106-.147c-.242-3.095.031-10.023.059-13.372l.071-24.288c3.377.022 12.487.247 15.366-.304l.002-15.084c3.408-.029 12.696.181 15.432-.229l-.008-15.293c5.007-.018 10.07.028 15.066-.247.479-4.318.306-10.872.241-15.324m15.134 84.335c8.477-.015 17.878-.224 26.278.002.559-12.088.24-25.97.176-38.137-8.516.028-17.839.196-26.291-.063-.649 11.363-.198 26.695-.163 38.198"/><path fill="#3e913d" d="m355.822 102.38 56.783.023c-.004 4.628-.176 10.754.274 15.281a662 662 0 0 0-.06 15.759c4.965.017 10.185.112 15.131 0 .079 4.952.27 10.436.135 15.341l15.195-.081c-.019 12.413.218 25.537-.011 37.897q-15.137.096-30.274-.2a2494 2494 0 0 1-.004-37.804l-15.483-.083-.038-15.271c-7.864-.013-18.277.283-25.933-.074-.576 2.166-.322 12.176-.604 15.367-2.398.011-13.672-.09-15.429.213l-.071-.237c-4.989.065-10.022.189-15.005.016q-.007-7.48.087-14.96l.008-.323-.008-15.293c5.007-.018 10.07.028 15.066-.247.479-4.318.306-10.872.241-15.324"/><path fill="#3e913d" d="m355.891 117.671 15.178-.029.235 15.411.233.115c-.576 2.166-.322 12.176-.604 15.366-2.398.012-13.672-.089-15.429.213l-.071-.236c-4.989.065-10.022.189-15.005.016q-.007-7.48.087-14.96l.008-.323-.008-15.293c5.007-.018 10.07.028 15.066-.247z"/><path fill="#5aaa59" d="m355.891 117.671 15.178-.029.235 15.411c-3.71.307-11.3.073-15.317.054z"/><path fill="#000" d="M340.515 117.951c5.007-.018 10.07.028 15.066-.247l.016 15.481-15.074.059z"/><path fill="#5aaa59" d="m340.515 133.567 14.996.018c.003 3.781.23 11.455-.078 14.926-4.989.065-10.022.189-15.005.016q-.007-7.48.087-14.96"/><path fill="#000" d="m355.822 102.38 56.783.023c-.004 4.628-.176 10.754.274 15.281-12.195-.53-29.352-.012-41.81-.042l-15.178.029-.31.033c.479-4.318.306-10.872.241-15.324"/><path fill="#3e913d" d="M325.091 133.473c3.408-.029 12.696.182 15.432-.229l-.008.323q-.094 7.48-.087 14.96c4.983.173 10.016.049 15.004-.016l.072.237c.142 12.609-.132 25.301.065 37.813-5.65.034-22.548.506-27.489-.12-1.204.066-2.076.258-2.944-.536-.24-2.369-.215-4.719-.166-7.097.208-9.975-.126-19.996.119-29.963v-.288z"/><path fill="#5aaa59" d="m325.089 148.845 15.406-.142c.043 12.685-.387 24.74-.129 37.584-3.445-.007-9.019-.182-12.286.154-1.204.066-2.076.258-2.944-.536-.24-2.369-.215-4.719-.166-7.097.208-9.975-.126-19.996.119-29.963"/><path fill="#000" d="M325.091 133.473c3.408-.029 12.696.182 15.432-.229l-.008.323a1114 1114 0 0 0-.087 14.96 523 523 0 0 0-15.339.03z"/><path fill="#f9e067" d="M294.497 202.202c15.118-.288 30.697-.008 45.903-.107a230 230 0 0 0-.267 15.436c-14.895.164-30.86.426-45.756.307-.077 4.794-.29 10.561-.159 15.284-10.092-.106-21.042.434-30.969.159l.013-15.693q15.563.17 31.124-.019z"/><path fill="#000" d="M598.125 513.338c4.549.243 10.601.086 15.266.097-.229 19.673.105 39.364-.198 59.032-4.212-.315-10.392.109-15.031-.011a468 468 0 0 0-.269 15.225c-34.68.758-69.679-.221-104.389.132-11.539.116-23.333.06-34.864-.184q.083 15.53-.064 31.061h-15.225a489 489 0 0 0-.116 15.746l-15.255.023a367 367 0 0 0-.169 15.465l-14.895.052a140 140 0 0 0-.142 15.274c-8.228-.217-17.348-.019-25.658-.034-10.275-.022-21.058-.153-31.279.098.044-3.431.787-12.135-.738-14.498-2.067-1.552-11.15-.832-14.583-.825.172-5.051.039-10.428-.052-15.483-4.779-.195-10.55-.049-15.404-.045.077-5.194.051-10.392-.078-15.585-4.863-.267-10.385-.109-15.283-.064.489-8.216.026-22.429.061-31.099-4.753-.172-10.7.049-15.564.064l-32.076.037-91.806.135c.416-4.226.113-11.006.012-15.356-4.229-.371-10.89-.172-15.224-.094.517-19.357-.45-39.277.127-58.77 5.051-.322 9.991-.315 15.05-.345.309 14.464-.181 29.202.252 43.482.028 5.081-.143 10.368-.243 15.465 20.865.3 42.403.018 63.333.015l112.589.033 251.84-.078z"/><path fill="#845744" d="m325.068 587.854 118.396-.105c-.248 10.406.097 20.689-.117 30.971l-15.21.015c-.262 5.235-.255 10.466-.292 15.713l-15.131.003q.122 7.759.15 15.522-19.597.302-39.196.195c-3.535.003-15.266.225-17.882-.229-.172-4.946-.071-10.485-.084-15.476l-15.19.026-.027-15.731-15.426-.019c-.175-5.123-.101-10.226-.066-15.353q.098-7.765.075-15.532"/><path fill="#613d2b" d="m325.068 587.854 118.396-.105c-.248 10.406.097 20.689-.116 30.971l-15.21.015c-.263 5.235-.255 10.466-.293 15.713l-15.131.003q.122 7.759.15 15.522-19.597.302-39.196.195c-3.535.003-15.265.225-17.882-.229 3.775-.36 11.012-.165 15.013-.165l26.784.037-.064-15.326 15.232-.086q-.05-15.532.09-31.058c-9.352-.131-19.391.135-28.826.135l-59.022-.09q.098-7.765.075-15.532"/><path fill="#d0a305" d="M567.487 482.321c3.533.195 11.727.315 15.154.053-.082 4.86-.112 10.747.086 15.592 4.958.034 10.5.195 15.413.068-.068 4.065-.349 11.389-.015 15.304l-.075 58.965-251.84.078-112.589-.033c-20.93.003-42.468.285-63.333-.015.1-5.097.271-10.384.243-15.465l.749.262c9.962.353 20.521-.045 30.484-.157l39.928-.083 151.24-.019 127.909.03 38.756.03c7.613.042 15.634.402 23.187.015-.165-14.58-.15-29.156.041-43.736l-15.48.233c.026-5.16.094-10.339-.075-15.492l-15.518.008c-.093-4.444-.198-11.34.15-15.63z"/><path fill="#000" d="M567.487 482.321c3.533.195 11.727.315 15.154.053-.082 4.86-.112 10.747.086 15.592-3.131.06-12.746.387-15.356-.21.116-4.586.42-11.013.116-15.435m15.241 15.645c4.957.034 10.5.195 15.412.068-.067 4.065-.349 11.389-.015 15.304q-7.666.077-15.326.003z"/><path fill="#d0a305" d="M505.196 220.463c.289 4.083.15 8.614.113 12.739 5.047.041 10.305.159 15.326-.019l15.622-.036-.03 15.466c5.115.341 10.249.434 15.375.279l.038 36.595q7.774.16 15.544.224c.525 44.819 0 90.729-.004 135.62l.022 40.219c.015 5.344-.195 15.791.285 20.771l-15.585.008c-4.871.221-10.815.382-15.656.026l.068-197.071c-4.669.574-11.037.405-15.822.364l.113-37.03c-5.321.159-10.159.353-15.473.054q.05-7.706.004-15.412c-.255-3.262-.169-9.52.06-12.797"/><path fill="#000" d="M551.64 285.487q7.775.16 15.544.224c.525 44.819 0 90.729-.004 135.62l.023 40.219c.015 5.344-.195 15.791.285 20.771l-15.586.008-.123-131.417a2602 2602 0 0 0 0-42.554c.011-7.202.334-15.793-.139-22.871m-31.005-52.305 15.623-.035-.031 15.466c5.115.34 10.249.433 15.375.279l.038 36.595c-3.457.449-11.797.122-15.386.015l.004-36.813q-7.721.05-15.443-.03z"/><path fill="#f9e067" d="m247.806 233.231 15.443.05c-.123 4.95-.355 10.363-.276 15.274a314 314 0 0 0-15.124.361c-.614 10.371-.466 25.92-.295 36.45q-7.66.03-15.31.412c-.547 14.815-.216 30.819-.213 45.722l.024 78.626-.058 50.61c.005 5.464-.458 16.609-.004 21.503q-7.615.028-15.219.412c-.076 3.986-.445 11.61-.193 15.311-5.082-.075-10.79.255-15.564.117q-.105-7.875-.079-15.75l15.641-.004-.053-132.626c.006-21.056-.302-43.063.066-64.033l15.536-.029q.186-18.5.059-37.001l15.56.001c.079-5.099.043-10.298.059-15.406"/><path fill="#f9e067" d="M185.923 482.467c4.277.117 10.824.143 15.015-.138q-.026 7.875.078 15.75c-.087 3.615-.479 11.884-.132 15.251-2.416-.004-13.497-.311-14.929.818-.368 14.25-.467 28.507-.296 42.761-4.613.03-9.831-.038-14.379.221l-.749-.263c-.433-14.28.057-29.017-.252-43.481.15-4.496.318-10.789.008-15.217 4.886-.214 10.371-.165 15.305-.229.466-3.784.375-11.52.331-15.473"/><path fill="#000" d="M185.923 482.467c4.277.117 10.824.143 15.015-.138q-.026 7.875.078 15.75a424 424 0 0 0-15.34-.071l-.027 15.386-8.85.063c-1.708-.123-4.711-.052-6.52-.071.15-4.496.318-10.789.008-15.217 4.886-.214 10.371-.165 15.305-.229.466-3.784.375-11.52.331-15.473m288.081-280.308q15.531-.114 31.069.026l.078 15.278 15.398.051q-.086 7.834.086 15.669c-5.021.178-10.279.06-15.326.019.037-4.125.176-8.656-.113-12.739.12-1.491.357-1.993-.761-2.881-7.571.167-23.344.567-30.386-.037.045-5.129.026-10.257-.045-15.386"/><path fill="#d0a305" d="M427.98 202.071q23.011.2 46.024.089c.071 5.128.09 10.257.045 15.385-4.823.548-12.657.194-17.798.128a609 609 0 0 0-28.069.166 525 525 0 0 0-.202-15.768"/><path fill="#d0a305" d="M474.049 217.545c7.042.604 22.815.204 30.386.037 1.118.888.881 1.389.761 2.88-.228 3.278-.315 9.536-.06 12.798l-1.121-.023c-7.537-.488-22.009.01-29.974.031q-.089-7.862.008-15.723"/><path fill="#f5ce10" d="M504.435 217.582c1.118.888.881 1.39.761 2.881-.228 3.277-.315 9.535-.06 12.797l-1.121-.023c-.007-2.798-.622-13.846.42-15.655"/><path fill="#fefefe" d="m278.565 285.539 61.801.022q.085 7.793.031 15.587l15.188-.105.047 15.466 15.399.114c-.01 23.783-.245 47.889.05 71.641a716 716 0 0 1-15.507-.03q.19 7.7.015 15.401c-5.063.173-10.131.15-15.192-.064l.027 15.687c-20.441-.045-41.338.179-61.727-.076-.029-4.938-.199-10.743-.005-15.611-5.132.293-10.276.3-15.408.015l-.046-15.191c-4.777-.255-10.464-.187-15.312-.247a4513 4513 0 0 1-.1-71.541q7.703.013 15.405-.096l-.029-15.47c5.16-.063 10.299-.16 15.459-.028z"/><path fill="#000" d="m278.565 285.539 61.801.022q.085 7.793.031 15.587l15.188-.105.047 15.466 15.399.114c-.01 23.783-.245 47.889.05 71.641a716 716 0 0 1-15.507-.03c-.113-23.374.562-48.308-.056-71.48l-15.357.019.078-15.513c-20.326-.308-41.169-.044-61.546-.053l.224 15.492q-7.838.071-15.675.037l.031 71.438 15.601.052c-.035 4.875.054 10.534-.182 15.345-5.132.293-10.276.3-15.408.015l-.046-15.191c-4.777-.255-10.464-.187-15.312-.247a4513 4513 0 0 1-.1-71.541q7.703.013 15.405-.096l-.029-15.47c5.16-.063 10.299-.16 15.459-.028z"/><path fill="#000" d="M340.275 388.282c5.1-.071 10.2-.09 15.299-.048q.19 7.7.015 15.401a199 199 0 0 1-15.192-.064l.027 15.686c-20.441-.045-41.338.18-61.727-.075-.029-4.938-.199-10.743-.005-15.611l61.51-.056zm-50.016-56.454 39.011-.023c-.148 13.764-.026 27.714-.017 41.492-12.78-.289-26.041.057-38.936-.062z"/><path fill="#fefefe" d="M428.152 285.559c20.494-.22 41.175-.045 61.68-.014l-.086 15.588c5.093-.081 10.313-.033 15.42-.044a427 427 0 0 0 .124 15.468l15.33.106-.086 71.623c-4.992-.071-10.212.034-15.218.064l.045 15.3q-7.793.123-15.585-.052l-.015 15.652-61.519-.004a808 808 0 0 1-.048-15.645c-5.112.199-10.23.244-15.345.128l-.008-15.353-15.367-.18-.004-71.574 15.289-.059.041-15.534q7.621.03 15.244.144-.055-7.808.108-15.614"/><path fill="#000" d="M428.152 285.559c20.494-.22 41.175-.045 61.68-.014l-.086 15.588c5.093-.081 10.313-.033 15.42-.044a427 427 0 0 0 .124 15.468l15.33.106-.086 71.623c-4.992-.071-10.212.034-15.218.064l.045 15.3q-7.793.123-15.585-.052c-.27-4.433-.075-10.759-.064-15.338q7.74-.072 15.48-.026c.263-13.318.008-26.78.079-40.108.053-10.448.18-21.028-.064-31.464q-7.774.042-15.547.001l.049-15.394a4180 4180 0 0 0-61.129.042c-.701 1.182-.349 13.022-.33 15.275-4.508.286-10.744.149-15.383.185l.064 71.455 15.289.068.049 15.202c20.325.195 41.291-.318 61.507.102l-.015 15.652-61.519-.004a808 808 0 0 1-.048-15.645c-5.112.199-10.23.244-15.345.128l-.008-15.353-15.367-.18-.004-71.574 15.289-.059.041-15.534q7.621.03 15.244.144-.055-7.808.108-15.614"/><path fill="#000" d="m439.316 331.8 38.873.069.052 27.316c.004 3.48.218 10.463-.116 13.723l-.686.316-38.123.1z"/></svg>