<svg width="257" height="242" viewBox="0 0 257 242" fill="none" xmlns="http://www.w3.org/2000/svg">
<path d="M226.227 0H30.3659C13.5991 0 0 13.5917 0 30.3659V226.227C0 242.994 13.5917 256.593 30.3659 256.593H226.227C242.994 256.593 256.593 243.001 256.593 226.227V30.3659C256.585 13.5917 242.994 0 226.227 0Z" fill="#2B4A3E"/>
<path d="M127.805 196.009C116.099 196.009 106.191 193.968 98.0723 189.872C89.9541 185.791 83.7587 179.935 79.4786 172.317C75.1985 164.7 72.8042 155.543 72.3107 144.854C72.1854 139.697 72.1191 134.157 72.1191 128.242C72.1191 122.334 72.1781 116.669 72.3107 111.254C72.8116 100.683 75.2353 91.5626 79.5743 83.8864C83.9134 76.2102 90.1457 70.3315 98.2639 66.2355C106.382 62.147 116.224 60.099 127.805 60.099C136.358 60.099 144.041 61.2335 150.833 63.4951C157.633 65.7641 163.416 68.8728 168.204 72.8436C172.985 76.8069 176.698 81.4332 179.343 86.7152C181.987 92.0046 183.372 97.7286 183.498 103.895C183.623 105.029 183.277 105.972 182.459 106.723C181.641 107.475 180.661 107.858 179.534 107.858H161.604C160.219 107.858 159.084 107.512 158.207 106.819C157.323 106.127 156.697 104.963 156.322 103.327C154.303 95.025 150.848 89.3599 145.934 86.3395C141.028 83.3191 134.921 81.8089 127.621 81.8089C119.186 81.8089 112.452 84.1663 107.421 88.8884C102.389 93.6105 99.6783 101.383 99.3026 112.204C98.9269 122.525 98.9269 133.097 99.3026 143.918C99.6783 154.748 102.389 162.512 107.421 167.234C112.452 171.956 119.186 174.314 127.621 174.314C134.921 174.314 141.021 172.774 145.934 169.687C150.841 166.601 154.303 160.972 156.322 152.788C156.697 151.027 157.323 149.834 158.207 149.2C159.084 148.567 160.219 148.25 161.604 148.25H179.534C180.669 148.25 181.641 148.626 182.459 149.385C183.277 150.143 183.623 151.086 183.498 152.213C183.372 158.379 181.987 164.111 179.343 169.393C176.698 174.682 172.985 179.308 168.204 183.272C163.423 187.235 157.633 190.351 150.833 192.62C144.041 194.874 136.358 196.009 127.805 196.009Z" fill="#F7F7F7"/>
</svg>
