<svg width="1948" height="350" viewBox="0 0 1948 350" fill="none" xmlns="http://www.w3.org/2000/svg">
<path d="M112.49 280.67C88.85 280.67 68.83 276.55 52.43 268.28C36.03 260.03 23.51 248.21 14.87 232.82C6.23 217.43 1.39 198.94 0.38 177.34C0.12 166.92 0 155.73 0 143.77C0 131.83 0.12 120.39 0.38 109.45C1.39 88.1 6.29 69.67 15.06 54.16C23.83 38.66 36.42 26.77 52.82 18.5C69.22 10.24 89.11 6.11005 112.5 6.11005C129.78 6.11005 145.3 8.40005 159.02 12.97C172.75 17.55 184.44 23.84 194.11 31.85C203.77 39.86 211.27 49.2 216.61 59.88C221.95 70.56 224.74 82.12 225 94.58C225.25 96.87 224.55 98.77 222.91 100.3C221.25 101.82 219.28 102.59 217 102.59H180.77C177.97 102.59 175.68 101.89 173.91 100.49C172.13 99.1001 170.86 96.74 170.1 93.44C166.03 76.66 159.04 65.22 149.12 59.12C139.21 53.02 126.87 49.97 112.13 49.97C95.1 49.97 81.49 54.7401 71.33 64.2701C61.16 73.8 55.7 89.51 54.93 111.37C54.17 132.22 54.17 153.57 54.93 175.43C55.7 197.3 61.16 213 71.33 222.53C81.49 232.07 95.1 236.84 112.13 236.84C126.87 236.84 139.21 233.73 149.12 227.5C159.03 221.27 166.03 209.9 170.1 193.37C170.86 189.81 172.13 187.4 173.91 186.13C175.69 184.85 177.97 184.22 180.77 184.22H217C219.29 184.22 221.25 184.99 222.91 186.51C224.56 188.04 225.26 189.94 225 192.23C224.74 204.69 221.95 216.26 216.61 226.93C211.27 237.61 203.77 246.96 194.11 254.96C184.45 262.97 172.75 269.26 159.02 273.84C145.28 278.39 129.77 280.67 112.49 280.67Z" fill="#111111"/>
<path d="M333.25 280.67C312.91 280.67 295.81 277.11 281.96 269.99C268.1 262.88 257.55 252.83 250.31 239.87C243.06 226.9 238.93 211.78 237.92 194.49C237.66 189.91 237.54 184.33 237.54 177.71C237.54 171.1 237.66 165.5 237.92 160.92C238.93 143.39 243.19 128.2 250.69 115.35C258.19 102.52 268.86 92.54 282.72 85.41C296.57 78.3 313.42 74.73 333.25 74.73C353.08 74.73 369.92 78.29 383.78 85.41C397.63 92.53 408.31 102.51 415.82 115.35C423.32 128.19 427.57 143.38 428.59 160.92C428.84 165.5 428.97 171.09 428.97 177.71C428.97 184.32 428.84 189.91 428.59 194.49C427.57 211.78 423.44 226.9 416.2 239.87C408.95 252.83 398.4 262.88 384.55 269.99C370.68 277.11 353.58 280.67 333.25 280.67ZM333.25 242.93C346.72 242.93 357.14 238.67 364.52 230.16C371.89 221.64 375.96 209.12 376.72 192.59C376.97 188.78 377.1 183.82 377.1 177.73C377.1 171.63 376.97 166.66 376.72 162.86C375.96 146.59 371.89 134.13 364.52 125.49C357.14 116.85 346.72 112.52 333.25 112.52C319.77 112.52 309.35 116.85 301.98 125.49C294.6 134.13 290.54 146.6 289.77 162.86C289.51 166.67 289.39 171.63 289.39 177.73C289.39 183.82 289.51 188.79 289.77 192.59C290.54 209.12 294.6 221.64 301.98 230.16C309.35 238.67 319.77 242.93 333.25 242.93Z" fill="#111111"/>
<path d="M456.12 276.87C453.57 276.87 451.41 275.98 449.63 274.2C447.85 272.42 446.96 270.26 446.96 267.71V87.71C446.96 85.17 447.85 83.01 449.63 81.22C451.41 79.44 453.57 78.55 456.12 78.55H487.39C489.93 78.55 492.09 79.44 493.87 81.22C495.65 83.01 496.54 85.16 496.54 87.71V103.35C503.15 95.22 511.6 88.42 521.9 82.94C532.2 77.48 544.97 74.75 560.22 74.75C575.72 74.75 589.2 78.25 600.64 85.23C612.08 92.23 620.91 102.08 627.14 114.79C633.37 127.51 636.48 142.75 636.48 160.55V267.7C636.48 270.24 635.59 272.41 633.81 274.19C632.03 275.97 629.87 276.86 627.33 276.86H593.77C591.23 276.86 589.07 275.97 587.29 274.19C585.51 272.41 584.62 270.25 584.62 267.7V162.85C584.62 148.1 580.99 136.53 573.75 128.15C566.51 119.76 556.02 115.56 542.29 115.56C529.07 115.56 518.52 119.76 510.64 128.15C502.76 136.54 498.82 148.11 498.82 162.85V267.72C498.82 270.26 497.93 272.43 496.15 274.21C494.37 275.99 492.21 276.88 489.66 276.88H456.12V276.87Z" fill="#111111"/>
<path d="M746.549 276.87C731.289 276.87 718.449 274.2 708.029 268.86C697.599 263.51 689.849 255.57 684.769 245.02C679.679 234.48 677.139 221.32 677.139 205.56V118.99H647.009C644.469 118.99 642.309 118.11 640.529 116.32C638.749 114.54 637.859 112.39 637.859 109.83V87.72C637.859 85.18 638.749 83.02 640.529 81.23C642.309 79.45 644.469 78.5601 647.009 78.5601H677.139V15.26C677.139 12.72 677.959 10.56 679.619 8.78005C681.269 7.00005 683.499 6.11005 686.299 6.11005H717.189C719.729 6.11005 721.889 7.00005 723.679 8.78005C725.449 10.56 726.349 12.72 726.349 15.26V78.5601H774.019C776.559 78.5601 778.719 79.45 780.509 81.23C782.289 83.02 783.179 85.17 783.179 87.72V109.84C783.179 112.39 782.289 114.55 780.509 116.33C778.729 118.12 776.569 119 774.019 119H726.349V201.75C726.349 212.18 728.189 220.31 731.879 226.16C735.559 232.01 741.989 234.92 751.139 234.92H777.459C779.999 234.92 782.159 235.82 783.939 237.6C785.719 239.38 786.609 241.54 786.609 244.08V267.73C786.609 270.27 785.719 272.44 783.939 274.22C782.159 276 779.999 276.89 777.459 276.89H746.549V276.87Z" fill="#111111"/>
<path d="M808.62 276.87C806.07 276.87 803.91 275.98 802.13 274.2C800.35 272.42 799.46 270.26 799.46 267.71V88.1C799.46 85.3 800.35 83.02 802.13 81.23C803.91 79.45 806.07 78.56 808.62 78.56H839.51C842.05 78.56 844.28 79.45 846.19 81.23C848.09 83.02 849.05 85.3 849.05 88.1V103.73C854.89 95.61 862.45 89.38 871.74 85.05C881.02 80.73 891.76 78.56 903.96 78.56H919.59C922.39 78.56 924.61 79.45 926.26 81.23C927.91 83.02 928.74 85.17 928.74 87.72V115.17C928.74 117.72 927.91 119.88 926.26 121.66C924.61 123.45 922.38 124.33 919.59 124.33H889.85C877.65 124.33 868.17 127.76 861.44 134.63C854.7 141.49 851.33 150.9 851.33 162.85V267.72C851.33 270.26 850.44 272.43 848.66 274.21C846.88 275.99 844.59 276.88 841.8 276.88H808.62V276.87Z" fill="#111111"/>
<path d="M994.03 280.67C980.81 280.67 968.86 278.06 958.18 272.86C947.5 267.65 939.05 260.65 932.82 251.88C926.58 243.11 923.47 233.26 923.47 222.33C923.47 204.54 930.65 190.36 945.02 179.81C959.38 169.26 978.39 162.21 1002.03 158.65L1054.28 151.03V143.02C1054.28 132.34 1051.61 124.08 1046.27 118.23C1040.93 112.39 1031.78 109.46 1018.82 109.46C1009.67 109.46 1002.23 111.31 996.51 114.99C990.79 118.68 986.53 123.58 983.74 129.67C981.7 132.98 978.79 134.63 974.97 134.63H944.84C942.04 134.63 939.94 133.86 938.55 132.33C937.15 130.81 936.45 128.78 936.45 126.24C936.7 122.17 938.36 117.21 941.41 111.37C944.46 105.52 949.29 99.87 955.9 94.4C962.51 88.93 971.02 84.29 981.45 80.49C991.87 76.67 1004.45 74.77 1019.2 74.77C1035.22 74.77 1048.76 76.74 1059.82 80.68C1070.88 84.62 1079.71 89.9 1086.32 96.51C1092.93 103.12 1097.76 110.87 1100.81 119.77C1103.86 128.67 1105.39 138.07 1105.39 147.99V267.73C1105.39 270.27 1104.5 272.44 1102.72 274.22C1100.94 276 1098.78 276.89 1096.23 276.89H1065.34C1062.54 276.89 1060.32 276 1058.67 274.22C1057.01 272.44 1056.19 270.28 1056.19 267.73V252.86C1052.88 257.7 1048.43 262.2 1042.85 266.4C1037.25 270.59 1030.45 274.02 1022.45 276.69C1014.43 279.34 1004.95 280.67 994.03 280.67ZM1006.99 244.45C1015.88 244.45 1023.96 242.55 1031.21 238.73C1038.46 234.91 1044.18 229.01 1048.37 221C1052.56 212.99 1054.66 202.89 1054.66 190.68V182.67L1016.53 188.77C1001.53 191.06 990.34 194.75 982.97 199.83C975.59 204.91 971.91 211.14 971.91 218.51C971.91 224.1 973.63 228.87 977.06 232.82C980.49 236.76 984.88 239.68 990.22 241.59C995.55 243.5 1001.14 244.45 1006.99 244.45Z" fill="#111111"/>
<path d="M1138.63 349.32C1136.08 349.32 1133.92 348.43 1132.14 346.65C1130.36 344.87 1129.47 342.71 1129.47 340.17V87.72C1129.47 85.18 1130.36 83.02 1132.14 81.23C1133.92 79.45 1136.08 78.56 1138.63 78.56H1168.76C1171.55 78.56 1173.77 79.45 1175.43 81.23C1177.08 83.02 1177.91 85.17 1177.91 87.72V102.98C1184.01 94.85 1192.02 88.11 1201.93 82.77C1211.84 77.43 1224.17 74.76 1238.92 74.76C1252.39 74.76 1264.09 76.92 1274.01 81.24C1283.92 85.57 1292.18 91.73 1298.79 99.74C1305.4 107.76 1310.48 117.22 1314.05 128.15C1317.61 139.08 1319.64 151.16 1320.15 164.37C1320.4 168.7 1320.53 173.14 1320.53 177.72C1320.53 182.29 1320.4 186.86 1320.15 191.45C1319.89 204.17 1317.99 215.92 1314.43 226.72C1310.87 237.52 1305.72 246.93 1298.99 254.94C1292.25 262.95 1283.93 269.24 1274.01 273.82C1264.1 278.39 1252.39 280.68 1238.92 280.68C1225.19 280.68 1213.5 278.21 1203.84 273.25C1194.18 268.29 1186.3 261.74 1180.2 253.61V340.18C1180.2 342.71 1179.37 344.88 1177.72 346.66C1176.07 348.44 1173.84 349.33 1171.05 349.33H1138.63V349.32ZM1224.81 239.88C1235.74 239.88 1244.26 237.53 1250.36 232.83C1256.46 228.13 1260.85 221.96 1263.52 214.33C1266.19 206.7 1267.77 198.31 1268.29 189.16C1268.8 181.53 1268.8 173.9 1268.29 166.28C1267.77 157.13 1266.19 148.74 1263.52 141.1C1260.85 133.48 1256.47 127.31 1250.36 122.6C1244.26 117.9 1235.74 115.55 1224.81 115.55C1214.39 115.55 1205.93 117.97 1199.45 122.8C1192.97 127.63 1188.26 133.8 1185.34 141.3C1182.42 148.8 1180.7 156.49 1180.19 164.37C1179.93 168.95 1179.81 173.78 1179.81 178.86C1179.81 183.95 1179.93 188.91 1180.19 193.73C1180.44 201.35 1182.22 208.66 1185.53 215.66C1188.83 222.66 1193.66 228.43 1200.02 233.01C1206.38 237.59 1214.64 239.88 1224.81 239.88Z" fill="#111111"/>
<path d="M1427.27 276.87C1412.01 276.87 1399.17 274.2 1388.75 268.86C1378.32 263.51 1370.57 255.57 1365.49 245.02C1360.4 234.48 1357.86 221.32 1357.86 205.56V118.99H1327.73C1325.19 118.99 1323.03 118.11 1321.25 116.32C1319.47 114.54 1318.58 112.39 1318.58 109.83V87.72C1318.58 85.18 1319.47 83.02 1321.25 81.23C1323.03 79.45 1325.19 78.5601 1327.73 78.5601H1357.86V15.26C1357.86 12.72 1358.68 10.56 1360.34 8.78005C1361.99 7.00005 1364.22 6.11005 1367.02 6.11005H1397.91C1400.45 6.11005 1402.61 7.00005 1404.4 8.78005C1406.17 10.56 1407.07 12.72 1407.07 15.26V78.5601H1454.74C1457.28 78.5601 1459.44 79.45 1461.23 81.23C1463.01 83.02 1463.9 85.17 1463.9 87.72V109.84C1463.9 112.39 1463.01 114.55 1461.23 116.33C1459.45 118.12 1457.29 119 1454.74 119H1407.07V201.75C1407.07 212.18 1408.91 220.31 1412.6 226.16C1416.28 232.01 1422.71 234.92 1431.86 234.92H1458.18C1460.72 234.92 1462.88 235.82 1464.66 237.6C1466.44 239.38 1467.33 241.54 1467.33 244.08V267.73C1467.33 270.27 1466.44 272.44 1464.66 274.22C1462.88 276 1460.72 276.89 1458.18 276.89H1427.27V276.87Z" fill="#111111"/>
<path d="M1487.86 45.77C1485.06 45.77 1482.84 44.95 1481.19 43.29C1479.53 41.64 1478.71 39.41 1478.71 36.61V9.16C1478.71 6.62 1479.53 4.46 1481.19 2.67C1482.84 0.89 1485.06 0 1487.86 0H1522.56C1525.35 0 1527.64 0.89 1529.42 2.67C1531.2 4.45 1532.09 6.61 1532.09 9.16V36.61C1532.09 39.41 1531.2 41.63 1529.42 43.29C1527.64 44.94 1525.35 45.77 1522.56 45.77H1487.86ZM1489.39 276.87C1486.84 276.87 1484.68 275.98 1482.9 274.2C1481.12 272.42 1480.23 270.26 1480.23 267.71V87.71C1480.23 85.17 1481.12 83.01 1482.9 81.22C1484.68 79.44 1486.84 78.55 1489.39 78.55H1521.04C1523.83 78.55 1526.05 79.44 1527.71 81.22C1529.36 83.01 1530.19 85.16 1530.19 87.71V267.71C1530.19 270.25 1529.36 272.42 1527.71 274.2C1526.05 275.98 1523.83 276.87 1521.04 276.87H1489.39Z" fill="#111111"/>
<path d="M1643.95 280.67C1623.61 280.67 1606.51 277.11 1592.66 269.99C1578.8 262.88 1568.25 252.83 1561.01 239.87C1553.76 226.9 1549.63 211.78 1548.62 194.49C1548.36 189.91 1548.24 184.33 1548.24 177.71C1548.24 171.1 1548.36 165.5 1548.62 160.92C1549.63 143.39 1553.89 128.2 1561.39 115.35C1568.89 102.52 1579.56 92.54 1593.42 85.41C1607.27 78.3 1624.12 74.73 1643.95 74.73C1663.78 74.73 1680.62 78.29 1694.48 85.41C1708.33 92.53 1719.01 102.51 1726.52 115.35C1734.02 128.19 1738.28 143.38 1739.3 160.92C1739.55 165.5 1739.68 171.09 1739.68 177.71C1739.68 184.32 1739.54 189.91 1739.3 194.49C1738.28 211.78 1734.15 226.9 1726.9 239.87C1719.65 252.83 1709.1 262.88 1695.25 269.99C1681.38 277.11 1664.28 280.67 1643.95 280.67ZM1643.95 242.93C1657.42 242.93 1667.84 238.67 1675.22 230.16C1682.59 221.64 1686.66 209.12 1687.42 192.59C1687.67 188.78 1687.8 183.82 1687.8 177.73C1687.8 171.63 1687.67 166.66 1687.42 162.86C1686.66 146.59 1682.59 134.13 1675.22 125.49C1667.84 116.85 1657.42 112.52 1643.95 112.52C1630.47 112.52 1620.05 116.85 1612.68 125.49C1605.3 134.13 1601.24 146.6 1600.47 162.86C1600.21 166.67 1600.09 171.63 1600.09 177.73C1600.09 183.82 1600.21 188.79 1600.47 192.59C1601.24 209.12 1605.3 221.64 1612.68 230.16C1620.05 238.67 1630.47 242.93 1643.95 242.93Z" fill="#111111"/>
<path d="M1766.82 276.87C1764.27 276.87 1762.11 275.98 1760.33 274.2C1758.54 272.42 1757.66 270.26 1757.66 267.71V87.71C1757.66 85.17 1758.54 83.01 1760.33 81.22C1762.11 79.44 1764.26 78.55 1766.82 78.55H1798.09C1800.62 78.55 1802.79 79.44 1804.57 81.22C1806.35 83.01 1807.25 85.16 1807.25 87.71V103.35C1813.85 95.22 1822.31 88.42 1832.6 82.94C1842.9 77.48 1855.68 74.75 1870.92 74.75C1886.42 74.75 1899.9 78.25 1911.34 85.23C1922.78 92.23 1931.61 102.08 1937.84 114.79C1944.07 127.5 1947.18 142.75 1947.18 160.55V267.7C1947.18 270.24 1946.29 272.41 1944.51 274.19C1942.73 275.97 1940.57 276.86 1938.03 276.86H1904.46C1901.92 276.86 1899.76 275.97 1897.98 274.19C1896.19 272.41 1895.31 270.25 1895.31 267.7V162.85C1895.31 148.1 1891.68 136.53 1884.44 128.15C1877.2 119.76 1866.71 115.56 1852.97 115.56C1839.75 115.56 1829.2 119.76 1821.33 128.15C1813.44 136.54 1809.51 148.11 1809.51 162.85V267.72C1809.51 270.26 1808.62 272.43 1806.84 274.21C1805.05 275.99 1802.9 276.88 1800.35 276.88H1766.82V276.87Z" fill="#111111"/>
</svg>
