<svg xmlns="http://www.w3.org/2000/svg" width="1948" height="350" fill="none" viewBox="0 0 1948 350"><path fill="#2b4a3e" d="M112.49 280.67c-23.64 0-43.66-4.12-60.06-12.39q-24.6-12.375-37.56-35.46C6.23 217.43 1.39 198.94.38 177.34.12 166.92 0 155.73 0 143.77c0-11.94.12-23.38.38-34.32C1.39 88.1 6.29 69.67 15.06 54.16c8.77-15.5 21.36-27.39 37.76-35.66 16.4-8.26 36.29-12.39 59.68-12.39 17.28 0 32.8 2.29 46.52 6.86 13.73 4.58 25.42 10.87 35.09 18.88 9.66 8.01 17.16 17.35 22.5 28.03s8.13 22.24 8.39 34.7c.25 2.29-.45 4.19-2.09 5.72-1.66 1.52-3.63 2.29-5.91 2.29h-36.23c-2.8 0-5.09-.7-6.86-2.1-1.78-1.39-3.05-3.75-3.81-7.05-4.07-16.78-11.06-28.22-20.98-34.32-9.91-6.1-22.25-9.15-36.99-9.15-17.03 0-30.64 4.77-40.8 14.3-10.17 9.53-15.63 25.24-16.4 47.1-.76 20.85-.76 42.2 0 64.06.77 21.87 6.23 37.57 16.4 47.1 10.16 9.54 23.77 14.31 40.8 14.31 14.74 0 27.08-3.11 36.99-9.34s16.91-17.6 20.98-34.13c.76-3.56 2.03-5.97 3.81-7.24 1.78-1.28 4.06-1.91 6.86-1.91H217c2.29 0 4.25.77 5.91 2.29 1.65 1.53 2.35 3.43 2.09 5.72-.26 12.46-3.05 24.03-8.39 34.7-5.34 10.68-12.84 20.03-22.5 28.03-9.66 8.01-21.36 14.3-35.09 18.88-13.74 4.55-29.25 6.83-46.53 6.83m220.76 0c-20.34 0-37.44-3.56-51.29-10.68-13.86-7.11-24.41-17.16-31.65-30.12-7.25-12.97-11.38-28.09-12.39-45.38-.26-4.58-.38-10.16-.38-16.78 0-6.61.12-12.21.38-16.79 1.01-17.53 5.27-32.72 12.77-45.57 7.5-12.83 18.17-22.81 32.03-29.94 13.85-7.11 30.7-10.68 50.53-10.68s36.67 3.56 50.53 10.68q20.775 10.68 32.04 29.94c7.5 12.84 11.75 28.03 12.77 45.57.25 4.58.38 10.17.38 16.79 0 6.61-.13 12.2-.38 16.78-1.02 17.29-5.15 32.41-12.39 45.38-7.25 12.96-17.8 23.01-31.65 30.12q-20.805 10.68-51.3 10.68m0-37.74c13.47 0 23.89-4.26 31.27-12.77 7.37-8.52 11.44-21.04 12.2-37.57.25-3.81.38-8.77.38-14.86 0-6.1-.13-11.07-.38-14.87-.76-16.27-4.83-28.73-12.2-37.37-7.38-8.64-17.8-12.97-31.27-12.97-13.48 0-23.9 4.33-31.27 12.97-7.38 8.64-11.44 21.11-12.21 37.37-.26 3.81-.38 8.77-.38 14.87 0 6.09.12 11.06.38 14.86.77 16.53 4.83 29.05 12.21 37.57 7.37 8.51 17.79 12.77 31.27 12.77m122.87 33.94c-2.55 0-4.71-.89-6.49-2.67s-2.67-3.94-2.67-6.49v-180c0-2.54.89-4.7 2.67-6.49 1.78-1.78 3.94-2.67 6.49-2.67h31.27q3.81 0 6.48 2.67c1.78 1.79 2.67 3.94 2.67 6.49v15.64c6.61-8.13 15.06-14.93 25.36-20.41 10.3-5.46 23.07-8.19 38.32-8.19 15.5 0 28.98 3.5 40.42 10.48 11.44 7 20.27 16.85 26.5 29.56 6.23 12.72 9.34 27.96 9.34 45.76V267.7c0 2.54-.89 4.71-2.67 6.49q-2.67 2.67-6.48 2.67h-33.56q-3.81 0-6.48-2.67c-1.78-1.78-2.67-3.94-2.67-6.49V162.85c0-14.75-3.63-26.32-10.87-34.7-7.24-8.39-17.73-12.59-31.46-12.59-13.22 0-23.77 4.2-31.65 12.59s-11.82 19.96-11.82 34.7v104.87c0 2.54-.89 4.71-2.67 6.49s-3.94 2.67-6.49 2.67h-33.54zm290.429 0q-22.89 0-38.52-8.01c-10.43-5.35-18.18-13.29-23.26-23.84-5.09-10.54-7.63-23.7-7.63-39.46v-86.57h-30.13c-2.54 0-4.7-.88-6.48-2.67-1.78-1.78-2.67-3.93-2.67-6.49V87.72c0-2.54.89-4.7 2.67-6.49q2.67-2.67 6.48-2.67h30.13v-63.3c0-2.54.82-4.7 2.48-6.48 1.65-1.78 3.88-2.67 6.68-2.67h30.89c2.54 0 4.7.89 6.49 2.67 1.77 1.78 2.67 3.94 2.67 6.48v63.3h47.67c2.54 0 4.7.89 6.49 2.67 1.78 1.79 2.67 3.94 2.67 6.49v22.12c0 2.55-.89 4.71-2.67 6.49-1.78 1.79-3.94 2.67-6.49 2.67h-47.67v82.75c0 10.43 1.84 18.56 5.53 24.41 3.68 5.85 10.11 8.76 19.26 8.76h26.32c2.54 0 4.7.9 6.48 2.68q2.67 2.67 2.67 6.48v23.65c0 2.54-.89 4.71-2.67 6.49q-2.67 2.67-6.48 2.67h-30.91zm62.071 0c-2.55 0-4.71-.89-6.49-2.67s-2.67-3.94-2.67-6.49V88.1c0-2.8.89-5.08 2.67-6.87 1.78-1.78 3.94-2.67 6.49-2.67h30.89c2.54 0 4.77.89 6.68 2.67 1.9 1.79 2.86 4.07 2.86 6.87v15.63c5.84-8.12 13.4-14.35 22.69-18.68 9.28-4.32 20.02-6.49 32.22-6.49h15.63c2.8 0 5.02.89 6.67 2.67 1.65 1.79 2.48 3.94 2.48 6.49v27.45c0 2.55-.83 4.71-2.48 6.49-1.65 1.79-3.88 2.67-6.67 2.67h-29.74c-12.2 0-21.68 3.43-28.41 10.3-6.74 6.86-10.11 16.27-10.11 28.22v104.87c0 2.54-.89 4.71-2.67 6.49s-4.07 2.67-6.86 2.67h-33.18zm185.41 3.8c-13.22 0-25.17-2.61-35.85-7.81-10.68-5.21-19.13-12.21-25.36-20.98-6.24-8.77-9.35-18.62-9.35-29.55 0-17.79 7.18-31.97 21.55-42.52 14.36-10.55 33.37-17.6 57.01-21.16l52.25-7.62v-8.01c0-10.68-2.67-18.94-8.01-24.79-5.34-5.84-14.49-8.77-27.45-8.77-9.15 0-16.59 1.85-22.31 5.53-5.72 3.69-9.98 8.59-12.77 14.68-2.04 3.31-4.95 4.96-8.77 4.96h-30.13c-2.8 0-4.9-.77-6.29-2.3q-2.1-2.28-2.1-6.09c.25-4.07 1.91-9.03 4.96-14.87 3.05-5.85 7.88-11.5 14.49-16.97s15.12-10.11 25.55-13.91c10.42-3.82 23-5.72 37.75-5.72q24.03 0 40.62 5.91c11.06 3.94 19.89 9.22 26.5 15.83s11.44 14.36 14.49 23.26 4.58 18.3 4.58 28.22v119.74c0 2.54-.89 4.71-2.67 6.49s-3.94 2.67-6.49 2.67h-30.89c-2.8 0-5.02-.89-6.67-2.67-1.66-1.78-2.48-3.94-2.48-6.49v-14.87c-3.31 4.84-7.76 9.34-13.34 13.54q-8.4 6.285-20.4 10.29c-8.02 2.65-17.5 3.98-28.42 3.98m12.96-36.22c8.89 0 16.97-1.9 24.22-5.72s12.97-9.72 17.16-17.73 6.29-18.11 6.29-30.32v-8.01l-38.13 6.1c-15 2.29-26.19 5.98-33.56 11.06-7.38 5.08-11.06 11.31-11.06 18.68 0 5.59 1.72 10.36 5.15 14.31 3.43 3.94 7.82 6.86 13.16 8.77 5.33 1.91 10.92 2.86 16.77 2.86m131.64 104.87c-2.55 0-4.71-.89-6.49-2.67q-2.67-2.67-2.67-6.48V87.72c0-2.54.89-4.7 2.67-6.49 1.78-1.78 3.94-2.67 6.49-2.67h30.13c2.79 0 5.01.89 6.67 2.67 1.65 1.79 2.48 3.94 2.48 6.49v15.26c6.1-8.13 14.11-14.87 24.02-20.21q14.865-8.01 36.99-8.01c13.47 0 25.17 2.16 35.09 6.48 9.91 4.33 18.17 10.49 24.78 18.5 6.61 8.02 11.69 17.48 15.26 28.41 3.56 10.93 5.59 23.01 6.1 36.22.25 4.33.38 8.77.38 13.35 0 4.57-.13 9.14-.38 13.73-.26 12.72-2.16 24.47-5.72 35.27s-8.71 20.21-15.44 28.22c-6.74 8.01-15.06 14.3-24.98 18.88-9.91 4.57-21.62 6.86-35.09 6.86-13.73 0-25.42-2.47-35.08-7.43s-17.54-11.51-23.64-19.64v86.57c0 2.53-.83 4.7-2.48 6.48s-3.88 2.67-6.67 2.67h-32.42zm86.18-109.44c10.93 0 19.45-2.35 25.55-7.05s10.49-10.87 13.16-18.5 4.25-16.02 4.77-25.17c.51-7.63.51-15.26 0-22.88-.52-9.15-2.1-17.54-4.77-25.18-2.67-7.62-7.05-13.79-13.16-18.5-6.1-4.7-14.62-7.05-25.55-7.05-10.42 0-18.88 2.42-25.36 7.25s-11.19 11-14.11 18.5-4.64 15.19-5.15 23.07c-.26 4.58-.38 9.41-.38 14.49 0 5.09.12 10.05.38 14.87q.375 11.43 5.34 21.93c3.3 7 8.13 12.77 14.49 17.35s14.62 6.87 24.79 6.87m202.46 36.99q-22.89 0-38.52-8.01c-10.43-5.35-18.18-13.29-23.26-23.84-5.09-10.54-7.63-23.7-7.63-39.46v-86.57h-30.13c-2.54 0-4.7-.88-6.48-2.67-1.78-1.78-2.67-3.93-2.67-6.49V87.72c0-2.54.89-4.7 2.67-6.49q2.67-2.67 6.48-2.67h30.13v-63.3c0-2.54.82-4.7 2.48-6.48 1.65-1.78 3.88-2.67 6.68-2.67h30.89c2.54 0 4.7.89 6.49 2.67 1.77 1.78 2.67 3.94 2.67 6.48v63.3h47.67c2.54 0 4.7.89 6.49 2.67 1.78 1.79 2.67 3.94 2.67 6.49v22.12c0 2.55-.89 4.71-2.67 6.49-1.78 1.79-3.94 2.67-6.49 2.67h-47.67v82.75c0 10.43 1.84 18.56 5.53 24.41 3.68 5.85 10.11 8.76 19.26 8.76h26.32c2.54 0 4.7.9 6.48 2.68q2.67 2.67 2.67 6.48v23.65c0 2.54-.89 4.71-2.67 6.49q-2.67 2.67-6.48 2.67h-30.91zm60.59-231.1c-2.8 0-5.02-.82-6.67-2.48-1.66-1.65-2.48-3.88-2.48-6.68V9.16c0-2.54.82-4.7 2.48-6.49 1.65-1.78 3.87-2.67 6.67-2.67h34.7c2.79 0 5.08.89 6.86 2.67s2.67 3.94 2.67 6.49v27.45c0 2.8-.89 5.02-2.67 6.68-1.78 1.65-4.07 2.48-6.86 2.48zm1.53 231.1c-2.55 0-4.71-.89-6.49-2.67s-2.67-3.94-2.67-6.49v-180c0-2.54.89-4.7 2.67-6.49 1.78-1.78 3.94-2.67 6.49-2.67h31.65c2.79 0 5.01.89 6.67 2.67 1.65 1.79 2.48 3.94 2.48 6.49v180c0 2.54-.83 4.71-2.48 6.49-1.66 1.78-3.88 2.67-6.67 2.67zm154.56 3.8c-20.34 0-37.44-3.56-51.29-10.68-13.86-7.11-24.41-17.16-31.65-30.12-7.25-12.97-11.38-28.09-12.39-45.38-.26-4.58-.38-10.16-.38-16.78 0-6.61.12-12.21.38-16.79 1.01-17.53 5.27-32.72 12.77-45.57 7.5-12.83 18.17-22.81 32.03-29.94 13.85-7.11 30.7-10.68 50.53-10.68s36.67 3.56 50.53 10.68q20.775 10.68 32.04 29.94 11.25 19.26 12.78 45.57c.25 4.58.38 10.17.38 16.79 0 6.61-.14 12.2-.38 16.78-1.02 17.29-5.15 32.41-12.4 45.38-7.25 12.96-17.8 23.01-31.65 30.12q-20.805 10.68-51.3 10.68m0-37.74c13.47 0 23.89-4.26 31.27-12.77 7.37-8.52 11.44-21.04 12.2-37.57.25-3.81.38-8.77.38-14.86 0-6.1-.13-11.07-.38-14.87-.76-16.27-4.83-28.73-12.2-37.37-7.38-8.64-17.8-12.97-31.27-12.97-13.48 0-23.9 4.33-31.27 12.97-7.38 8.64-11.44 21.11-12.21 37.37-.26 3.81-.38 8.77-.38 14.87 0 6.09.12 11.06.38 14.86.77 16.53 4.83 29.05 12.21 37.57 7.37 8.51 17.79 12.77 31.27 12.77m122.87 33.94c-2.55 0-4.71-.89-6.49-2.67-1.79-1.78-2.67-3.94-2.67-6.49v-180c0-2.54.88-4.7 2.67-6.49 1.78-1.78 3.93-2.67 6.49-2.67h31.27c2.53 0 4.7.89 6.48 2.67 1.78 1.79 2.68 3.94 2.68 6.49v15.64c6.6-8.13 15.06-14.93 25.35-20.41 10.3-5.46 23.08-8.19 38.32-8.19 15.5 0 28.98 3.5 40.42 10.48 11.44 7 20.27 16.85 26.5 29.56s9.34 27.96 9.34 45.76V267.7c0 2.54-.89 4.71-2.67 6.49q-2.67 2.67-6.48 2.67h-33.57q-3.81 0-6.48-2.67c-1.79-1.78-2.67-3.94-2.67-6.49V162.85c0-14.75-3.63-26.32-10.87-34.7-7.24-8.39-17.73-12.59-31.47-12.59-13.22 0-23.77 4.2-31.64 12.59-7.89 8.39-11.82 19.96-11.82 34.7v104.87c0 2.54-.89 4.71-2.67 6.49-1.79 1.78-3.94 2.67-6.49 2.67h-33.53z"/></svg>