<svg width="972" height="74" viewBox="0 0 972 74" fill="none" xmlns="http://www.w3.org/2000/svg">
<path d="M12.8 45.1V72.9H0V1.1H28.7C44.7 1.1 54.7 8.6 54.7 23.1C54.7 37.4 44.7 45.1 28.7 45.1H12.8ZM12.8 34.1H28C37.2 34.1 42.1 30.1 42.1 23.1C42.1 16 37.2 12.1 28 12.1H12.8V34.1Z" fill="black"/>
<path d="M112.384 1.1H125.184V72.9H112.384V41.5H77.9836V72.9H65.1836V1.1H77.9836V30.3H112.384V1.1Z" fill="black"/>
<path d="M153.616 1.1V72.9H140.816V1.1H153.616Z" fill="black"/>
<path d="M169.184 72.9V1.1H181.984V61.7H215.784V72.9H169.184Z" fill="black"/>
<path d="M238.866 1.1V72.9H226.066V1.1H238.866Z" fill="black"/>
<path d="M267.234 45.1V72.9H254.434V1.1H283.134C299.134 1.1 309.134 8.6 309.134 23.1C309.134 37.4 299.134 45.1 283.134 45.1H267.234ZM267.234 34.1H282.434C291.634 34.1 296.534 30.1 296.534 23.1C296.534 16 291.634 12.1 282.434 12.1H267.234V34.1Z" fill="black"/>
<path d="M355.023 1.1V72.9H342.223V1.1H355.023Z" fill="black"/>
<path d="M370.59 72.9V1.1H383.39V61.7H417.19V72.9H370.59Z" fill="black"/>
<path d="M440.273 1.1V72.9H427.473V1.1H440.273Z" fill="black"/>
<path d="M464.94 37C464.94 52.5 473.34 62.7 485.14 62.7C493.54 62.7 499.64 57.6 501.84 49.2L513.84 53.3C509.64 66 499.64 74 485.14 74C466.04 74 452.14 58.8 452.14 37C452.14 15.2 466.04 0 485.14 0C499.64 0 509.64 8 513.84 20.7L501.84 24.8C499.64 16.4 493.54 11.3 485.14 11.3C473.34 11.3 464.94 21.5 464.94 37Z" fill="black"/>
<path d="M600.845 12.3H577.745V72.9H564.945V12.3H541.845V1.1H600.845V12.3Z" fill="black"/>
<path d="M658.356 1.1H671.156V72.9H658.356V41.5H623.956V72.9H611.156V1.1H623.956V30.3H658.356V1.1Z" fill="black"/>
<path d="M683.089 37C683.089 15.2 697.089 0 716.489 0C735.889 0 749.889 15.2 749.889 37C749.889 58.8 735.889 74 716.489 74C697.089 74 683.089 58.8 683.089 37ZM737.089 37C737.089 21.4 728.589 11.3 716.489 11.3C704.389 11.3 695.889 21.4 695.889 37C695.889 52.6 704.389 62.7 716.489 62.7C728.589 62.7 737.089 52.6 737.089 37Z" fill="black"/>
<path d="M802.936 72.9H792.536L773.736 17.4V72.9H761.836V1.1H779.436L797.936 56.1L816.436 1.1H833.636V72.9H821.736V17.4L802.936 72.9Z" fill="black"/>
<path d="M870.588 1.1H885.088L912.287 72.9H899.388L893.188 56.5H862.188L856.088 72.9H843.388L870.588 1.1ZM877.588 15.3L866.388 45.3H888.987L877.588 15.3Z" fill="black"/>
<path d="M914.298 58.9L924.098 50.8C929.098 58.6 936.598 63.1 944.798 63.1C952.898 63.1 958.998 59.4 958.998 52.5C958.998 45.2 951.498 44.2 940.798 41.6C929.998 39 918.398 35.8 918.398 21.8C918.398 8.5 929.798 0 944.298 0C956.598 0 966.198 5.8 970.998 13.3L961.598 21.4C957.598 15.2 952.298 10.9 943.898 10.9C936.198 10.9 930.898 14.8 930.898 20.5C930.898 26.8 936.398 28.1 946.098 30.3C957.698 32.9 971.598 35.6 971.598 51.2C971.598 65.3 959.198 74 944.398 74C932.098 74 919.898 68.1 914.298 58.9Z" fill="black"/>
</svg>
