<svg width="843" height="74" viewBox="0 0 843 74" fill="none" xmlns="http://www.w3.org/2000/svg">
<path d="M12.8 45.1V72.9H0V1.1H28.7C44.7 1.1 54.7 8.6 54.7 23.1C54.7 37.4 44.7 45.1 28.7 45.1H12.8ZM12.8 34.1H28C37.2 34.1 42.1 30.1 42.1 23.1C42.1 16 37.2 12.1 28 12.1H12.8V34.1Z" fill="black"/>
<path d="M112.384 1.1H125.184V72.9H112.384V41.5H77.9836V72.9H65.1836V1.1H77.9836V30.3H112.384V1.1Z" fill="black"/>
<path d="M153.616 1.1V72.9H140.816V1.1H153.616Z" fill="black"/>
<path d="M169.184 72.9V1.1H181.984V61.7H215.784V72.9H169.184Z" fill="black"/>
<path d="M238.866 1.1V72.9H226.066V1.1H238.866Z" fill="black"/>
<path d="M267.234 45.1V72.9H254.434V1.1H283.134C299.134 1.1 309.134 8.6 309.134 23.1C309.134 37.4 299.134 45.1 283.134 45.1H267.234ZM267.234 34.1H282.434C291.634 34.1 296.534 30.1 296.534 23.1C296.534 16 291.634 12.1 282.434 12.1H267.234V34.1Z" fill="black"/>
<path d="M355.023 1.1V72.9H342.223V1.1H355.023Z" fill="black"/>
<path d="M367.79 72.9V58.4H382.29V72.9H367.79Z" fill="black"/>
<path d="M471.356 12.3H448.256V72.9H435.456V12.3H412.356V1.1H471.356V12.3Z" fill="black"/>
<path d="M528.868 1.1H541.668V72.9H528.868V41.5H494.468V72.9H481.668V1.1H494.468V30.3H528.868V1.1Z" fill="black"/>
<path d="M553.601 37C553.601 15.2 567.601 0 587.001 0C606.401 0 620.401 15.2 620.401 37C620.401 58.8 606.401 74 587.001 74C567.601 74 553.601 58.8 553.601 37ZM607.601 37C607.601 21.4 599.101 11.3 587.001 11.3C574.901 11.3 566.401 21.4 566.401 37C566.401 52.6 574.901 62.7 587.001 62.7C599.101 62.7 607.601 52.6 607.601 37Z" fill="black"/>
<path d="M673.448 72.9H663.048L644.248 17.4V72.9H632.348V1.1H649.948L668.448 56.1L686.948 1.1H704.148V72.9H692.248V17.4L673.448 72.9Z" fill="black"/>
<path d="M741.099 1.1H755.599L782.799 72.9H769.899L763.699 56.5H732.699L726.599 72.9H713.899L741.099 1.1ZM748.099 15.3L736.899 45.3H759.499L748.099 15.3Z" fill="black"/>
<path d="M784.809 58.9L794.609 50.8C799.609 58.6 807.109 63.1 815.309 63.1C823.409 63.1 829.509 59.4 829.509 52.5C829.509 45.2 822.009 44.2 811.309 41.6C800.509 39 788.909 35.8 788.909 21.8C788.909 8.5 800.309 0 814.809 0C827.109 0 836.709 5.8 841.509 13.3L832.109 21.4C828.109 15.2 822.809 10.9 814.409 10.9C806.709 10.9 801.409 14.8 801.409 20.5C801.409 26.8 806.909 28.1 816.609 30.3C828.209 32.9 842.109 35.6 842.109 51.2C842.109 65.3 829.709 74 814.909 74C802.609 74 790.409 68.1 784.809 58.9Z" fill="black"/>
</svg>
