<svg width="881" height="80" viewBox="0 0 881 80" fill="none" xmlns="http://www.w3.org/2000/svg">
<path d="M15.729 49.755V78.003H0V1.177H31.458C49.113 1.177 60.134 9.523 60.134 25.466C60.134 41.302 49.113 49.755 31.458 49.755H15.729ZM15.729 36.38H30.602C39.804 36.38 44.512 32.314 44.512 25.466C44.512 18.511 39.804 14.552 30.602 14.552H15.729V36.38Z" fill="#111111"/>
<path d="M118.093 1.177H133.822V78.003H118.093V45.368H84.0669V78.003H68.3379V1.177H84.0669V31.779H118.093V1.177Z" fill="#111111"/>
<path d="M163.063 1.177V78.003H147.334V1.177H163.063Z" fill="#111111"/>
<path d="M176.487 78.003V1.177H192.216V64.414H227.526V78.003H176.487Z" fill="#111111"/>
<path d="M251.568 1.177V78.003H235.839V1.177H251.568Z" fill="#111111"/>
<path d="M280.721 49.755V78.003H264.992V1.177H296.45C314.105 1.177 325.126 9.523 325.126 25.466C325.126 41.302 314.105 49.755 296.45 49.755H280.721ZM280.721 36.38H295.594C304.796 36.38 309.504 32.314 309.504 25.466C309.504 18.511 304.796 14.552 295.594 14.552H280.721V36.38Z" fill="#111111"/>
<path d="M370.689 1.177V78.003H354.96V1.177H370.689Z" fill="#111111"/>
<path d="M381.438 78.003V60.669H398.986V78.003H381.438Z" fill="#111111"/>
<path d="M490.298 14.766H466.223V78.003H450.494V14.766H426.312V1.177H490.298V14.766Z" fill="#111111"/>
<path d="M548.392 1.177H564.121V78.003H548.392V45.368H514.366V78.003H498.637V1.177H514.366V31.779H548.392V1.177Z" fill="#111111"/>
<path d="M573.781 39.59C573.781 16.371 588.975 0 610.161 0C631.24 0 646.434 16.371 646.434 39.59C646.434 62.809 631.24 79.18 610.161 79.18C588.975 79.18 573.781 62.809 573.781 39.59ZM630.598 39.59C630.598 23.861 622.145 13.803 610.161 13.803C598.07 13.803 589.617 23.861 589.617 39.59C589.617 55.319 598.07 65.377 610.161 65.377C622.145 65.377 630.598 55.319 630.598 39.59Z" fill="#111111"/>
<path d="M701.367 78.003H689.383L670.872 21.721V78.003H656.106V1.177H677.934L695.696 55.854L713.351 1.177H734.858V78.003H719.878V21.721L701.367 78.003Z" fill="#111111"/>
<path d="M771.06 1.177H789.036L817.819 78.003H801.876L795.777 61.525H764.105L758.006 78.003H742.384L771.06 1.177ZM779.834 18.618L769.027 48.15H790.748L779.834 18.618Z" fill="#111111"/>
<path d="M817.366 63.986L828.173 53.5C833.844 61.525 842.083 66.019 850.536 66.019C858.561 66.019 864.446 62.488 864.446 55.961C864.446 48.899 857.17 47.936 845.614 45.368C834.165 42.693 821.753 39.055 821.753 23.861C821.753 9.202 834.379 0 850.322 0C863.59 0 873.969 5.885 879.319 13.589L868.94 23.754C864.446 17.441 858.454 13.161 849.894 13.161C842.404 13.161 837.268 16.799 837.268 22.363C837.268 28.355 842.832 29.532 852.89 31.779C865.088 34.454 880.068 37.557 880.068 54.356C880.068 69.871 866.372 79.18 850.001 79.18C837.054 79.18 823.572 73.295 817.366 63.986Z" fill="#111111"/>
</svg>
