<?xml version="1.0" encoding="utf-8"?>
<!-- Generator: Adobe Illustrator 26.2.1, SVG Export Plug-In . SVG Version: 6.00 Build 0)  -->
<svg version="1.1" id="Layer_1" xmlns="http://www.w3.org/2000/svg" xmlns:xlink="http://www.w3.org/1999/xlink" x="0px" y="0px"
	 viewBox="0 0 2794 636.8" style="enable-background:new 0 0 2794 636.8;" xml:space="preserve">
<style type="text/css">
	.st0{fill:#F7F7F7;}
	.st1{fill:#2C3E6B;}
</style>
<g>
	<path class="st1" d="M329.3,79.5C302,67.7,268.5,61.8,228.8,61.8H44.9v517.1h94.5V399.3h91.6c38.9,0,71.9-6.1,99-18.3
		c27.1-12.2,47.6-30.9,61.7-56.1c14-25.2,21.1-57.3,21.1-96.2c0-38.4-7.1-69.9-21.2-94.5S356.6,91.3,329.3,79.5z M292.6,298.5
		c-16.1,14.5-40.3,21.8-72.6,21.8h-80.5V140.8h78.3c33.2,0,58,7.1,74.4,21.4c16.4,14.3,24.6,36.9,24.6,68S308.7,284,292.6,298.5z"/>
	<path class="st1" d="M717.3,228.5c-28.3-17.6-62.5-26.4-102.7-26.4c-40.1,0-74.4,8.8-102.7,26.4c-28.3,17.6-49.9,41.1-64.8,70.4
		c-14.9,29.3-22.3,61.3-22.3,96c0,34.5,7.4,66.2,22.3,95.3c14.9,29.1,36.5,52.3,64.8,69.8c28.3,17.5,62.5,26.2,102.7,26.2
		c40.1,0,74.4-8.7,102.7-26.2c28.3-17.5,49.9-40.8,64.8-69.8c14.9-29.1,22.3-60.8,22.3-95.3c0-34.7-7.5-66.7-22.3-96
		C767.2,269.6,745.6,246.1,717.3,228.5z M685.7,478.6c-16.6,21.6-40.3,32.3-71.1,32.3c-30.5,0-54.2-10.8-70.9-32.3
		c-16.8-21.5-25.1-49.4-25.1-83.6c0-34.7,8.4-63,25.1-84.8c16.7-21.8,40.4-32.7,70.9-32.7c30.8,0,54.5,10.9,71.1,32.7
		c16.6,21.8,24.9,50,24.9,84.8C710.6,429.1,702.3,457,685.7,478.6z"/>
	<path class="st1" d="M1100,408.9c-8.4-8.6-18.9-16.5-31.6-23.6c-12.7-7.1-27.6-14-44.9-20.7c-26.6-10.3-45.9-19.1-58-26.2
		c-12.1-7.1-18.1-17.8-18.1-32.1c0-11.8,4.3-20.9,12.9-27.3c8.6-6.4,20.8-9.6,36.6-9.6c20,0,38.3,3.8,55,11.3
		c16.7,7.5,33.4,17,49.9,28.6l8.1-78.3c-15.8-8.9-32.9-15.9-51.5-21.1c-18.6-5.2-39.6-7.8-63-7.8c-28.1,0-52.3,4.6-72.8,13.7
		c-20.4,9.1-36.2,21.8-47.3,38c-11.1,16.2-16.6,35-16.6,56.1c0,20.4,4.1,37.6,12.4,51.5c8.3,13.9,20.3,25.8,36.2,35.6
		c15.9,9.9,35.1,19,57.8,27.3c15,5.7,27.6,11,37.7,15.9c10.1,4.9,17.7,10.5,22.7,16.6c5,6.2,7.6,14,7.6,23.6
		c0,12.8-4.8,22.2-14.4,28.1c-9.6,5.9-23.5,8.9-41.7,8.9c-20.2,0-39.5-3.4-57.8-10.2c-18.3-6.8-37-15.7-56-26.8l-8.1,78.3
		c19.7,8.9,39.3,15.6,58.9,20.3c19.6,4.7,41.6,7,65.9,7c31,0,57.3-4.3,78.9-12.9c21.5-8.6,37.9-21.1,49.1-37.5
		c11.2-16.4,16.8-36.2,16.8-59.6c0-14.3-2-26.9-6.1-37.8C1114.5,427.3,1108.3,417.6,1100,408.9z"/>
	<path class="st1" d="M1688.3,504.4c-14.2,4.3-28.5,6.5-43,6.5c-34,0-61-11.1-80.9-33.4c-19.9-22.3-29.9-49.8-29.9-82.5
		c0-34.5,9.7-62.4,29.2-83.8c19.5-21.4,46.9-32.1,82.4-32.1c15.5,0,30.3,2,44.5,5.9c14.2,3.9,26.9,8.9,38.2,14.8l7.4-73.9
		c-11.8-6.6-26.1-12.2-42.8-16.8s-35.4-6.8-56.1-6.8c-43.8,0-80.3,8.7-109.3,26.2c-29.1,17.5-50.8,40.8-65.4,70
		c-14.5,29.2-21.8,61.4-21.8,96.6c0,35,7.3,66.9,22,95.8c14.6,28.9,36.3,52.1,65,69.4c28.7,17.4,64.2,26,106.5,26
		c20,0,39-2,57.1-6.1c18.1-4.1,33.6-9.4,46.3-16.1l-8.1-77.6C1716.2,494.1,1702.4,500.1,1688.3,504.4z"/>
	<path class="st1" d="M2286.9,225c-17,10.3-30.2,20.7-39.5,31l-2.2-39.1h-85.7v369.3h91.6V358.4c41.4-62.3,107.9-48.1,107.9-48.1
		V211c-4.9-1-10.3-1.5-16.3-1.5C2322.5,209.5,2303.9,214.7,2286.9,225z"/>
	<path class="st1" d="M2653.7,24.8v208.3c-8.5-6-17.6-11.4-27.3-16.1c-18.7-9-41.6-13.5-68.7-13.5c-37.4,0-68.9,8.7-94.4,26.2
		c-25.5,17.5-44.7,40.8-57.6,69.8c-12.9,29.1-19.4,60.8-19.4,95.3s6.5,66.2,19.4,95.3c12.9,29.1,32.1,52.3,57.6,69.8
		c25.5,17.5,56.9,26.2,94.4,26.2c28.1,0,51.3-4.6,69.8-13.7c10.1-5,20-11,29.7-18l1.7,24.3h86.4v-554H2653.7z M2620.4,496.1
		c-12.8,9.8-29.3,14.8-49.5,14.8c-19.2,0-35.6-4.9-49.1-14.8c-13.5-9.9-23.9-23.5-31-40.8c-7.1-17.4-10.7-37.5-10.7-60.4
		c0-22.9,3.6-43,10.7-60.4c7.1-17.4,17.5-31,31-40.8c13.5-9.8,29.9-14.8,49.1-14.8c20.2,0,36.7,4.9,49.5,14.8
		c12.8,9.9,22.3,23.5,28.4,40.8c6.2,17.4,9.2,37.5,9.2,60.4c0,22.9-3.1,43-9.2,60.4C2642.7,472.7,2633.2,486.3,2620.4,496.1z"/>
	<path class="st1" d="M2023.8,218.4c-20-9.8-43.7-14.8-71.3-14.8c-22.9,0-45.5,2.7-67.8,8.1c-22.3,5.4-44.5,13.5-66.7,24.4l8.1,74.6
		c19.7-9.6,37.4-16.7,53-21.2c15.6-4.6,31.7-6.8,48.2-6.8c23.6,0,40.4,4.8,50.2,14.4c9.8,9.6,15.3,25,16.2,46.2
		c-13.8,0.5-29.7,2.1-47.8,4.8c-18.1,2.7-36.4,7-55,12.7c-18.6,5.8-35.8,13.7-51.7,23.6c-15.9,10-28.7,22.4-38.4,37.3
		c-9.7,14.9-14.6,32.8-14.6,53.7c0,23.4,4.8,43.3,14.4,59.8c9.6,16.5,22.5,29.1,38.8,37.9c16.2,8.7,34.2,13.1,53.9,13.1
		c22.2,0,43.5-3.8,64.1-11.3c14.5-5.3,26.8-12.2,37.1-20.5v31.8h91.1v-181l0.5,0.7v-53.9c0-35.7-5.4-64.4-16.2-86.2
		C2059.1,244,2043.8,228.2,2023.8,218.4z M1962.1,509.6c-12.1,4.3-22.2,6.5-30.3,6.5c-17.2,0-29.8-3.6-37.7-10.9
		c-7.9-7.3-11.8-18.4-11.8-33.4c0-14.5,5.8-26.6,17.4-36.2c11.6-9.6,26-16.9,43.2-21.8c17.2-4.9,34.5-7.8,51.7-8.5v84.2
		C1985,498.6,1974.2,505.3,1962.1,509.6z"/>
	<path class="st1" d="M1317.2,190.1v-57.5l-91.6-13.9v9.6v61.8v19.4h-44.3h-8.1v75.3h52.5v204.6c0,16,3.4,31.4,10.3,46.2
		c6.9,14.8,17.6,26.9,32.1,36.4c14.5,9.5,33.4,14.2,56.5,14.2h65.7l8.1-75.3h-25.1c-17.2,0-29.8-1-37.7-3.1
		c-7.9-2.1-12.9-7.3-15.1-15.5c-2.2-8.3-3.3-21.7-3.3-40.4V284.8h81.3v-75.3h-81.3V190.1z"/>
</g>
</svg>
