<svg xmlns="http://www.w3.org/2000/svg" xml:space="preserve" viewBox="0 0 2794 636.8"><path d="M329.3 79.5q-40.95-17.7-100.5-17.7H44.9v517.1h94.5V399.3H231q58.35 0 99-18.3c27.1-12.2 47.6-30.9 61.7-56.1 14-25.2 21.1-57.3 21.1-96.2 0-38.4-7.1-69.9-21.2-94.5s-35-42.9-62.3-54.7m-36.7 219c-16.1 14.5-40.3 21.8-72.6 21.8h-80.5V140.8h78.3c33.2 0 58 7.1 74.4 21.4s24.6 36.9 24.6 68-8.1 53.8-24.2 68.3m424.7-70c-28.3-17.6-62.5-26.4-102.7-26.4-40.1 0-74.4 8.8-102.7 26.4s-49.9 41.1-64.8 70.4-22.3 61.3-22.3 96c0 34.5 7.4 66.2 22.3 95.3s36.5 52.3 64.8 69.8 62.5 26.2 102.7 26.2c40.1 0 74.4-8.7 102.7-26.2s49.9-40.8 64.8-69.8c14.9-29.1 22.3-60.8 22.3-95.3 0-34.7-7.5-66.7-22.3-96-14.9-29.3-36.5-52.8-64.8-70.4m-31.6 250.1c-16.6 21.6-40.3 32.3-71.1 32.3-30.5 0-54.2-10.8-70.9-32.3-16.8-21.5-25.1-49.4-25.1-83.6 0-34.7 8.4-63 25.1-84.8s40.4-32.7 70.9-32.7q46.2 0 71.1 32.7c16.6 21.8 24.9 50 24.9 84.8 0 34.1-8.3 62-24.9 83.6m414.3-69.7c-8.4-8.6-18.9-16.5-31.6-23.6s-27.6-14-44.9-20.7c-26.6-10.3-45.9-19.1-58-26.2s-18.1-17.8-18.1-32.1q0-17.7 12.9-27.3t36.6-9.6c20 0 38.3 3.8 55 11.3s33.4 17 49.9 28.6l8.1-78.3c-15.8-8.9-32.9-15.9-51.5-21.1q-27.9-7.8-63-7.8c-28.1 0-52.3 4.6-72.8 13.7-20.4 9.1-36.2 21.8-47.3 38s-16.6 35-16.6 56.1c0 20.4 4.1 37.6 12.4 51.5s20.3 25.8 36.2 35.6c15.9 9.9 35.1 19 57.8 27.3 15 5.7 27.6 11 37.7 15.9s17.7 10.5 22.7 16.6c5 6.2 7.6 14 7.6 23.6 0 12.8-4.8 22.2-14.4 28.1s-23.5 8.9-41.7 8.9c-20.2 0-39.5-3.4-57.8-10.2s-37-15.7-56-26.8l-8.1 78.3c19.7 8.9 39.3 15.6 58.9 20.3s41.6 7 65.9 7q46.5 0 78.9-12.9c21.5-8.6 37.9-21.1 49.1-37.5s16.8-36.2 16.8-59.6c0-14.3-2-26.9-6.1-37.8s-10.3-20.6-18.6-29.3m588.3 95.5c-14.2 4.3-28.5 6.5-43 6.5-34 0-61-11.1-80.9-33.4s-29.9-49.8-29.9-82.5c0-34.5 9.7-62.4 29.2-83.8s46.9-32.1 82.4-32.1c15.5 0 30.3 2 44.5 5.9s26.9 8.9 38.2 14.8l7.4-73.9c-11.8-6.6-26.1-12.2-42.8-16.8s-35.4-6.8-56.1-6.8c-43.8 0-80.3 8.7-109.3 26.2-29.1 17.5-50.8 40.8-65.4 70-14.5 29.2-21.8 61.4-21.8 96.6 0 35 7.3 66.9 22 95.8 14.6 28.9 36.3 52.1 65 69.4 28.7 17.4 64.2 26 106.5 26 20 0 39-2 57.1-6.1s33.6-9.4 46.3-16.1l-8.1-77.6c-13.4 7.6-27.2 13.6-41.3 17.9M2286.9 225c-17 10.3-30.2 20.7-39.5 31l-2.2-39.1h-85.7v369.3h91.6V358.4c41.4-62.3 107.9-48.1 107.9-48.1V211c-4.9-1-10.3-1.5-16.3-1.5-20.2 0-38.8 5.2-55.8 15.5m366.8-200.2v208.3c-8.5-6-17.6-11.4-27.3-16.1q-28.05-13.5-68.7-13.5c-37.4 0-68.9 8.7-94.4 26.2s-44.7 40.8-57.6 69.8c-12.9 29.1-19.4 60.8-19.4 95.3s6.5 66.2 19.4 95.3 32.1 52.3 57.6 69.8 56.9 26.2 94.4 26.2c28.1 0 51.3-4.6 69.8-13.7q15.15-7.5 29.7-18l1.7 24.3h86.4v-554h-91.6zm-33.3 471.3c-12.8 9.8-29.3 14.8-49.5 14.8-19.2 0-35.6-4.9-49.1-14.8s-23.9-23.5-31-40.8c-7.1-17.4-10.7-37.5-10.7-60.4s3.6-43 10.7-60.4 17.5-31 31-40.8 29.9-14.8 49.1-14.8c20.2 0 36.7 4.9 49.5 14.8s22.3 23.5 28.4 40.8c6.2 17.4 9.2 37.5 9.2 60.4s-3.1 43-9.2 60.4-15.6 31-28.4 40.8m-596.6-277.7c-20-9.8-43.7-14.8-71.3-14.8q-34.35 0-67.8 8.1c-22.3 5.4-44.5 13.5-66.7 24.4l8.1 74.6c19.7-9.6 37.4-16.7 53-21.2 15.6-4.6 31.7-6.8 48.2-6.8 23.6 0 40.4 4.8 50.2 14.4s15.3 25 16.2 46.2c-13.8.5-29.7 2.1-47.8 4.8s-36.4 7-55 12.7c-18.6 5.8-35.8 13.7-51.7 23.6-15.9 10-28.7 22.4-38.4 37.3s-14.6 32.8-14.6 53.7c0 23.4 4.8 43.3 14.4 59.8s22.5 29.1 38.8 37.9c16.2 8.7 34.2 13.1 53.9 13.1 22.2 0 43.5-3.8 64.1-11.3 14.5-5.3 26.8-12.2 37.1-20.5v31.8h91.1v-181l.5.7V352c0-35.7-5.4-64.4-16.2-86.2s-26.1-37.6-46.1-47.4m-61.7 291.2c-12.1 4.3-22.2 6.5-30.3 6.5-17.2 0-29.8-3.6-37.7-10.9s-11.8-18.4-11.8-33.4c0-14.5 5.8-26.6 17.4-36.2s26-16.9 43.2-21.8 34.5-7.8 51.7-8.5v84.2c-9.6 9.1-20.4 15.8-32.5 20.1m-644.9-319.5v-57.5l-91.6-13.9v90.8h-52.4v75.3h52.5v204.6c0 16 3.4 31.4 10.3 46.2s17.6 26.9 32.1 36.4 33.4 14.2 56.5 14.2h65.7l8.1-75.3h-25.1c-17.2 0-29.8-1-37.7-3.1s-12.9-7.3-15.1-15.5c-2.2-8.3-3.3-21.7-3.3-40.4V284.8h81.3v-75.3h-81.3z" style="fill:#2c3e6b"/></svg>