<svg width="1601" height="369" viewBox="0 0 1601 369" fill="none" xmlns="http://www.w3.org/2000/svg">
<path d="M139 367C81 367 51 334.5 51 280.5V159.5H0V95H51V31L131.5 9.99999V95H194V159.5H131.5V264.5C131.5 284 138 296.5 163.5 296.5C177 296.5 182 295 195.5 292.5V356.5C189.5 360 171.5 367 139 367Z" fill="#F41986"/>
<path d="M240.797 95H321.297V362H240.797V95ZM240.297 0H321.797V66.5H240.297V0Z" fill="#F41986"/>
<path d="M492.875 369C467.375 369 447.875 363 430.375 352.5C390.375 328.5 370.375 282.5 370.375 228.5C370.375 169 392.375 126.5 430.375 104C447.875 93.5 468.875 88 492.375 88C535.875 88 554.375 109 559.875 125V0H640.375V362H573.875L571.375 323.5C561.875 347.5 538.375 369 492.875 369ZM506.875 303C522.375 303 533.875 296.5 541.375 290.5C555.875 278 563.375 260 563.375 228.5C563.375 197 555.375 180.5 541.375 167C533.875 160.5 522.375 155 506.875 155C491.375 155 479.875 160.5 472.375 167C458.375 179.5 450.875 198 450.875 228.5C450.875 260 458.375 278 472.375 290.5C479.875 297 491.375 303 506.875 303Z" fill="#F41986"/>
<path d="M850.723 369C807.723 369 780.723 344.5 771.223 323L769.223 362H702.223V0H782.723V125C791.223 108.5 817.223 88 858.223 88C888.223 88 909.223 96.5 927.223 110.5C957.223 134 972.223 174.5 972.223 228.5C972.223 280.5 956.723 325.5 920.723 349.5C902.223 362 879.223 369 850.723 369ZM835.723 303C851.223 303 862.723 298 870.223 290.5C884.223 277 892.223 260 892.223 228.5C892.223 197 884.223 179 870.223 166.5C862.723 160 851.223 155 835.723 155C820.223 155 808.223 160 799.723 167.5C786.223 179 779.223 197 779.223 228.5C779.223 260 787.223 277 801.223 290.5C808.723 297 820.223 303 835.723 303Z" fill="#F41986"/>
<path d="M1021.56 95H1102.06V362H1021.56V95ZM1021.06 0H1102.56V66.5H1021.06V0Z" fill="#F41986"/>
<path d="M1279.14 367C1221.14 367 1191.14 334.5 1191.14 280.5V159.5H1140.14V95H1191.14V31L1271.64 9.99999V95H1334.14V159.5H1271.64V264.5C1271.64 284 1278.14 296.5 1303.64 296.5C1317.14 296.5 1322.14 295 1335.64 292.5V356.5C1329.64 360 1311.64 367 1279.14 367Z" fill="#F41986"/>
<path d="M1482.93 369C1416.93 369 1365.93 335 1363.43 277H1437.93C1439.43 299.5 1460.93 308.5 1482.93 308.5C1506.43 308.5 1524.43 301 1524.43 283.5C1524.43 268 1512.93 264 1495.43 261.5L1451.93 255.5C1399.93 248 1370.93 220 1370.93 177.5C1370.93 123 1424.43 88 1484.43 88C1547.43 88 1590.43 120 1594.43 175H1519.93C1518.43 152.5 1501.93 145 1481.93 145C1461.93 145 1447.43 154 1447.43 169.5C1447.43 181 1454.43 187.5 1471.93 190L1521.93 197C1567.93 203.5 1600.43 232 1600.43 276.5C1600.43 336.5 1544.43 369 1482.93 369Z" fill="#F41986"/>
</svg>
