<svg width="884" height="135" viewBox="0 0 884 135" fill="none" xmlns="http://www.w3.org/2000/svg">
<path fill-rule="evenodd" clip-rule="evenodd" d="M63.082 29.1004H59.533C58.887 29.1004 57.919 28.9384 57.758 28.6164C56.79 25.5504 54.209 29.4223 52.918 26.6803C52.757 27.1643 52.111 27.8094 52.111 28.2934C52.111 29.1004 53.886 30.5523 51.627 30.3903C51.305 32.6493 50.175 34.2624 52.111 36.6824C51.305 39.1024 50.821 41.2004 52.273 43.2974C49.853 47.6534 52.273 51.8484 52.434 55.8814C52.757 60.0764 51.789 64.4323 53.079 61.8513C53.241 62.3353 52.434 63.3034 52.434 63.9484C52.757 66.6914 51.466 69.7563 53.563 72.3373C53.725 72.8213 53.563 74.1123 53.402 74.4353C50.982 75.8873 53.563 77.9843 52.757 79.7593C51.95 81.8563 52.434 84.4373 52.434 86.8573C52.434 88.9553 51.95 91.5363 52.918 93.1503C53.725 94.7633 52.273 94.9243 52.434 95.7313C52.595 98.3123 52.595 100.894 52.434 103.475C52.273 105.572 53.563 107.67 52.434 109.767C52.273 110.09 52.757 110.735 52.918 111.219C53.725 113.316 53.563 115.575 53.079 117.834C52.111 120.415 52.111 122.996 53.079 125.578C53.725 127.836 54.209 130.095 50.982 131.063C50.659 131.063 50.659 132.192 50.337 132.676C49.53 133.483 48.885 134.935 47.594 133.161C47.594 132.999 46.949 132.999 46.787 133.161C44.851 134.451 43.238 133.483 41.625 133.161C41.302 132.999 40.818 132.515 40.495 132.031C39.366 134.129 38.398 131.547 37.107 132.031C36.462 132.192 35.655 132.192 35.171 132.192L30.17 132.031C29.847 131.708 29.525 131.224 29.525 130.902C30.17 125.255 28.395 119.77 28.395 114.284C28.556 110.735 28.556 107.347 28.395 103.798C28.234 100.248 29.041 96.6993 27.427 93.3113C26.943 92.3433 27.104 90.8913 28.234 89.7624C28.556 89.4394 27.588 87.9873 27.427 87.0193C26.782 83.3083 28.556 79.1133 26.459 75.4033C28.556 72.6603 27.588 69.4333 27.104 66.6913C26.782 64.4323 26.298 62.1733 26.459 59.9153C26.62 63.7873 26.298 61.3673 27.104 58.7853C28.072 56.6883 27.266 53.7844 26.782 51.2034C26.298 48.1374 26.136 45.5564 26.782 42.4914C27.266 41.5234 27.588 39.9093 27.266 39.2643C26.298 36.5213 26.136 34.2623 28.718 31.5203C29.363 29.9063 26.943 27.8094 25.33 28.2934C24.846 28.4544 23.716 29.1004 23.716 29.1004C22.426 26.1964 20.328 29.9063 18.876 28.1323C16.134 29.7453 13.391 29.9063 10.648 28.1323C10.164 27.9703 9.68 28.6164 9.035 28.6164C8.228 28.7774 7.09899 29.1004 6.61499 28.6164C5.64699 27.8094 5.16299 28.2934 4.35599 28.7774C2.09799 30.0684 0.807007 28.6163 0.807007 25.3893C0.807007 24.7443 1.12999 23.9374 1.29099 23.2924C1.45199 22.3244 0.967998 20.5493 0.322998 19.2583C0.322998 19.0973 0.162 19.0973 0 18.9363C1.13 17.6453 1.291 16.1934 0 15.0644C1.775 12.9664 1.452 9.74034 2.259 7.32034C2.743 6.02934 2.904 2.96432 4.84 5.70632C4.84 5.70632 5.486 5.06129 5.97 4.90029C8.39 4.25429 10.326 4.57731 13.068 5.54531C14.198 5.86831 15.327 5.70631 16.618 5.54531C17.424 5.22231 18.392 4.4163 19.038 4.7383C22.103 6.5133 25.007 5.70632 28.072 6.02932C29.525 6.19032 30.977 7.6423 31.945 4.7383C32.913 6.5133 34.365 5.70632 35.817 6.02932C36.139 6.02932 36.301 6.67434 36.301 6.67434C38.075 5.54534 39.689 6.02932 41.463 6.02932C43.561 5.86832 45.658 6.35231 47.594 5.86831C49.207 5.54531 50.659 7.15833 52.434 6.19033C54.37 5.06133 56.629 6.51329 58.565 4.90029C59.049 4.41629 60.339 5.70632 61.146 6.35232C61.953 7.15832 62.437 7.64234 63.082 6.67434L64.534 4.90029C64.695 4.73829 64.857 4.7383 65.018 4.7383H65.341C65.502 4.7383 66.147 4.5773 66.309 4.7383C66.954 5.8683 68.083 4.7383 68.567 5.0613C69.051 6.6743 71.471 6.19031 73.569 5.54531C74.86 4.90031 76.15 5.86833 76.473 6.51333C77.118 9.57833 78.732 12.6444 77.602 16.1934C76.957 18.2904 76.796 20.3884 76.634 22.3244C76.473 23.6144 75.989 23.7764 75.344 24.2604C72.439 28.2934 68.567 28.1324 66.309 29.1004C65.341 29.4224 64.211 29.1004 63.082 29.1004ZM148.912 96.8604C149.719 91.6984 146.169 88.7943 142.459 85.8893C142.136 85.5673 141.329 85.4053 141.329 85.2443C141.491 81.3723 138.425 80.8883 135.844 79.9203C133.908 79.1133 132.295 77.8234 130.359 77.1774C129.552 76.8554 128.584 75.2414 127.293 77.0164C127.132 77.1774 126.487 74.9193 124.712 75.4033C123.744 75.5643 122.453 75.2413 121.808 74.5963C120.517 73.4673 119.388 73.9513 118.097 73.7893C117.774 73.7893 117.452 73.6283 117.29 73.4673C111.966 69.1113 106.158 65.5613 101.802 60.2373C99.866 57.8173 98.092 55.2363 96.478 52.4933C96.156 52.0093 97.608 50.7194 95.51 50.3964C94.865 50.3964 94.542 48.1373 93.897 46.8473C95.994 45.8793 93.736 44.9114 93.897 43.9434C94.058 42.6524 93.897 41.3613 93.897 40.0703V30.2294C93.897 25.7124 95.349 21.8403 98.253 18.1293C100.673 15.2253 102.286 11.6764 105.19 9.09438C107.449 6.99738 110.192 5.86829 112.773 4.57729C113.58 4.09329 114.386 4.0934 115.193 3.6094C115.838 3.2864 116.645 2.31837 116.806 2.48037C118.258 3.60937 120.033 1.83437 120.84 2.48037C122.292 3.60937 123.099 3.60938 124.389 2.31838C125.68 0.705383 127.132 -1.23066 129.713 1.02834C130.197 1.67334 131.811 1.18935 132.94 1.18935C133.585 1.18935 134.715 0.866365 135.037 1.35037C137.457 3.93237 141.168 3.4483 144.072 4.7383C146.653 6.0293 148.912 7.96538 151.332 9.74038C154.72 12.1604 157.624 15.2254 161.173 17.4844C162.787 18.6134 163.916 20.7104 165.045 22.4854C165.852 23.6144 165.691 24.9053 164.561 25.7123C162.625 27.3253 160.689 28.9383 158.753 30.3903C156.172 32.3263 153.591 34.1014 151.171 35.8764C150.041 36.6824 149.557 36.8444 148.912 35.2304C146.653 30.3904 142.459 27.6483 138.264 24.9053C136.973 24.0983 134.392 25.7124 134.553 22.8084C133.263 22.4854 131.972 22.4854 130.681 22.0014C129.229 21.5174 127.777 20.8723 126.487 20.0653C125.357 19.4203 124.067 22.0013 123.099 19.9043C122.615 20.3883 121.969 20.8724 121.485 21.5174C121.163 22.0014 121.163 22.9694 120.678 23.1304C116.968 25.3894 116.161 27.0023 114.548 30.3903C113.58 32.3263 116.161 33.2943 114.87 34.5854C116.322 37.3284 116 40.3934 116.806 43.1364C117.613 45.7174 119.549 46.6853 121.001 48.4604C124.228 48.2994 125.357 51.0413 127.455 52.6553C129.713 54.4293 132.779 54.9134 135.36 56.0434C139.071 57.6564 142.943 58.1403 145.847 61.3673C146.169 61.6893 147.137 61.3673 147.621 61.2053C148.105 61.2053 148.589 61.0443 148.912 61.2053C152.784 64.7553 157.785 66.8524 161.335 71.2084C161.98 72.0154 160.044 74.2733 162.787 73.7893C163.271 73.7893 163.916 74.4353 164.239 74.9193C166.175 77.1773 167.788 79.4364 168.756 82.3404C169.24 84.1154 170.854 85.7283 168.756 87.6643C168.434 87.9873 169.724 89.7624 169.724 90.8914C169.886 92.6664 170.208 94.6024 169.724 96.3764C169.24 97.9904 171.66 99.4423 169.886 101.055C169.724 101.216 170.047 102.023 170.37 102.346C171.176 103.475 171.176 103.959 169.724 104.766C168.434 105.25 168.111 106.54 168.434 108.476C169.24 112.187 167.466 115.575 165.207 118.64C163.755 120.254 160.689 120.254 160.528 123.158C157.785 123.48 156.979 126.546 154.72 127.675L148.751 130.579C147.783 131.063 146.815 131.386 146.169 132.192C145.201 133.322 143.911 132.999 142.781 133.161C141.329 133.483 140.523 130.74 139.071 132.676C137.619 134.29 136.651 131.708 135.844 132.192C132.779 134.129 130.52 131.386 127.777 130.902C124.873 130.579 121.808 130.579 119.065 129.772C116.806 129.127 114.87 127.352 112.773 126.223C109.224 123.964 106.481 120.738 102.932 118.479C101.802 117.672 100.996 116.22 99.221 116.543C99.06 116.704 98.576 116.059 98.414 115.575C96.801 112.026 94.865 109.767 91.638 107.831C91.154 107.508 90.67 106.379 90.67 106.379C92.122 105.25 91.638 102.668 94.381 102.184C97.93 101.539 100.673 98.1514 104.545 97.8284C105.029 97.6674 105.352 97.0224 105.674 96.6994C106.158 96.0544 106.481 95.5704 107.288 96.5384C110.837 100.248 114.709 103.636 119.226 106.218C119.71 106.54 119.872 107.347 120.356 107.992C120.678 108.476 121.001 109.444 121.485 109.606C122.776 110.09 125.196 109.767 125.357 110.412C126.003 112.348 127.132 112.348 128.584 112.348C130.52 112.187 132.295 113.639 134.231 112.348C139.716 112.994 142.781 109.606 145.685 105.734C145.847 105.411 146.008 104.766 146.331 104.443C148.912 101.216 148.912 101.216 148.912 96.8604ZM259.103 73.9513C259.103 71.5313 257.651 68.7883 259.587 66.3683C259.91 66.2073 259.749 65.0774 259.587 64.4324C259.103 62.8194 258.135 61.3673 259.587 59.9153C259.749 59.7533 259.749 58.6243 259.587 58.4633C257.813 57.0113 258.781 54.9133 258.619 53.1393C258.619 51.3643 259.426 49.1053 259.103 47.4923C258.458 45.5563 258.781 43.9434 259.426 42.3294C259.91 41.5234 258.619 39.7483 259.103 39.2643C260.233 37.8123 258.781 37.1664 258.781 36.3604C258.942 32.3264 257.651 27.9703 259.265 24.0983C259.426 23.6143 259.749 22.9694 259.587 22.6464C258.297 20.0654 258.781 17.1614 258.619 14.7414C258.458 12.8054 258.619 11.5144 259.265 9.41738C259.749 7.64238 259.749 5.3843 262.492 5.0613C262.976 2.9643 263.621 2.9643 267.009 4.2543C268.461 5.2223 270.074 5.7063 272.01 5.3843C273.301 5.2223 274.592 5.3843 275.721 5.3843C280.561 5.5453 282.82 8.61034 281.368 13.7733C279.432 14.7413 282.174 16.0324 281.206 17.0004C279.754 18.2904 281.368 19.0973 281.852 19.9043C282.82 21.6783 283.142 23.6143 282.658 25.2283C282.336 26.8413 281.69 27.4864 283.142 28.4544C284.272 29.1004 282.981 29.4224 282.82 29.7454C281.368 33.1334 281.368 36.5213 282.336 40.2323C282.82 41.3613 282.82 42.8134 282.82 44.1044C282.82 44.4274 282.336 45.2333 282.013 45.3953C280.561 45.5563 280.238 45.8793 281.529 46.6853C282.658 47.6533 283.465 49.1054 282.497 49.9124C280.561 51.6874 283.142 53.1394 281.852 54.9134C281.045 55.8814 280.722 57.9793 281.69 59.5923C282.013 60.3993 282.013 61.8514 281.529 62.6574C280.884 63.4644 280.561 63.9483 281.529 64.5933C283.142 65.7233 283.142 67.9813 282.658 68.6273C281.69 69.5953 282.658 70.5634 282.336 71.5314C282.013 72.4994 281.852 73.6283 281.69 74.7573C281.69 76.0483 281.852 77.5003 281.69 78.4683C281.529 80.0813 282.497 81.8564 280.884 83.4694C280.561 83.6314 281.045 84.5993 281.206 85.2443C281.368 86.3733 282.013 87.8263 281.529 88.6323C280.884 89.9233 280.238 90.7303 281.69 92.0203C282.174 92.6663 281.529 94.4403 281.368 95.4083C281.206 96.0544 280.561 96.5384 280.722 96.8604C281.045 102.668 277.657 106.54 275.237 111.38C273.785 114.446 271.526 117.188 269.106 119.608C268.461 120.415 269.752 122.835 267.977 122.674C266.041 122.674 265.234 123.803 263.944 124.771C263.621 125.255 262.653 125.255 262.008 125.094C259.103 124.287 257.651 125.9 256.038 127.836C255.231 128.804 254.425 129.611 253.457 130.418C252.166 131.224 250.714 132.354 249.585 133.322C248.133 131.063 245.551 133.161 244.099 131.87C242.97 131.063 242.486 131.224 241.518 132.031C240.066 132.999 238.614 133.806 236.839 134.451C236.194 134.613 235.065 134.129 234.581 133.806C233.613 132.515 232.483 132.192 231.031 132.192C227.321 132.515 223.61 130.579 219.738 131.063C219.254 131.224 218.609 130.74 218.125 130.418C217.157 129.934 216.35 129.288 215.543 129.288C212.478 129.45 210.38 128.32 208.767 125.9C207.638 124.932 206.992 124.771 205.702 125.739C204.411 126.868 203.443 125.255 203.12 124.287C202.636 123.642 203.12 122.674 202.959 121.867C202.959 121.222 202.152 120.738 202.152 120.738C199.571 122.996 198.442 118.64 196.183 119.608C193.924 117.511 192.15 114.607 191.827 111.542C191.827 109.767 190.859 109.444 189.73 108.638C188.6 107.831 187.471 106.54 187.632 104.604C187.632 102.991 186.826 101.378 186.18 99.9263C186.019 99.1193 185.696 98.3124 185.696 97.5064C185.535 96.2154 186.342 94.6023 185.696 92.9883C185.212 91.5363 185.696 89.6003 185.696 87.9873C185.535 87.0193 185.696 86.0513 185.212 85.5673C184.083 83.9533 184.244 82.6633 185.535 81.2113C186.18 80.7273 186.342 79.9203 186.664 79.2753C186.019 78.9523 184.89 78.7913 184.89 78.4683C184.567 76.3713 183.76 74.1123 185.535 72.1763C186.18 71.5313 186.826 71.2084 185.696 69.7564C184.728 68.4654 184.244 66.5294 184.567 64.7554C184.728 62.8194 184.083 60.7213 185.535 59.2693C184.083 57.8173 184.083 56.0433 185.535 54.4293C184.244 53.1393 184.728 51.6874 184.406 49.9124C184.244 48.9444 186.503 47.8153 184.567 46.6853C184.244 46.6853 184.567 45.0723 185.051 44.2653C185.858 43.1363 186.019 42.1683 185.051 41.0393C185.051 40.8773 184.728 40.8773 184.728 40.7163C184.567 38.7803 186.664 37.1664 185.374 35.2304C184.244 33.2944 184.083 31.6814 185.535 29.9064C185.858 29.5844 185.858 28.9384 185.535 28.4544C183.599 24.0984 185.051 19.7424 184.567 15.3864C184.083 12.8054 185.212 10.3854 186.664 8.28835C187.632 6.83635 188.6 5.70634 190.536 6.99734C191.827 7.48134 192.795 5.70634 194.086 6.67434C195.215 7.15834 196.183 8.12634 197.474 6.67434C197.635 6.51334 198.28 6.51334 198.28 6.67434C199.894 9.09434 202.152 6.67435 204.25 7.15835C206.67 8.12635 208.122 7.96539 208.122 10.2244C208.283 11.9984 208.606 13.7734 208.122 15.2254C207.638 16.3544 210.219 17.1613 208.283 18.2903C209.735 21.1943 209.412 23.9373 208.606 26.8413C208.444 27.0023 208.606 27.3253 208.606 27.3253C211.026 27.3253 209.735 29.1004 210.058 30.0684C210.703 32.0044 211.671 33.6174 209.412 35.0694C209.412 35.0694 209.735 35.5534 209.735 36.0374C210.058 38.4574 210.864 40.8774 209.251 43.4594C209.09 43.7814 209.251 44.7493 209.412 45.2333C211.026 48.2993 208.928 51.5253 209.251 54.5913C209.574 57.6563 210.864 60.3994 209.251 63.1414C208.767 64.7554 209.896 66.8523 208.283 67.9813C208.767 68.9493 209.574 69.7564 209.896 71.2084C210.058 72.0154 208.122 72.0153 208.767 73.7893C209.09 75.4033 208.928 77.6613 208.928 79.2753C208.928 82.3403 209.574 85.2443 211.026 87.9873C211.51 88.6323 213.446 90.4074 211.348 91.6984C211.671 92.3434 212.316 93.3113 212.8 93.4723C215.221 93.6343 213.446 94.4403 213.284 95.0863C213.123 95.5703 213.284 96.3764 213.607 96.6994C214.253 97.3444 215.382 97.3444 216.027 98.1514C217.318 99.6034 218.286 101.862 219.738 102.668C221.513 103.314 222.803 104.282 224.417 105.411C225.223 106.056 226.675 106.54 227.966 106.863C229.902 107.508 232.161 107.831 234.419 108.315C234.903 108.315 235.549 108.476 236.033 108.315C238.937 105.895 243.131 105.895 246.519 103.959C247.649 102.346 250.714 100.248 253.457 98.4744C255.554 96.8604 256.038 93.7954 256.683 91.3754C257.651 85.7284 258.135 79.7593 259.103 73.9513ZM403.982 27.0023C404.143 27.8093 402.691 29.7453 403.821 31.6813C401.723 32.8103 405.434 35.3924 402.691 36.3604C404.305 39.1024 403.821 42.1683 403.821 45.2333C403.659 46.5243 403.982 47.9764 403.014 49.2674C402.53 50.0734 402.853 52.0093 403.337 53.3003C404.305 55.3973 403.175 57.8173 404.789 59.9153C405.111 60.3993 403.337 62.1734 403.821 63.7874C401.885 64.2714 404.143 65.8843 403.014 67.0133C402.369 67.6593 402.207 70.4014 402.853 71.0474C404.143 72.1764 403.175 73.4673 403.337 74.4353C403.982 79.1133 404.466 83.9533 403.014 88.7943C402.691 89.9233 403.014 91.3753 403.175 92.8273C403.337 94.4403 403.821 96.3764 403.498 97.9904C402.691 102.023 402.691 102.023 403.659 106.54C403.821 107.186 404.143 108.154 403.659 108.638C402.046 110.896 402.691 113.478 402.691 115.898C402.853 118.318 402.207 120.738 403.659 123.158C404.143 124.126 403.337 126.384 402.691 127.514C401.885 128.643 402.046 131.063 399.465 130.256C399.142 130.095 398.496 131.063 398.012 131.386C396.238 132.676 396.238 132.676 395.27 130.256C395.108 129.934 395.108 129.611 394.947 129.288C394.463 128.804 394.14 127.998 393.495 127.836C390.268 127.03 389.784 122.996 386.88 122.028C384.622 121.222 383.331 118.64 380.75 118.802C379.943 118.802 378.975 117.511 380.427 116.543C379.943 115.898 379.298 115.091 378.652 114.607C376.716 113.155 374.458 111.864 372.522 110.251C371.876 109.606 371.554 108.476 370.908 107.67C370.263 107.024 369.295 106.056 368.488 106.056C366.714 106.056 365.423 105.895 365.1 103.798C362.519 103.959 363.971 101.862 363.648 100.732C363.326 100.248 362.842 99.4423 362.358 99.4423C360.583 99.4423 359.938 98.4744 359.131 96.8604C358.808 96.0544 358.002 92.9883 355.743 95.0863C355.098 93.1503 352.516 93.3114 351.709 91.3754C351.225 89.9234 348.16 89.9233 348.644 87.1803C348.644 86.8573 348.16 86.2123 347.837 85.8893C346.869 85.4053 345.417 85.4054 344.772 84.5994C344.127 83.9534 344.288 82.5014 342.836 82.9854C340.739 83.6314 342.029 80.4043 340.093 80.5653C338.803 80.7273 337.512 79.9203 336.383 79.4363C336.221 79.2753 336.705 77.6614 336.544 77.5004C334.447 76.6934 333.64 74.4353 332.188 72.8213C330.736 71.3693 329.445 69.7563 328.155 68.1433C326.864 66.3683 318.959 60.5603 317.345 58.7853C316.055 57.1723 317.345 62.8193 316.7 64.9163C316.216 66.8523 315.409 68.6274 316.539 70.4014C317.507 72.0154 316.055 73.4673 316.539 75.0803C317.023 77.0163 316.861 79.1133 316.861 81.2113C316.861 82.9853 317.023 84.7603 316.377 86.8573C315.732 88.9553 315.732 91.6983 317.184 94.1183C317.829 95.5703 318.152 97.9903 317.507 99.4423C316.216 102.991 317.345 106.54 317.345 110.09C317.345 111.703 318.797 113.478 318.313 114.93C317.507 118.156 317.991 121.383 317.829 124.448C317.668 126.223 316.861 127.998 316.055 129.772C315.893 130.095 314.925 130.418 314.764 130.256C313.635 128.966 312.989 130.256 312.021 130.418C309.601 130.902 307.665 130.095 303.954 128.159C303.793 128.159 303.632 127.998 303.47 127.998C303.148 127.998 302.664 127.836 302.341 127.998C301.373 129.288 300.082 128.32 298.792 128.643C295.888 129.611 295.888 129.288 295.726 126.546C295.565 125.255 297.662 124.61 295.888 122.996C294.92 122.028 296.533 120.415 296.694 119.124C296.694 117.672 295.888 116.22 295.888 114.607C295.726 112.187 295.888 109.606 295.888 107.024C295.726 104.12 295.242 101.216 295.404 98.3123C295.404 96.3763 293.79 94.4404 295.565 92.1824C296.533 90.7304 295.888 87.9873 295.726 85.7283C295.565 83.7923 296.049 82.0173 294.92 80.0813C294.274 78.7913 295.565 76.3713 295.726 74.5963C295.888 72.9833 293.79 71.6924 295.242 69.7564C295.726 69.1114 294.597 67.3363 295.081 66.8523C296.372 65.4003 295.565 64.5934 294.758 63.6254C294.597 63.4644 294.597 63.3034 294.758 63.1414C296.049 59.5924 295.888 56.0433 295.081 52.4933C294.92 52.1713 294.92 51.2034 294.92 50.5574C294.92 48.2994 294.597 46.2014 295.565 43.7814C296.21 41.5234 296.533 38.1344 295.081 35.3924C294.758 34.9084 295.081 34.2623 295.242 33.6173C295.404 32.8103 295.888 31.6813 295.726 31.1973C294.436 29.1003 296.533 26.8413 295.565 25.0663C294.758 23.9373 294.597 23.4534 295.404 22.3244C295.888 21.3564 295.726 19.9043 295.888 18.6133C295.888 17.3223 295.888 16.1934 294.758 15.2254C295.888 14.5804 295.726 13.4503 295.888 12.3213C295.888 10.2243 296.049 8.12632 296.21 6.02932C297.824 7.32032 299.598 8.44939 301.05 9.90139C302.18 11.0304 303.148 12.4824 304.277 13.9344C305.245 15.2254 307.181 15.5483 307.827 17.8063C308.633 20.0653 313.473 23.1303 317.184 24.7443L320.895 29.2614C321.54 31.1974 322.024 32.3263 324.444 32.4883C325.896 32.6493 326.541 34.4244 327.671 35.5534C329.607 37.3284 331.865 38.7803 332.995 41.5233C333.64 43.1363 335.899 42.1684 337.189 43.7814C337.996 45.0724 340.255 45.0723 340.416 47.3313C340.577 47.8153 341.707 48.2993 342.513 48.7833C343.159 49.4283 344.288 50.0734 344.772 50.8804C346.869 54.4294 350.419 56.3653 353 59.2693C353.807 60.2373 354.614 61.0443 355.904 61.0443C357.356 60.8833 358.324 62.0124 358.324 63.4644C358.163 65.4004 359.131 66.3683 361.067 66.5293C362.68 66.6913 363.164 69.4333 365.262 68.7884C365.423 69.2724 365.423 69.7564 365.584 70.2404C365.907 70.8854 366.391 71.8533 366.552 71.8533C368.65 71.5313 369.618 73.3053 370.747 74.5963C373.328 77.1773 376.071 79.9203 378.652 82.6634C379.298 83.3083 380.104 83.7924 380.911 83.9534C383.17 84.5994 383.976 83.7923 383.654 81.2113C383.654 80.7273 383.331 80.2433 383.331 79.7593C383.17 78.1453 380.266 77.0163 382.363 74.9193C381.072 72.9833 381.395 70.8854 381.556 68.7884C381.718 66.8524 381.395 64.9164 382.04 62.9804C382.524 61.8514 381.556 60.0763 382.524 58.6243C382.686 58.4633 382.202 57.8173 382.04 57.8173C379.459 57.8173 381.395 56.5274 381.556 55.7204C381.879 54.5914 383.331 53.3003 381.234 52.3323C380.266 51.8483 381.072 51.3644 381.395 50.7194C382.04 49.1054 382.363 47.1693 383.17 45.5563C383.976 44.2653 383.492 43.6204 382.686 42.9754C381.556 42.0074 381.395 41.3613 382.686 40.5543C383.331 40.0703 383.976 39.2643 384.622 38.6183C384.783 38.2963 384.783 37.4893 384.622 37.1663C383.976 36.1983 382.847 35.5533 382.686 34.5854C382.524 33.6174 382.847 32.1653 383.331 31.1973C383.815 30.2293 382.686 29.9064 383.17 28.6164C384.299 26.6804 384.299 23.9374 382.686 21.6784C381.879 20.7104 381.395 19.4203 382.524 18.1293C382.847 17.8063 382.847 16.6774 382.524 16.5164C380.427 15.0644 382.202 13.7733 382.524 12.4823C384.138 7.15832 385.912 5.54534 390.43 7.32034C392.366 7.96534 393.979 7.96537 395.431 8.12637C396.56 8.28837 397.69 8.12635 398.658 8.28835C400.594 8.44935 401.723 10.0623 401.723 11.9983C401.885 15.3863 402.691 18.4524 403.498 21.6784C403.821 23.1304 403.821 24.5823 403.982 27.0023ZM420.277 44.5883C422.213 42.6523 421.083 40.2323 421.245 37.9733C421.406 35.7143 421.406 33.4563 421.245 31.3583C421.245 25.7123 423.019 20.3884 422.535 14.7414C422.535 13.1284 423.665 10.7083 425.117 10.0623C426.891 9.09428 428.182 6.83635 430.925 7.48135C433.022 7.80435 435.119 6.83633 437.217 6.51333C439.314 6.19033 441.734 7.48131 443.67 5.54531C443.831 5.38431 444.477 5.2223 444.638 5.3843C448.349 7.6423 452.382 6.02933 456.254 6.51333C457.706 6.67433 459.32 5.86835 460.61 7.48135C460.933 7.80435 462.062 7.32036 462.546 7.64236C464.482 8.77236 465.45 5.38435 467.87 7.15835C468.838 8.12635 471.097 7.64235 472.71 7.48135C475.292 7.48135 477.712 7.64237 479.97 9.25637C481.745 10.5464 484.326 8.77229 486.101 10.8693C488.844 10.0623 490.296 12.1603 491.587 13.9344C493.039 15.3863 494.007 15.8703 495.297 13.9344C495.781 13.4503 496.104 12.9663 496.749 13.7733C499.331 16.1933 502.557 17.4843 504.493 20.5493C505.623 22.1623 506.268 23.6143 506.268 25.3893C506.268 25.5503 506.752 25.8733 506.913 25.8733C508.043 25.3893 508.043 25.7123 508.527 26.0343C509.979 26.8413 508.204 30.0684 511.108 29.7454C511.915 31.3584 511.269 32.4883 510.301 33.6173C510.14 33.7783 509.817 35.0694 511.108 34.7464C513.689 34.2624 514.335 34.5854 514.496 36.6824C514.496 38.4574 514.819 39.5863 516.432 40.0703C517.077 40.2323 517.561 41.5234 517.561 42.3294C517.239 44.5884 518.207 46.3633 519.013 48.2993C519.336 48.4603 519.659 48.7834 519.659 49.1054C519.336 53.7844 520.949 57.9794 521.917 62.4964V63.6254C522.079 66.3684 520.304 68.9493 520.627 71.8533C521.111 74.7573 521.111 77.8233 520.627 80.7273C520.304 82.8243 519.497 84.5993 520.627 87.0193C521.595 89.4393 520.304 92.1823 517.723 93.7953C516.755 94.4403 515.787 95.4084 517.239 96.8604C518.207 97.6674 517.239 98.3123 516.916 99.1193C515.948 101.862 513.044 103.475 513.367 106.863C513.367 107.186 512.883 107.67 512.721 107.508C510.301 106.702 510.301 109.444 509.333 110.412C507.881 111.542 506.752 112.994 505.623 114.284C501.589 117.995 497.556 121.706 493.684 125.578C492.877 126.546 491.909 126.223 490.941 126.223C489.005 126.223 487.069 126.062 485.94 128.159C485.456 128.966 484.004 129.772 483.52 129.45C481.1 128.32 478.841 130.74 477.066 129.45C473.517 127.191 470.613 129.772 467.548 130.095C466.902 130.095 466.257 130.579 465.612 130.579C461.094 129.611 461.094 129.611 456.577 130.579C455.77 130.579 455.125 129.934 454.48 129.611C452.382 129.127 450.285 130.418 448.51 128.966C448.349 128.804 447.704 128.804 447.704 128.966C446.413 131.224 444.799 130.418 443.025 129.611C442.379 129.288 441.089 129.45 440.605 129.934C439.314 131.063 438.83 130.74 437.539 129.772C437.055 129.45 435.765 130.256 434.797 130.256C433.829 130.418 432.861 130.579 432.054 130.256C431.247 129.772 430.441 129.127 429.795 130.095C428.343 131.87 427.537 129.288 426.407 129.611C425.278 129.934 424.149 130.579 423.181 130.579C422.697 130.74 422.051 129.772 421.567 129.288C423.503 127.998 420.277 126.707 421.567 125.416C422.697 124.61 422.697 123.803 421.729 122.674C421.245 122.19 421.083 120.738 421.406 120.254C423.342 118.156 422.374 116.704 420.761 115.252C420.599 115.091 420.761 114.284 420.922 114.123C423.342 113.155 421.245 111.542 421.245 110.251C421.245 108.96 420.277 107.67 421.245 106.218C419.631 104.927 421.567 103.636 421.406 102.184C421.245 100.732 421.083 99.1194 421.89 97.5064C423.019 95.4084 423.019 93.1504 420.922 91.2144C419.793 89.9234 420.277 88.3103 420.761 86.6963C421.729 83.6313 423.665 80.4044 421.406 76.8554C421.083 76.5324 421.567 75.7253 421.245 75.4033C420.277 74.1123 423.181 73.6283 421.729 72.1763C420.922 71.3693 420.922 69.9174 420.438 68.7884C420.438 68.4654 420.277 67.8203 420.438 67.3363C422.213 64.4323 421.245 61.2053 420.922 58.1403C420.599 56.6883 421.567 55.0753 422.051 53.6233C422.213 52.9773 422.213 51.8483 422.051 51.8483C418.663 50.0733 421.89 46.6853 420.277 44.5883ZM444.154 103.475H444.315C444.315 104.766 444.315 106.056 444.477 107.347C444.638 108.96 445.768 110.412 447.058 109.767C448.833 108.96 450.446 109.928 452.06 109.767C453.512 109.767 455.286 110.251 456.577 109.444C458.029 108.476 459.642 109.444 460.449 108.638C461.74 107.024 462.708 108.799 463.837 108.799C467.225 108.799 470.613 108.799 473.84 107.67C474.808 107.347 476.26 107.992 477.228 106.863C477.55 106.54 479.002 107.67 479.648 107.347C480.777 106.702 481.261 105.411 482.229 104.604C482.874 104.12 483.681 103.798 484.326 103.475C487.069 102.668 488.682 100.41 490.296 98.3123C492.071 95.8923 493.2 92.8274 494.491 89.9234C495.459 88.3104 495.781 86.0513 496.911 84.9213C499.008 83.3083 495.943 81.5333 497.717 80.0813C498.685 79.2753 499.008 77.6614 498.847 76.2094C498.847 74.2734 498.363 72.3374 499.815 70.5634C500.137 69.9174 500.137 68.4653 499.815 67.8203C498.685 66.5293 499.815 65.0774 499.008 63.6254C498.04 62.1734 499.169 60.3993 497.879 58.6243C497.072 57.3333 498.04 54.9133 497.556 53.1393C497.233 51.5253 497.233 49.1054 495.781 48.4604C493.523 47.3313 493.523 45.8794 493.523 44.1044C493.523 42.9754 493.845 41.6843 491.909 41.5233C490.941 41.3613 489.812 39.9093 489.489 38.7803C489.005 37.3283 487.876 37.0054 487.069 36.0374C484.004 33.2944 480.132 32.1654 476.582 30.5524C474.485 29.7454 472.872 27.4864 470.452 29.5844C470.129 29.7454 469.161 29.2614 468.516 29.1004C468.032 28.9384 466.902 28.4544 466.902 28.6164C465.45 30.5524 464.321 29.2614 463.514 28.4544C461.901 26.6804 459.642 29.9063 458.513 27.3253C458.352 27.3253 457.545 27.3254 457.384 27.4864C456.254 29.4224 454.157 27.6484 452.705 28.9384C450.93 30.7134 449.478 28.1324 447.704 28.2934C446.252 28.4544 445.606 27.1644 445.284 29.7454C444.961 31.3584 443.993 32.4883 445.768 33.7783C447.058 34.5853 445.445 35.0694 445.606 35.7144C445.768 37.6504 442.702 39.9093 445.929 41.6843C445.929 41.8453 445.929 42.4914 445.768 42.8134C445.768 43.7814 445.606 44.9113 445.122 45.7173C443.831 47.9763 443.993 49.7513 445.768 51.5253C446.09 51.8483 446.413 52.9773 446.252 53.3003C444.961 55.0753 445.284 56.6883 446.09 58.6243C446.897 59.9153 446.574 61.5284 445.768 63.1414C445.122 64.1094 442.863 65.8843 445.445 67.4973C443.509 68.9493 446.574 70.8853 445.284 72.0153C443.993 72.9833 445.929 74.2733 444.477 75.4033C443.831 75.7253 444.315 78.1453 444.315 79.5973C444.477 82.3403 443.993 85.0833 445.445 87.9873C446.413 90.0843 444.154 92.1823 444.315 94.6023C444.477 96.0543 444.961 97.3443 444.961 98.7963C444.799 100.41 444.477 102.023 444.154 103.475ZM531.92 69.5954C531.759 68.1434 531.275 66.3683 532.888 65.2393C531.436 64.1093 531.92 62.4963 531.92 61.0443C531.92 59.5923 532.243 58.3014 532.404 56.8494C532.565 54.7524 534.985 49.2673 535.792 46.5243C536.599 43.7813 538.696 41.8453 539.019 38.9413C539.664 35.8763 541.6 33.6173 543.375 31.1973C544.182 30.2293 544.827 28.9383 545.634 27.8093C546.602 26.6803 546.44 24.9053 548.538 24.5823C551.119 24.0983 551.119 20.5493 553.7 19.5813C555.798 18.7743 557.734 17.0004 559.67 15.5484C561.606 14.2574 563.703 12.8053 565.478 11.0303C566.768 9.9013 567.091 10.2243 567.091 11.8373C567.414 11.8373 568.059 11.8373 568.22 11.6763C570.156 8.12629 574.835 8.1263 577.094 5.0613C577.416 4.5773 578.384 4.57728 579.03 4.41628C580.804 4.25428 582.74 5.22239 584.031 3.44839C585.483 5.54539 586.774 2.31839 588.065 3.44839C589.678 1.51239 591.453 4.41639 593.066 3.12539C594.841 1.83439 596.615 1.6734 598.39 3.2864C598.551 3.4484 599.519 3.28638 599.842 2.96438C601.133 1.99638 602.262 2.15738 603.714 2.96438C605.65 4.25438 608.554 2.4803 610.651 4.2543C611.942 2.3183 613.071 3.93228 614.201 4.41628C616.943 5.70628 620.815 4.90036 622.267 8.77236C622.429 8.93336 623.235 9.09438 623.881 9.09438C625.171 8.93338 626.301 9.09439 627.107 10.2244C628.237 11.9984 629.85 12.6443 631.786 12.3213C632.109 12.3213 632.754 12.6443 632.754 12.6443C632.109 15.7093 635.658 13.7734 636.626 15.7094C637.917 18.4524 640.337 20.8724 643.402 22.3244C644.854 23.1304 645.822 24.7443 646.629 26.5183C647.113 27.6483 647.436 28.1324 646.629 29.2614C646.306 29.9064 647.274 32.0043 647.92 32.1653C652.598 32.4883 651.792 37.3283 653.889 39.5863C654.696 44.9113 657.6 49.7514 657.277 55.3974C657.277 56.2044 658.084 56.8494 658.245 57.6564C658.406 58.3014 658.406 59.5923 658.084 59.7533C654.212 61.2053 656.309 63.6253 657.277 65.7233C658.084 67.4973 659.052 69.1114 657.277 70.8854C659.052 74.1124 655.664 76.2093 655.502 79.2753C655.341 80.2433 655.986 81.3723 655.664 82.1793C655.018 83.3083 653.728 83.9534 653.082 85.0834C652.276 86.2124 651.63 87.6643 651.792 88.7943C652.437 92.5043 650.178 94.6024 648.726 97.1834C648.242 97.8284 647.274 98.6353 647.436 99.2803C647.597 102.023 646.145 103.475 643.886 104.604C642.596 105.25 641.628 106.863 640.821 108.154C639.046 110.574 637.756 113.316 635.82 115.414C634.529 117.027 632.593 117.834 630.818 118.963C628.559 120.576 626.139 122.028 623.881 123.48C621.299 124.932 619.363 127.352 615.975 127.03C615.33 126.868 614.685 127.675 614.201 127.998C612.749 128.482 610.813 128.643 610.006 129.772C608.554 131.708 607.747 128.159 606.457 129.772C605.327 130.902 603.23 129.288 601.939 130.902C599.681 128.966 596.938 132.999 594.679 130.256C594.195 129.772 592.582 129.772 592.098 130.256C590.646 131.547 588.387 131.87 587.581 131.063C586.451 129.934 585.322 131.547 584.193 130.418C583.708 129.934 582.256 130.256 581.127 130.095C580.32 130.095 579.352 130.256 578.546 129.934C576.287 129.45 575.642 126.546 572.738 126.707C570.479 126.868 568.22 125.416 565.962 124.61C565.155 124.287 564.348 123.803 563.864 123.158C562.251 121.06 559.67 120.092 558.54 117.672C558.218 117.188 557.572 116.704 557.25 116.866C555.152 117.188 554.507 115.736 553.055 114.768C551.119 113.478 548.86 112.671 547.247 110.574C548.376 107.992 544.182 107.024 544.988 104.282C545.15 103.959 544.504 103.152 544.02 102.991C540.794 101.862 540.794 97.9903 538.535 96.0543C537.728 95.2473 537.89 93.3114 537.244 92.1824C536.76 91.0524 534.985 91.0523 534.824 89.2783C534.824 88.6323 534.179 88.1483 533.856 87.5033C535.308 86.5353 534.985 85.8894 534.017 85.0834C533.533 84.5994 533.049 83.9534 533.049 83.3084C532.565 78.7914 532.243 74.1124 531.92 69.5954ZM634.206 55.2364C635.82 53.4613 634.045 51.8483 633.722 51.5253C631.302 50.5573 630.657 48.6213 630.818 46.5243C631.141 43.9433 629.689 42.4913 627.914 41.2003C624.042 38.2963 624.042 38.2963 623.074 33.2943C622.913 32.1653 622.59 32.3263 621.783 32.9723C621.461 33.2943 620.493 33.4563 620.493 33.2943C619.041 30.8743 616.298 31.6813 614.362 30.7133C609.522 27.8093 604.037 26.3573 599.035 24.0983C597.422 23.2923 595.97 23.2923 594.518 24.0983C592.259 25.2283 589.355 24.9053 587.419 26.8413C586.129 24.4213 584.193 27.1643 583.547 26.6803C581.772 25.3893 580.643 27.0023 579.352 26.8413C578.707 26.6803 577.739 26.6803 577.255 27.1643C574.351 29.1003 571.447 31.0363 568.866 33.2943C563.058 38.7803 560.638 42.3294 557.25 49.4284C555.798 52.4934 554.184 55.5593 554.023 58.7853C553.862 62.3353 552.894 66.3684 554.83 70.0794C555.314 70.8854 554.668 72.3373 554.346 73.4673C553.862 75.0803 552.894 76.6934 555.636 76.8554C556.604 78.9524 558.379 81.0494 558.056 82.5014C557.25 85.4054 560.476 86.5354 559.67 89.6004C558.702 92.9884 562.735 93.1503 564.994 94.2793C565.639 94.6023 565.962 95.4083 566.607 95.7313L569.995 98.1514C572.899 100.248 575.964 102.507 578.707 104.766C580.32 105.895 581.45 108.154 583.708 106.218C583.87 105.895 584.677 106.379 584.838 106.54C586.29 108.315 588.226 108.315 590.162 108.638C592.582 109.122 594.679 109.606 596.938 108.476C597.099 108.315 597.583 108.638 597.745 108.96C598.067 109.283 597.583 110.412 598.874 109.767C599.681 109.444 600.971 108.799 601.294 109.122C603.23 111.219 604.682 109.283 606.295 108.799C608.715 107.992 610.167 104.927 613.394 105.572C613.878 105.734 614.523 104.766 615.007 104.443C616.137 103.636 617.427 102.991 618.395 102.023C619.686 100.571 621.783 100.248 623.235 98.9584C624.687 97.6674 625.978 95.8923 627.269 94.4403C631.464 89.2783 632.593 86.6963 634.206 79.4363C634.529 77.5003 635.336 75.7253 635.336 73.7893C637.917 72.4993 634.368 69.9174 636.304 68.4654C635.658 65.2394 637.917 61.3673 634.368 58.6243C634.045 58.3013 635.658 57.1724 634.206 56.3654C634.045 56.2044 634.206 55.3974 634.206 55.2364ZM698.901 88.3103C698.901 91.3753 699.063 94.4404 698.901 97.5064C698.901 98.9584 699.547 100.41 698.095 101.7C697.611 102.023 697.611 103.152 697.933 103.636C700.192 110.574 698.256 116.059 698.901 121.383C699.063 122.674 696.643 123.48 698.417 125.094C698.901 125.416 698.256 127.191 697.772 128.159C696.804 130.902 693.093 131.224 691.319 128.804C690.512 127.998 690.189 128.159 690.189 129.127C690.028 130.418 689.383 130.418 688.415 130.256C687.447 129.934 686.479 129.45 685.511 129.288C684.059 128.966 682.768 128.804 681.316 128.643C681.639 126.384 679.541 127.514 678.896 126.868C677.928 126.062 676.96 122.996 677.121 121.867C677.283 118.318 675.83 116.22 678.089 112.994C677.283 111.058 680.187 108.799 677.283 105.411C676.96 105.088 676.799 103.959 676.96 103.314C677.444 100.248 675.992 97.0223 677.928 93.7953C678.412 93.1503 677.121 91.3754 676.96 89.9234C676.799 88.3104 676.799 86.6963 675.992 84.9213C675.508 83.6313 676.476 81.5333 676.96 79.9203C677.605 78.4683 674.54 77.5004 676.476 75.5644C677.283 74.9194 676.799 72.9834 676.96 71.5314C676.96 69.9174 676.799 68.1433 676.96 66.5293C677.121 65.7233 677.605 65.0774 677.928 64.2714C677.283 64.1094 676.637 63.9484 676.153 63.4644C675.83 63.1414 675.992 62.4964 675.83 62.0124C675.024 59.9154 678.251 58.4634 676.476 56.0434C675.508 54.5914 675.992 52.1714 675.83 50.2354C675.83 48.9444 676.153 47.6533 675.83 46.3633C675.346 45.0723 677.283 44.2654 676.314 42.6524C675.669 41.6844 675.83 40.2323 675.83 39.1023C675.83 37.4893 676.153 36.0373 676.799 34.4243C677.444 32.8103 678.896 30.3904 676.96 28.2934C676.96 22.4854 676.314 16.5163 678.735 10.8693C678.896 10.7083 679.864 8.61038 680.025 8.61038C682.284 7.48138 684.704 6.51334 687.447 6.67434C690.835 6.83634 694.384 6.67434 697.772 6.67434C700.353 6.67434 701.321 7.48139 700.676 10.2244C699.869 13.2894 700.353 16.3543 700.031 19.4203C699.708 22.0013 699.708 24.2603 699.869 26.8413C700.192 29.2613 699.224 32.0043 698.901 34.5854C698.901 35.8764 698.579 37.1663 700.031 37.9733C698.901 38.7803 699.869 40.0703 699.869 40.2323C697.933 43.1363 699.385 46.2014 698.901 49.2674C698.901 49.7514 699.224 50.3964 699.547 50.5574C699.869 50.7194 700.676 50.5574 700.999 50.2354C703.58 47.0084 707.452 44.9113 709.227 41.0393C709.711 39.9093 711.001 39.2643 711.808 38.2963C715.519 34.2623 719.391 30.5523 722.617 26.1963C724.392 23.9373 726.974 22.6463 728.264 19.9043C729.555 17.4843 732.136 15.5483 734.395 13.6123C736.331 11.9983 738.428 10.7084 739.719 8.28835C741.01 6.02935 743.107 5.22231 745.688 5.54531C747.14 5.70631 748.592 6.1903 749.883 4.7383C750.044 4.4163 750.851 4.57728 751.335 4.41628C752.626 4.25428 753.916 6.99729 755.368 4.57729L759.886 5.54531C762.628 6.19031 763.274 7.32028 762.144 10.0623C761.822 10.7083 761.66 11.3533 761.338 11.8373C759.886 13.6123 757.304 13.7734 756.659 16.5164C756.014 18.2904 754.4 19.9043 752.787 21.3563C750.851 23.2923 749.399 25.2283 748.592 27.8093C748.27 28.7773 747.786 29.7454 746.979 30.5524C743.914 33.7784 740.687 36.8443 738.106 40.5543C737.299 41.5233 736.331 42.4914 734.718 43.1364C733.427 43.6204 731.652 44.9113 731.814 47.3313C731.814 47.9763 731.007 49.1054 730.362 49.2674C726.49 50.7194 724.876 54.1074 722.779 57.1724C721.327 59.2694 721.165 62.0124 722.94 64.1094C724.715 66.3684 726.167 68.9493 727.135 71.6923C728.426 75.0803 731.33 77.0163 733.911 79.1133C734.879 79.9203 735.847 80.2433 736.331 81.5333C736.815 82.5014 737.622 83.7924 738.428 83.9534C741.171 84.4374 740.042 88.4713 742.946 88.4713C742.139 91.5363 745.688 92.5043 745.85 94.9243C746.011 96.6993 747.947 96.5384 748.431 97.6674C748.915 98.7964 749.238 99.9263 749.399 101.055C749.883 103.959 753.755 103.798 754.4 106.702C755.852 106.54 756.175 107.186 756.175 108.638C756.175 109.122 756.336 109.928 756.659 109.928C760.208 110.574 761.015 114.123 763.435 115.898C766.339 118.318 768.114 121.867 770.373 125.094C770.534 125.255 770.373 125.739 770.373 126.062C770.373 127.03 767.791 125.578 768.759 127.675C768.92 128.159 768.436 127.998 767.63 128.804C766.662 129.772 765.855 129.772 764.726 129.772C760.692 129.772 756.659 130.095 752.626 129.611C751.335 129.611 750.367 131.708 749.076 129.934C748.431 129.288 746.495 129.611 746.334 129.127C745.688 127.03 742.623 127.191 742.623 124.61C742.623 123.803 741.816 122.512 741.01 122.19C740.042 121.706 738.59 121.706 737.46 121.544C738.912 120.738 738.267 119.931 737.299 119.286C736.331 118.479 735.202 117.995 734.234 117.188C733.588 116.543 733.427 115.414 732.62 114.607C728.91 111.219 726.006 106.863 722.94 102.83C722.295 101.862 720.843 101.539 720.036 100.732C719.229 100.087 719.068 98.9584 718.423 98.1514C717.455 97.0224 716.164 96.2153 716.487 94.4403C716.487 94.1183 716.003 93.4723 715.68 93.3113C714.551 92.3433 713.26 91.8594 712.292 90.8914C711.485 90.0844 711.001 88.7943 710.195 87.8263C708.904 86.3733 708.097 84.9214 707.452 82.9854C706.161 79.9204 702.773 77.8233 702.128 74.2733C702.128 74.1123 700.837 73.7893 700.353 74.1123C699.224 74.7573 698.901 75.8874 698.901 77.1774C699.063 80.8884 698.901 84.5993 698.901 88.3103ZM858.945 73.9513C858.945 71.5313 857.493 68.7883 859.429 66.3683C859.752 66.2073 859.59 65.0774 859.429 64.4324C858.945 62.8194 857.977 61.3673 859.429 59.9153C859.59 59.7533 859.59 58.6243 859.429 58.4633C857.654 57.0113 858.622 54.9133 858.461 53.1393C858.461 51.3643 859.268 49.1053 858.945 47.4923C858.3 45.5563 858.622 43.9434 859.268 42.3294C859.752 41.5234 858.461 39.7483 858.945 39.2643C860.074 37.8123 858.622 37.1664 858.622 36.3604C858.784 32.3264 857.493 27.9703 859.106 24.0983C859.268 23.6143 859.59 22.9694 859.429 22.6464C858.138 20.0654 858.622 17.1614 858.461 14.7414C858.3 12.8054 858.461 11.5144 859.106 9.41738C859.59 7.64238 859.59 5.3843 862.333 5.0613C862.817 2.9643 863.463 2.9643 866.851 4.2543C868.303 5.2223 869.916 5.7063 871.852 5.3843C873.143 5.2223 874.433 5.3843 875.563 5.3843C880.403 5.5453 882.661 8.61034 881.209 13.7733C879.273 14.7413 882.016 16.0324 881.048 17.0004C879.596 18.2904 881.209 19.0973 881.693 19.9043C882.661 21.6783 882.984 23.6143 882.5 25.2283C882.177 26.8413 881.532 27.4864 882.984 28.4544C884.113 29.1004 882.823 29.4224 882.661 29.7454C881.209 33.1334 881.209 36.5213 882.177 40.2323C882.661 41.3613 882.661 42.8134 882.661 44.1044C882.661 44.4274 882.177 45.2333 881.855 45.3953C880.403 45.5563 880.08 45.8793 881.371 46.6853C882.5 47.6533 883.307 49.1054 882.339 49.9124C880.403 51.6874 882.984 53.1394 881.693 54.9134C880.887 55.8814 880.564 57.9793 881.532 59.5923C881.855 60.3993 881.855 61.8514 881.371 62.6574C880.725 63.4644 880.403 63.9483 881.371 64.5933C882.984 65.7233 882.984 67.9813 882.5 68.6273C881.532 69.5953 882.5 70.5634 882.177 71.5314C881.855 72.4994 881.693 73.6283 881.532 74.7573C881.532 76.0483 881.693 77.5003 881.532 78.4683C881.371 80.0813 882.339 81.8564 880.725 83.4694C880.403 83.6314 880.887 84.5993 881.048 85.2443C881.209 86.3733 881.855 87.8263 881.371 88.6323C880.725 89.9233 880.08 90.7303 881.532 92.0203C882.016 92.6663 881.371 94.4403 881.209 95.4083C881.048 96.0544 880.403 96.5384 880.564 96.8604C880.887 102.668 877.499 106.54 875.079 111.38C873.627 114.446 871.368 117.188 868.948 119.608C868.303 120.415 869.593 122.835 867.819 122.674C865.883 122.674 865.076 123.803 863.785 124.771C863.463 125.255 862.495 125.255 861.849 125.094C858.945 124.287 857.493 125.9 855.88 127.836C855.073 128.804 854.266 129.611 853.298 130.418C852.008 131.224 850.556 132.354 849.426 133.322C847.974 131.063 845.393 133.161 843.941 131.87C842.812 131.063 842.328 131.224 841.36 132.031C839.908 132.999 838.456 133.806 836.681 134.451C836.036 134.613 834.906 134.129 834.422 133.806C833.454 132.515 832.325 132.192 830.873 132.192C827.162 132.515 823.452 130.579 819.58 131.063C819.096 131.224 818.45 130.74 817.966 130.418C816.998 129.934 816.192 129.288 815.385 129.288C812.319 129.45 810.222 128.32 808.609 125.9C807.479 124.932 806.834 124.771 805.543 125.739C804.253 126.868 803.285 125.255 802.962 124.287C802.478 123.642 802.962 122.674 802.801 121.867C802.801 121.222 801.994 120.738 801.994 120.738C799.413 122.996 798.283 118.64 796.025 119.608C793.766 117.511 791.991 114.607 791.669 111.542C791.669 109.767 790.701 109.444 789.571 108.638C788.442 107.831 787.313 106.54 787.474 104.604C787.474 102.991 786.667 101.378 786.022 99.9263C785.861 99.1193 785.538 98.3124 785.538 97.5064C785.377 96.2154 786.183 94.6023 785.538 92.9883C785.054 91.5363 785.538 89.6003 785.538 87.9873C785.377 87.0193 785.538 86.0513 785.054 85.5673C783.925 83.9533 784.086 82.6633 785.377 81.2113C786.022 80.7273 786.183 79.9203 786.506 79.2753C785.861 78.9523 784.731 78.7913 784.731 78.4683C784.409 76.3713 783.602 74.1123 785.377 72.1763C786.022 71.5313 786.667 71.2084 785.538 69.7564C784.57 68.4654 784.086 66.5294 784.409 64.7554C784.57 62.8194 783.925 60.7213 785.377 59.2693C783.925 57.8173 783.925 56.0433 785.377 54.4293C784.086 53.1393 784.57 51.6874 784.247 49.9124C784.086 48.9444 786.345 47.8153 784.409 46.6853C784.086 46.6853 784.409 45.0723 784.893 44.2653C785.699 43.1363 785.861 42.1683 784.893 41.0393C784.893 40.8773 784.57 40.8773 784.57 40.7163C784.409 38.7803 786.506 37.1664 785.215 35.2304C784.086 33.2944 783.925 31.6814 785.377 29.9064C785.699 29.5844 785.699 28.9384 785.377 28.4544C783.441 24.0984 784.893 19.7424 784.409 15.3864C783.925 12.8054 785.054 10.3854 786.506 8.28835C787.474 6.83635 788.442 5.70634 790.378 6.99734C791.669 7.48134 792.637 5.70634 793.927 6.67434C795.057 7.15834 796.025 8.12634 797.315 6.67434C797.477 6.51334 798.122 6.51334 798.122 6.67434C799.735 9.09434 801.994 6.67435 804.091 7.15835C806.511 8.12635 807.963 7.96539 807.963 10.2244C808.125 11.9984 808.447 13.7734 807.963 15.2254C807.479 16.3544 810.061 17.1613 808.125 18.2903C809.577 21.1943 809.254 23.9373 808.447 26.8413C808.286 27.0023 808.447 27.3253 808.447 27.3253C810.867 27.3253 809.577 29.1004 809.899 30.0684C810.545 32.0044 811.513 33.6174 809.254 35.0694C809.254 35.0694 809.577 35.5534 809.577 36.0374C809.899 38.4574 810.706 40.8774 809.093 43.4594C808.931 43.7814 809.093 44.7493 809.254 45.2333C810.867 48.2993 808.77 51.5253 809.093 54.5913C809.415 57.6563 810.706 60.3994 809.093 63.1414C808.609 64.7554 809.738 66.8523 808.125 67.9813C808.609 68.9493 809.415 69.7564 809.738 71.2084C809.899 72.0154 807.963 72.0153 808.609 73.7893C808.931 75.4033 808.77 77.6613 808.77 79.2753C808.77 82.3403 809.415 85.2443 810.867 87.9873C811.351 88.6323 813.287 90.4074 811.19 91.6984C811.513 92.3434 812.158 93.3113 812.642 93.4723C815.062 93.6343 813.287 94.4403 813.126 95.0863C812.965 95.5703 813.126 96.3764 813.449 96.6994C814.094 97.3444 815.224 97.3444 815.869 98.1514C817.16 99.6034 818.128 101.862 819.58 102.668C821.354 103.314 822.645 104.282 824.258 105.411C825.065 106.056 826.517 106.54 827.808 106.863C829.744 107.508 832.002 107.831 834.261 108.315C834.745 108.315 835.39 108.476 835.874 108.315C838.778 105.895 842.973 105.895 846.361 103.959C847.49 102.346 850.556 100.248 853.298 98.4744C855.396 96.8604 855.88 93.7954 856.525 91.3754C857.493 85.7284 857.977 79.7593 858.945 73.9513Z" fill="#E20612"/>
</svg>
