<svg width="880" height="127" viewBox="0 0 880 127" fill="none" xmlns="http://www.w3.org/2000/svg">
<path fill-rule="evenodd" clip-rule="evenodd" d="M96.2715 20.9429C94.1325 22.8679 90.9245 23.2959 87.2885 23.2959C84.7215 23.2959 81.9415 23.082 79.1605 22.868C78.0915 22.654 77.0215 23.9369 75.9525 23.9369C75.3105 23.9369 74.8835 23.723 74.2415 22.868C74.0275 22.654 73.3855 22.654 73.1715 22.868C70.3915 24.365 67.3965 23.9369 64.6165 24.1509C63.1195 24.1509 62.2635 25.007 62.2635 26.076C62.2635 26.504 62.4775 27.3589 63.1195 28.0009L64.4025 32.493C63.5465 33.134 62.4775 33.9899 62.0495 34.8449C61.8355 35.7009 62.6915 36.9839 63.1195 37.8399C62.6915 37.8399 62.4775 38.0539 62.2635 37.8399C61.8355 37.8399 61.4085 37.8399 60.9805 37.6259C60.9805 38.2679 60.9805 39.123 61.1945 39.123C64.4025 39.551 63.1195 42.7589 64.1885 44.4699C64.6165 44.8979 64.6165 45.5399 64.6165 46.3949C64.6165 47.2509 64.6165 48.3199 64.4025 49.1759C64.1885 50.6729 62.4775 51.7429 62.4775 53.4539C62.4775 53.8809 62.6915 54.309 62.9055 54.951C63.3335 55.806 63.5465 56.876 63.5465 57.945C63.5465 59.229 63.1195 60.512 62.0495 61.581C62.6915 63.293 63.7605 65.0039 63.7605 66.9289C63.7605 68.4259 62.0495 70.137 62.0495 71.42C62.0495 71.634 62.2635 71.8479 62.2635 72.0619C62.9055 73.7729 62.0495 75.698 62.0495 77.409C62.0495 78.479 62.2635 79.334 63.1195 80.19C63.5465 80.404 63.5465 81.2589 63.5465 82.1149C63.5465 82.9699 63.5465 83.8259 63.1195 84.2539C61.8355 85.1089 62.9055 85.965 62.9055 86.82C62.9055 87.034 62.9055 87.034 62.6915 87.248C62.4775 87.462 62.2635 88.1039 62.2635 88.1039C63.3335 89.1729 63.7605 90.2419 63.7605 91.5259C63.7605 93.0229 62.9055 94.734 62.2635 96.445C61.1945 99.44 59.9105 102.22 59.0555 105.215C58.4135 107.781 58.4135 110.776 58.4135 113.342C58.4135 114.412 59.4835 115.481 59.4835 116.337V116.551C59.2695 117.192 57.7715 117.62 56.9165 118.262C56.4885 118.476 56.0605 118.903 56.0605 119.117L56.7025 121.898C55.4195 121.898 54.1355 121.684 53.2805 122.112C52.8525 122.326 51.5695 122.753 51.5695 123.609C51.5695 123.823 51.7835 124.037 51.9975 124.464C52.6385 125.32 52.8525 126.389 51.5695 126.603C50.7135 126.817 49.2165 127.673 48.7885 125.534C48.7885 125.32 48.3605 124.892 48.1475 124.678C47.2915 125.534 46.6495 125.748 46.2225 125.748C45.5805 125.748 45.3665 124.892 45.3665 123.823V122.967C45.3665 121.256 45.1525 119.545 43.4415 118.476C41.9445 117.406 41.3025 115.909 41.3025 114.626C41.3025 113.556 41.7305 112.487 42.1585 111.631C42.5855 110.562 43.0135 109.492 43.0135 108.637C43.0135 108.209 43.0135 107.995 42.7995 107.781C41.9445 106.926 41.5165 105.856 41.5165 105.001C41.5165 103.503 42.5855 101.792 43.0135 100.295C43.8695 98.37 43.4415 96.0169 44.2975 94.3059C44.9385 92.8089 45.3665 91.526 45.3665 90.242C45.3665 89.815 45.3665 89.1729 45.1525 88.7449C44.9385 87.4619 46.0085 86.6059 46.0085 85.3229C46.0085 84.6809 45.7945 84.254 45.3665 83.612C44.7245 82.97 45.1525 81.687 45.1525 80.404C45.1525 79.976 44.9385 79.3339 44.7245 78.6919C44.0835 77.6229 44.5105 75.27 45.3665 74.201C46.6495 72.276 46.0085 70.3509 46.6495 68.6399C47.0775 67.7839 47.0775 66.7149 47.0775 65.8589C47.0775 64.1479 46.6495 62.651 46.0085 61.368C45.5805 60.298 45.3665 59.4429 45.3665 58.5869C45.3665 56.2339 46.6495 54.3089 47.5055 52.3839C48.7885 50.2449 49.4305 48.1069 50.0725 45.7539C50.2855 44.2569 49.6445 44.47 48.5745 45.112C47.2915 45.754 46.4355 45.5399 46.4355 44.6839C46.4355 44.4699 46.4355 44.2569 46.6495 43.8289C47.2915 41.9039 47.7195 39.7649 47.7195 37.8399V36.5569C47.2915 33.5619 47.0775 30.3539 46.4355 27.3589C46.2225 26.2899 45.3665 25.0069 44.0835 25.0069C43.8695 25.0069 43.6555 25.221 43.4415 25.221C42.5855 25.862 41.7305 25.862 40.8745 25.862H38.7355C38.0945 25.862 37.2385 26.076 36.5975 26.29C35.9555 26.504 35.3135 26.5039 34.6725 26.5039C32.9615 26.5039 31.0365 26.0759 29.1115 27.3589C28.6835 27.7869 27.8275 28.0009 26.9725 28.0009C26.1165 28.0009 25.2615 27.7869 24.6195 27.3589C22.9085 26.0759 21.8385 27.3589 20.7695 27.7869C19.4865 28.2149 18.4165 28.857 17.7745 28.857C17.5615 28.857 17.3475 28.857 17.1335 28.643C16.2775 27.787 15.6365 27.5729 14.7805 27.5729C14.3525 27.5729 13.9245 27.5729 13.4975 28.0009C11.7865 28.8569 9.86148 28.857 8.57748 29.498C6.43848 30.354 4.51349 29.2839 2.37549 30.9949C0.877486 32.2789 1.09148 29.2839 0.236478 28.4289C-0.619522 27.5729 1.09147 27.5729 1.51947 27.5729C3.87247 28.0009 4.72748 27.1449 4.72748 25.0069V24.3649C4.51348 22.8679 5.58347 21.7979 7.08047 21.5839C7.93647 21.5839 8.57747 20.3009 9.43347 20.3009C9.86147 20.3009 10.0745 20.5149 10.5025 20.9429C10.7165 21.1569 11.7865 21.3709 12.2135 21.3709H12.4275C13.9245 18.8039 16.9195 19.8729 18.6305 18.8039C19.4865 18.1619 20.5555 18.1619 21.4115 18.1619H23.3365L24.8335 17.9479C25.2615 17.9479 25.9025 18.1619 26.1165 17.9479C29.3245 15.1679 33.6025 16.2369 37.2385 14.7399C40.0195 13.8839 42.7995 13.671 45.5805 13.243C47.0775 13.243 47.2915 12.6009 47.9335 11.5319C48.5745 10.0339 50.0725 8.75093 51.3555 7.46793C53.0665 5.97093 55.2055 4.90087 56.7025 2.76187C57.1305 1.90687 57.7715 1.6929 58.6275 1.6929C59.9105 1.6929 61.8355 2.54789 63.1195 2.54789C65.0445 2.54789 64.8305 4.90098 65.4715 5.97098C65.8995 6.61198 65.4715 7.89589 65.6855 8.75089C65.8995 9.17889 67.3965 9.60697 67.3965 9.60697C68.6805 7.46797 70.6055 7.25394 72.5305 7.25394H74.2415C75.9525 7.25394 77.6635 7.68192 79.1605 7.68192C80.2305 7.68192 81.0855 7.46795 81.9415 7.03995C84.5075 5.97095 90.4965 3.83194 94.3465 3.83194C94.9885 3.83194 95.6305 3.83193 96.0575 4.04593C98.8385 4.90093 99.4805 8.75088 99.4805 11.7459C99.4805 16.2369 98.1965 19.0179 96.2715 20.9429ZM127.071 29.498C127.071 34.632 130.279 41.2619 133.916 44.6839C134.557 45.3259 134.985 46.3949 135.413 47.4649L136.054 48.9619C139.049 48.3199 139.477 51.5289 141.188 52.3839C143.113 53.4539 144.182 55.3789 145.893 56.6619C148.032 57.9449 149.743 59.87 151.882 60.94C153.166 61.581 154.235 62.0089 154.663 63.5059C154.877 63.9339 155.732 64.148 156.374 64.576H156.802C158.727 66.073 160.438 68.4259 162.79 69.0679C164.929 69.9229 167.068 70.3509 168.565 72.0619C169.421 73.1309 169.849 74.6289 170.918 75.2699C171.774 75.6979 173.485 74.8419 174.34 75.4839C175.41 76.3399 177.549 76.3399 177.763 78.6919C177.977 80.8309 180.115 81.4729 181.399 82.3289C183.538 83.3979 185.463 84.254 185.676 87.248C185.676 87.89 186.318 88.5309 186.746 88.9589C187.815 90.2419 189.313 91.3119 189.313 92.8089C189.313 93.4509 189.099 94.0919 188.243 94.9479C188.243 94.9479 188.457 95.5899 188.671 95.5899C190.168 96.6589 190.81 98.156 190.81 99.44C190.81 100.723 190.382 102.006 190.168 103.29C189.954 105.215 189.526 107.567 188.029 109.492C185.249 113.128 182.896 116.978 177.977 118.476C177.763 118.476 177.335 118.903 177.121 119.117C175.624 120.615 174.34 122.112 172.415 122.112C171.56 122.112 170.49 121.684 169.207 120.828C167.71 119.759 165.785 121.684 164.288 122.753C163.004 123.395 163.218 123.823 162.79 123.609C160.224 122.539 157.657 121.47 154.877 120.828C153.807 120.615 152.31 121.47 151.454 122.326C150.813 122.753 150.171 122.967 149.316 122.967C148.674 122.967 148.032 122.753 147.177 122.539C146.535 122.112 145.893 121.898 145.038 121.898C144.61 121.898 144.182 121.898 143.968 122.112C142.257 122.539 140.76 120.828 139.049 120.828C138.407 120.828 137.766 121.256 137.124 121.898C136.482 120.828 135.627 120.187 134.557 120.187C133.916 120.187 133.274 120.401 132.632 120.828C132.204 118.262 129.424 118.69 128.141 117.62C127.499 116.978 126.857 116.337 126.216 116.337C125.788 116.337 125.36 116.551 124.932 117.192C124.932 117.192 124.077 117.192 124.077 116.978C122.58 114.412 118.088 115.267 118.088 111.203C118.088 110.348 116.163 109.278 114.88 108.851C111.457 107.353 111.03 106.926 109.105 103.29C108.463 102.006 107.393 100.937 106.538 99.6529C105.896 98.5839 105.469 97.729 105.469 96.873C105.469 95.804 106.11 94.52 106.966 93.451C108.463 92.167 109.318 90.4559 110.388 88.9589C111.243 87.6759 112.313 87.248 113.81 87.248H114.666C115.735 87.248 116.377 87.4619 116.377 88.9589C116.163 90.6699 116.377 91.7399 118.516 92.8089C119.585 93.2369 121.724 94.3059 121.724 96.0169C121.724 96.6589 121.724 97.0869 121.296 97.7289L126.857 101.578C127.071 101.578 127.713 100.723 128.355 100.295C128.568 100.081 128.782 99.6529 129.21 99.6529C129.424 99.6529 129.638 100.081 130.066 100.295C132.204 102.434 136.268 104.145 138.621 105.428C140.118 106.498 143.113 105.642 143.113 108.637C143.754 108.423 145.252 107.995 145.679 107.995H145.893C147.391 110.348 149.957 109.278 151.668 110.348C153.166 111.417 154.449 109.706 155.518 109.706C155.946 109.706 156.374 109.92 156.588 110.348C158.085 112.701 160.438 109.065 161.721 111.203C163.432 110.562 165.143 109.706 166.854 109.065C167.71 108.851 168.779 108.851 169.635 109.065C172.202 109.492 174.554 108.423 174.768 106.07C174.982 104.145 174.982 102.22 174.768 100.081C174.768 99.867 174.34 99.226 174.34 99.226C170.918 99.867 171.132 97.0869 170.063 95.1619C169.635 94.3059 168.138 93.451 167.282 93.451C164.502 93.665 163.218 91.526 161.507 90.029C160.224 88.745 159.368 87.248 157.229 87.248H156.802C155.946 87.248 155.09 86.1789 154.449 85.3229C153.379 83.3979 150.171 83.184 149.529 80.404C149.529 80.19 148.888 80.19 148.46 80.19C147.818 79.976 147.391 81.045 146.749 81.045C146.321 81.045 146.107 80.831 145.679 80.404C145.038 79.548 145.893 78.6919 145.893 77.8369C145.893 77.6229 145.679 77.1949 145.252 76.9809C145.679 76.3399 146.321 75.9119 146.321 75.2699C146.321 74.8419 146.107 74.6289 145.466 74.4149C144.61 73.9869 143.327 74.8419 142.043 75.2699C141.402 75.4839 140.974 77.8369 140.118 75.0559C139.691 73.7729 137.552 73.1309 136.268 72.0619C133.916 69.7089 131.563 67.1429 128.996 64.7899C128.141 63.9339 126.002 62.8649 126.002 62.0089C126.643 59.2289 123.435 60.0839 123.007 58.5869C122.366 57.3039 121.51 56.02 121.082 54.523C120.868 52.812 119.585 54.951 118.943 54.951C118.73 54.951 118.73 54.7369 118.73 54.3089V53.8809C118.73 52.3839 118.943 50.8869 118.73 49.6039C118.516 47.6789 117.874 45.5399 117.66 43.6149C117.446 41.4759 117.446 39.5509 117.446 37.6259C117.66 36.3429 117.018 35.915 115.949 35.701C115.521 35.701 115.093 33.9899 115.093 33.3479C117.018 24.7929 120.013 16.8789 127.071 11.5319C129.21 9.82089 132.204 9.3929 134.771 8.5369C135.627 8.1089 136.91 8.32291 137.552 7.89591C139.263 6.82591 140.974 6.39798 142.471 6.39798C145.679 6.39798 148.888 8.32297 151.882 10.034C152.31 10.034 152.524 10.8899 152.738 10.6759C153.379 10.4619 154.021 10.4619 154.449 10.4619C157.657 10.4619 159.796 13.2429 162.363 14.7399C163.218 14.9539 163.86 15.1679 164.288 15.1679C164.715 15.1679 165.357 14.9539 165.999 14.5259C166.854 13.8839 168.565 14.312 166.64 16.023C168.138 16.665 169.421 17.5209 170.918 17.9479C172.629 18.1619 174.127 18.162 175.838 19.232C177.977 20.729 178.832 22.8679 180.757 24.3649C179.046 26.2899 181.185 27.1449 182.04 28.2149C183.538 29.4979 186.319 30.568 186.533 32.065C186.961 34.418 188.457 35.4869 189.526 36.7699C190.168 37.4119 190.596 38.4819 190.596 39.5509C190.596 40.6199 190.168 41.476 189.526 42.118C188.885 42.759 187.815 43.1869 186.746 43.1869C185.89 43.1869 185.035 42.9729 184.393 42.3319C182.468 40.1929 180.115 38.6949 178.404 36.5569C176.479 34.4179 173.485 32.92 170.704 32.493C167.282 32.065 165.571 30.3539 164.929 27.5729C164.288 24.7929 161.293 25.6479 160.01 23.9369C159.154 24.7929 158.299 25.221 157.657 25.221C156.16 25.221 154.877 23.509 153.807 22.44C152.738 21.371 151.454 22.868 150.599 22.868C150.385 22.868 150.171 22.6539 149.957 21.7979C149.743 20.0869 148.888 19.6589 147.604 18.5899C146.535 17.5209 145.252 17.5209 143.968 17.5209H142.685C141.829 17.5209 140.76 17.3069 139.904 16.8789C139.477 16.6649 139.049 16.6649 138.621 16.8789C137.552 17.3069 136.696 19.232 135.413 19.232C134.771 19.232 134.343 18.8039 133.488 17.9479C131.991 19.2319 129.852 20.3009 128.782 22.0119C127.927 23.0819 126.857 24.365 126.857 26.076C126.857 26.29 126.857 26.7179 127.071 27.1449C127.285 28.0009 127.071 28.857 127.071 29.498ZM220.754 19.446C220.112 22.226 221.824 26.2899 219.471 29.7119C219.257 29.9259 220.326 30.9949 220.326 31.6369C220.326 32.7069 220.968 34.4179 218.829 34.4179C218.615 34.4179 218.187 35.7009 217.76 36.1289C220.326 37.1979 216.904 39.1229 218.187 40.6199C219.043 42.1179 218.615 44.6839 219.043 46.6089C219.257 48.1069 220.326 49.818 220.754 51.315C221.396 53.668 219.685 56.02 221.824 57.945C221.61 58.801 221.396 59.87 221.396 60.726C221.396 64.148 223.321 67.57 223.962 70.779C224.604 74.415 225.246 78.6919 228.454 81.4729C230.593 82.9699 230.166 85.7509 231.236 87.8899C231.877 88.9589 230.593 89.1729 229.523 89.1729C228.882 89.1729 228.454 89.601 227.812 89.815C228.24 90.029 228.454 90.6699 228.882 91.0979C229.737 91.7399 230.38 91.9539 231.236 92.3809C232.519 93.2369 232.304 92.1669 232.518 91.5259C232.946 90.4559 233.16 90.2419 233.801 91.7399C233.801 92.1669 233.373 93.6649 234.443 92.8089C235.298 92.1669 235.94 91.9539 236.582 91.9539C237.01 91.9539 237.651 92.1669 238.079 92.5949C240.004 94.3059 243.212 94.0919 244.068 97.3009C244.496 99.2259 245.351 100.081 246.635 100.081C247.276 100.081 247.704 99.8669 248.346 99.6529C248.773 99.4399 249.415 99.012 249.629 99.44C250.484 100.295 251.126 100.509 251.982 100.509C253.693 100.509 255.404 98.7979 257.115 98.5839C259.682 98.3699 262.035 96.4449 263.533 93.8789C265.458 90.4559 268.451 87.4619 269.307 83.1839C272.943 78.9059 271.66 72.062 275.296 67.57C275.724 66.929 275.937 65.6449 275.509 65.0039C274.654 63.9339 274.44 62.651 274.44 61.368C274.44 59.656 274.868 57.9449 274.654 56.2339C274.44 51.7429 274.012 47.2509 274.012 42.9729C274.012 41.4759 274.012 39.765 274.226 38.268C274.868 31.423 275.937 25.0069 278.076 18.5899C279.145 15.8089 281.284 14.3119 282.14 11.9589C282.568 11.1039 284.066 10.4619 284.921 10.4619C285.991 10.2479 287.273 10.8899 288.557 11.3179C288.77 11.5319 288.984 12.173 288.984 12.601C288.77 17.307 289.412 22.0119 290.909 26.5039C291.337 27.1449 291.124 28.215 291.124 28.857C290.91 31.209 290.482 33.776 290.482 35.915C290.482 36.984 290.482 38.054 290.909 38.909C291.337 39.765 291.337 40.62 291.337 41.69V43.4009C291.337 44.8979 291.552 46.3949 292.835 47.4649C290.269 48.7479 294.545 51.3149 291.551 52.5979C291.337 52.5979 291.337 53.6679 291.551 54.0949C291.765 55.8059 292.407 57.09 293.048 58.373C293.262 59.229 292.835 59.87 292.835 60.726C292.835 60.94 292.834 61.368 293.262 61.795C294.118 62.651 294.118 64.7899 294.332 66.0729C294.545 67.5699 293.904 69.0679 294.973 70.1369C295.401 70.9929 295.187 71.8479 295.187 72.7039C295.187 75.2699 294.545 77.623 296.257 79.976C296.898 81.045 295.187 82.1149 295.187 83.1839C295.187 83.6119 295.401 84.0399 296.043 84.4669C296.47 90.4559 297.754 95.8039 298.823 101.578C299.037 102.006 299.037 102.862 299.037 103.503C299.037 104.573 298.823 105.428 298.395 106.284C297.968 107.567 295.615 107.995 295.401 109.278C295.187 110.348 296.257 111.417 296.257 113.128V113.77C295.829 115.267 295.401 117.406 293.69 117.834C292.407 118.262 292.408 119.117 292.408 120.187C292.408 122.967 291.337 120.401 290.695 120.615C289.84 120.828 288.77 121.256 287.701 121.256C286.845 121.256 285.99 120.828 285.348 118.903C285.134 117.192 282.995 116.123 282.995 114.198C282.995 113.77 282.996 113.556 283.21 113.128C283.424 112.487 282.568 112.059 282.568 111.203V110.99C282.14 107.781 280.857 105.001 281.284 101.792C281.498 100.081 281.498 98.5839 280.215 97.5149C279.359 96.6589 279.359 94.7339 278.718 93.6649C278.504 93.2369 278.076 92.8089 277.862 92.1669C277.434 92.8089 277.007 93.2369 277.007 93.8789C275.937 97.3009 276.365 102.006 272.729 104.573C272.515 104.787 271.659 105.001 271.659 105.428C271.659 111.417 267.81 112.487 263.533 113.984C262.677 113.984 261.393 113.984 260.751 116.123C259.468 119.331 256.046 121.042 253.479 121.256C252.623 121.47 251.554 120.828 250.698 120.401C250.057 123.609 247.918 122.539 246.207 122.967C243.426 122.967 241.287 122.326 240.218 118.903C240.004 118.476 239.576 117.62 239.148 117.62C238.721 117.62 238.507 118.048 238.293 119.117C238.293 119.331 236.796 119.759 236.582 119.545C234.871 118.262 233.374 116.978 231.236 116.978C230.808 116.978 230.807 116.551 230.593 116.337C229.737 114.84 229.096 112.915 228.026 111.631C227.171 110.776 225.887 110.134 225.887 108.423V107.567C225.887 106.284 224.818 107.353 224.39 107.781C223.321 108.637 222.679 109.278 222.037 109.278C221.396 109.278 220.968 108.637 220.54 107.567C219.043 103.29 216.904 99.6529 213.054 97.3009C212.199 96.8729 212.199 94.948 211.557 93.451C211.343 92.809 210.274 92.3809 210.274 91.7399C210.274 91.5259 210.487 91.098 211.129 90.456C211.343 90.456 210.915 88.7449 210.487 88.7449C209.418 88.5309 209.204 88.104 209.204 87.248V86.3919C209.418 85.5369 210.06 84.8949 210.487 84.0399C209.632 83.8259 208.99 83.6119 208.349 83.1839C208.135 82.5419 207.921 81.4729 208.135 81.2589C209.204 79.9759 209.418 78.9059 209.418 77.8369C209.418 75.6979 208.349 73.7729 207.707 71.8479C207.493 70.3509 207.493 67.3559 207.493 65.4309C207.279 62.8649 207.921 60.2979 207.921 57.7309C207.921 56.4479 207.707 55.1649 207.065 53.6679C206.851 53.4539 206.637 53.0259 206.851 52.5979C208.135 50.0309 208.349 47.2509 208.349 44.4699V38.0539C208.349 33.7759 209.418 29.926 210.274 25.862C210.487 25.007 210.701 24.3649 210.701 23.2959C210.701 22.8679 210.701 22.4399 210.487 21.7979C210.06 20.9429 211.985 19.0179 212.412 17.0929C212.84 16.2369 212.84 15.1679 212.84 14.3119V12.1729C213.268 9.60688 214.551 8.32293 216.69 7.46793C217.546 7.25393 217.974 6.18388 218.401 5.54288C219.471 6.82588 221.182 7.46798 221.182 9.39298V9.82096C220.968 12.815 220.968 15.809 220.754 19.446ZM320.426 123.181C319.57 123.181 318.715 123.395 317.859 123.181C317.431 123.181 316.79 122.539 316.79 122.112C317.004 119.117 315.72 116.551 314.865 113.984C314.437 113.77 314.009 113.128 314.223 112.915C315.293 111.631 315.507 110.348 315.507 109.278C315.507 106.284 313.581 103.503 314.009 100.295C314.437 98.584 314.437 96.8729 314.437 95.1619C314.437 92.5949 314.223 90.0289 314.223 87.4619C314.009 84.6809 314.223 82.1149 315.934 79.7619C316.576 78.9059 316.79 78.051 316.79 77.409C316.79 76.767 316.576 76.1259 315.934 75.4839C315.72 74.8419 315.506 74.415 315.72 74.201C317.431 72.276 314.865 70.5649 315.72 68.8539C315.934 67.9979 316.79 67.1429 316.79 66.2869C316.79 65.8589 316.576 65.2179 315.72 64.7899C317.004 64.1479 315.934 62.8649 315.934 62.0089C315.934 61.7949 315.934 61.795 316.148 61.581C316.79 60.94 316.79 60.0839 316.79 59.2289V56.6619C317.004 54.9509 316.148 53.24 317.645 51.743C318.073 51.529 317.859 50.6729 317.859 50.2449C317.218 46.6089 316.79 44.257 316.79 42.118C316.79 39.979 317.218 38.0539 317.859 35.0589C317.859 34.6319 318.073 33.9899 317.859 33.7759C317.218 32.7069 317.004 31.4229 317.004 30.3539C317.004 27.3589 318.287 24.3649 318.287 21.5839C318.287 20.9429 318.073 20.515 318.073 19.873C317.859 19.232 317.859 17.9479 317.431 17.7339C316.148 16.8789 315.72 16.0229 315.72 15.1679C315.72 13.8839 316.576 12.6009 317.004 11.3179C317.859 9.3929 319.143 8.32291 320.426 8.32291C321.709 8.32291 323.206 9.17893 324.49 10.8899C325.773 13.0289 326.842 15.1679 328.554 16.8789C329.623 18.8039 331.976 19.2319 332.617 21.5839C333.045 22.0119 334.116 22.226 334.757 22.654C337.752 24.365 340.531 26.0759 340.531 30.1399C340.531 30.7819 341.173 31.6369 341.387 31.4229C344.809 30.7819 345.023 33.99 346.734 35.915C349.515 39.337 352.723 42.5449 355.717 45.9679C358.07 48.5339 361.279 50.4589 361.921 54.3089C366.841 56.8759 368.765 62.0089 371.973 66.0729C372.401 66.5009 372.828 67.3559 372.828 68.2119V68.6399C372.614 69.2809 372.614 69.923 372.614 70.565C372.614 72.276 373.256 73.1309 374.967 73.1309C375.395 73.1309 375.823 72.9179 376.464 72.9179C376.892 72.7039 377.535 71.8479 377.749 71.8479C377.963 71.8479 377.962 71.8479 377.962 72.2759C378.389 75.4839 380.956 74.8419 382.239 76.5539C383.737 78.0509 385.876 79.1199 385.876 81.6869V82.1149C385.876 82.3289 386.731 82.9699 387.587 83.1839C388.442 84.0399 390.367 84.4669 390.367 84.8949C389.939 88.3169 393.148 88.531 394.431 90.242C395.287 91.526 395.928 93.2369 396.784 94.7339C396.784 93.0229 396.998 91.312 397.212 89.815C397.212 88.317 396.784 86.6059 397.853 85.5369C398.281 85.3229 398.495 84.467 398.495 83.826C398.495 83.612 398.495 83.1839 398.281 83.1839C397.212 82.1149 396.999 80.8309 396.999 79.5479C396.999 78.4789 397.212 77.1949 397.212 76.1259C397.212 74.8419 396.784 73.7729 395.928 72.7039C396.998 70.3509 397.212 67.7839 397.212 65.4309C397.212 63.2929 396.999 60.9399 396.999 58.8009C396.999 56.6619 397.212 54.5229 398.067 52.3839C398.709 50.8869 398.71 49.3899 398.71 47.6789C398.71 45.9679 398.709 44.043 399.35 42.545C399.778 41.476 398.495 39.551 398.495 38.268V38.0539C398.709 35.7009 396.784 33.7759 396.784 31.6369C396.784 30.9949 396.998 30.3539 397.425 29.7119C398.281 28.4289 398.281 27.145 398.281 25.862V23.2959C398.281 22.4399 398.281 21.5839 398.495 20.9429C399.778 16.4509 401.489 12.1729 404.698 8.75089C405.981 7.68189 407.479 8.32297 408.335 10.034C409.19 11.959 409.831 13.671 410.9 15.596C410.045 16.023 409.831 16.6649 409.831 17.0929C409.831 18.1619 411.114 19.4459 411.114 20.7289V20.9429C410.9 22.8679 410.687 24.7929 410.687 26.7179C410.687 29.2839 410.9 31.8509 410.9 34.4179C410.9 35.2729 411.328 36.5569 410.9 36.7699C409.617 38.2679 409.189 39.7649 409.189 41.2619C409.189 43.8289 410.687 46.3949 411.114 48.9619C411.542 51.7429 411.757 54.0949 411.757 56.6619C411.757 58.5869 411.542 60.5119 411.542 62.8649C411.328 66.2869 409.617 69.9229 409.617 73.1309C409.617 74.8419 409.831 76.3399 410.9 77.8369C411.114 78.4789 410.473 79.762 410.259 80.617C410.045 81.901 409.403 83.3979 409.403 84.6809C409.403 85.7509 409.832 86.8199 411.757 87.4619C411.757 87.4619 412.184 87.6759 412.184 87.8899C411.97 92.1669 412.398 96.8729 411.542 100.937C411.114 103.076 411.114 105.215 410.9 107.353C410.9 109.278 411.114 111.417 408.975 113.128C408.548 113.556 408.335 114.84 408.335 115.909V121.684C408.335 123.181 407.693 123.395 406.624 123.395C405.982 123.181 404.912 123.395 404.698 123.609C404.484 124.892 404.27 125.962 403.414 125.962C403.2 125.962 402.773 125.962 402.559 125.748C400.848 125.32 399.137 125.106 398.281 123.395C397.853 122.539 397.425 121.042 396.356 120.828C393.362 119.545 393.577 115.481 390.796 113.77C390.582 113.556 390.795 112.273 391.009 111.845C391.437 111.417 392.72 110.776 391.009 110.562C390.367 110.348 389.726 110.562 389.298 110.348C388.014 110.348 388.014 110.348 386.731 107.567C386.517 107.14 386.089 106.498 385.662 106.498C383.523 107.14 382.24 105.215 381.171 103.717C380.315 102.434 380.315 99.867 377.749 99.867C377.535 99.867 377.106 98.7979 376.892 97.7289V93.451C376.892 93.023 376.678 92.8089 376.464 92.1669C376.251 93.0229 376.037 93.6649 375.823 93.8789C375.181 94.3059 374.539 94.5199 373.898 94.7339L373.257 94.3059C370.904 93.2369 371.332 90.0289 369.835 88.3169C368.124 86.1789 366.626 84.6809 366.84 81.6869C367.053 78.9059 365.128 77.4089 362.348 76.7669C361.278 76.5539 359.353 75.4839 359.567 74.6289C359.781 71.6339 358.926 70.351 356.359 70.351H355.076C354.862 70.351 354.434 69.9229 354.434 69.2809C354.862 66.2869 352.723 65.6449 350.798 64.7899C348.017 62.8649 347.59 59.4429 347.162 56.6619C346.948 55.5929 346.52 55.165 346.306 55.165C345.879 55.165 345.451 55.5929 345.023 56.0199C344.595 56.2339 343.312 55.3789 343.312 55.3789C343.74 52.8119 341.601 51.7429 340.745 50.4589C339.676 48.7479 338.606 47.037 338.392 45.112C338.179 43.829 337.965 43.4009 337.537 43.4009C337.109 43.4009 336.681 44.0429 336.04 44.4699C335.826 44.6839 334.756 44.0429 334.542 43.4009C334.115 42.7589 334.542 41.9039 334.329 41.0479C334.115 40.1929 333.473 39.551 333.259 38.909C333.045 38.054 332.404 38.0539 331.762 38.0539H330.906C330.051 38.0539 329.195 37.8399 329.195 36.1289C329.409 34.6319 328.34 33.1339 327.484 31.6369C327.27 31.2089 326.415 30.9949 325.773 30.7819C325.773 31.2089 325.345 32.2789 325.559 32.7069C326.629 34.4179 326.842 36.1289 326.842 38.0539C326.842 39.1229 326.629 39.9789 326.629 41.0479C326.629 42.5449 327.056 44.043 327.056 45.54C327.056 46.823 326.842 47.8929 325.773 48.9619C326.629 49.3899 326.842 49.8179 326.842 50.4589C326.842 51.5289 325.559 53.0259 325.559 54.0949C325.559 54.5229 325.773 54.9509 326.415 55.3789C326.629 57.7309 326.629 60.2979 326.842 62.8649C326.842 64.5759 326.629 66.287 326.629 67.998C326.629 68.854 326.629 69.709 326.842 70.565C327.912 73.559 328.34 76.5539 328.34 79.5479C328.34 82.5419 327.912 85.5369 327.484 88.5309C327.27 90.0289 328.126 91.526 328.126 93.023C328.126 93.879 327.912 94.7339 326.842 95.5899C328.554 96.4449 328.981 97.3009 328.981 98.3699C328.981 99.8669 327.698 101.792 327.912 103.503C328.34 103.931 328.34 104.573 328.34 104.787C328.767 105.856 329.623 104.145 330.265 104.145C330.265 104.145 330.479 104.359 330.479 105.215C330.479 107.567 328.981 109.492 328.554 111.845C327.912 114.84 326.415 117.406 325.345 120.187C324.276 122.967 324.062 123.181 321.495 123.181H320.426ZM427.156 18.5899C427.156 17.9479 427.584 17.3069 428.011 16.8789C429.723 15.1679 431.434 13.0289 434.642 13.4569C436.353 13.6709 438.278 12.601 440.417 12.601H441.059C441.486 12.601 442.128 12.1729 442.342 11.7459C443.411 10.6759 444.695 9.17887 445.764 9.17887C446.62 9.17887 447.475 9.8209 448.331 11.3179C448.972 10.0339 450.042 10.8899 450.684 10.8899H451.111C451.753 10.6759 452.822 10.034 453.036 10.248C454.106 11.318 454.747 11.746 454.747 10.248V9.60697C454.747 8.75097 454.961 8.10892 455.603 8.10892C455.817 8.10892 456.245 8.10891 456.672 8.32291C456.886 8.32291 456.886 8.5369 457.1 8.5369C457.742 8.9649 458.597 9.17887 459.453 9.17887C460.309 9.17887 461.378 8.96488 462.234 8.96488C463.517 8.96488 464.586 9.17896 465.442 10.248C468.008 9.82096 471.217 11.3179 473.57 8.96488C473.997 8.75088 475.495 8.75087 475.922 9.17887C476.564 10.0339 477.633 10.248 478.489 10.248H480.414C481.697 10.248 482.767 10.4619 483.622 11.3179C484.05 11.9589 485.547 11.318 485.547 13.029C485.547 13.243 485.976 14.5259 487.046 14.5259C487.259 14.5259 487.9 14.3119 488.328 13.6709C488.756 13.0289 490.467 13.6709 491.75 13.6709C493.033 13.4569 494.317 14.5259 494.317 15.8089C494.531 17.3069 494.958 18.804 496.669 19.232C497.525 19.446 498.808 18.3759 500.092 18.1619C500.733 17.9479 501.375 18.1619 502.017 18.3759C503.3 18.8039 500.092 20.0869 502.444 20.5149C503.728 20.7289 504.797 21.3709 505.653 22.0119C506.508 22.6539 507.15 23.5089 507.15 24.5789V25.0069C506.936 25.4339 507.578 26.076 507.792 26.076C510.358 26.076 510.786 29.0699 513.353 29.7119C514.85 30.3539 516.133 32.9199 517.417 34.6319C518.486 36.3429 519.555 37.8399 519.555 39.7649C519.555 40.4069 519.342 41.4759 518.7 42.3319C518.272 42.9729 518.272 43.6149 518.272 44.0429C518.272 45.5399 519.128 46.823 519.555 48.107C519.769 48.534 520.839 48.7479 521.48 48.9619C522.336 49.1759 523.619 48.5339 522.336 50.2449C520.411 52.5979 521.053 55.593 519.555 58.373C519.128 59.015 519.342 60.2979 520.839 60.2979H521.267C522.764 60.0839 522.336 60.2979 522.336 62.0089C521.48 67.1429 518.7 71.8479 518.272 76.7669C518.272 77.1949 518.486 77.8369 518.272 78.0509C515.278 80.1899 515.064 83.6119 514.208 86.6059C513.139 91.3119 509.931 94.5199 506.508 97.3009C505.439 98.1559 505.225 99.012 504.369 99.867C503.3 100.937 502.444 101.578 502.444 103.29V103.717C502.444 104.573 501.589 104.573 500.733 104.573C499.878 104.573 499.022 104.573 499.022 106.07C499.022 107.567 496.883 107.781 496.883 109.492V109.706C496.883 109.706 496.242 110.134 496.028 110.134C492.606 110.776 489.825 113.342 487.258 115.053C483.836 117.192 480.2 117.406 475.922 118.69C475.067 119.331 473.997 119.545 473.997 117.834V116.978C473.997 116.765 472.928 116.123 472.286 116.123C471.645 116.123 471.217 116.765 470.575 117.192C468.436 118.048 470.147 118.048 471.003 118.262C471.217 118.262 471.645 118.476 471.645 118.69C471.645 118.903 471.217 119.331 471.003 119.331C468.222 118.69 468.223 120.615 468.223 122.326C468.437 124.464 467.795 123.395 466.725 122.967C466.084 122.753 465.442 122.539 464.586 122.539C463.517 122.539 462.661 122.753 461.592 122.753C460.095 122.539 458.17 123.609 457.956 121.042C457.956 120.828 456.673 120.401 456.46 120.615C455.604 121.47 454.747 121.684 453.678 121.684H451.111L446.62 122.326C445.978 122.326 445.122 122.753 444.053 122.753C442.556 122.753 441.059 123.395 440.845 121.042C440.845 120.615 438.92 122.112 438.064 120.615C437.636 120.187 435.711 120.615 434.642 120.615C433.573 120.615 433.573 119.973 433.145 118.903C432.289 116.765 431.861 114.412 431.861 112.059C432.075 109.92 432.289 107.995 432.289 105.856C432.289 104.573 432.075 103.076 431.861 101.792C431.648 100.937 432.931 99.6529 432.931 98.7979C432.931 98.1559 432.504 97.7289 431.007 97.5149C431.862 96.4449 432.075 95.3759 432.075 94.3059C432.075 93.2369 431.861 92.3809 431.861 91.3119C431.861 90.4559 432.075 89.3869 432.503 88.5309C432.931 88.1039 432.717 87.462 432.931 86.82L431.434 80.831C430.578 79.762 432.075 78.692 432.075 77.409V76.9809C431.861 75.9119 431.861 74.4149 432.289 73.1309C432.503 72.4899 433.786 71.848 433.786 71.42C433.786 71.206 433.573 71.206 432.931 71.206L432.717 68.6399L432.503 66.9289L432.289 64.576L432.075 63.2929L431.648 59.8699L432.075 57.3039C432.931 53.0259 433.145 48.7479 433.145 44.2569V36.7699C433.145 35.2729 433.573 33.776 432.289 32.493C431.006 31.209 432.289 29.498 433.145 28.643C434 27.787 434.214 26.932 434.214 26.076C434.214 24.365 433.145 22.6539 433.145 21.1569C433.145 20.9429 431.434 20.5149 431.22 20.9429C429.723 22.2259 429.081 21.5839 428.011 20.5149C427.584 19.8729 427.156 19.2319 427.156 18.5899ZM510.786 70.779C511.214 69.281 509.717 67.9979 509.717 66.7149C509.717 66.2869 509.931 65.8589 510.358 65.4309L509.931 65.0039C507.15 56.2339 502.873 48.5339 498.382 40.8339C496.457 37.1979 492.819 35.273 490.895 31.851C489.183 28.857 486.403 29.926 484.478 28.857C482.767 30.782 481.911 28.8569 480.842 28.0009C480.628 27.5729 480.628 26.29 480.414 26.29C477.42 26.504 475.281 23.2959 471.858 23.9369C469.72 24.1509 468.222 22.8679 466.939 20.9429C466.084 19.4459 464.8 17.9479 463.089 17.9479C462.875 17.9479 462.447 17.9479 462.02 18.1619H453.25C453.036 18.1619 452.822 18.3759 452.822 18.3759C452.609 20.0869 451.967 20.5149 451.539 20.5149C450.47 20.5149 449.186 19.018 448.331 19.232C447.903 19.232 447.261 18.1619 446.62 18.1619C446.192 18.1619 445.978 18.3759 445.764 18.8039C444.909 19.8729 444.053 20.5149 443.198 20.5149C442.556 20.5149 441.914 20.087 441.273 19.446C441.059 19.232 440.417 19.8729 440.203 20.0869C441.059 20.7289 441.059 21.584 441.059 22.44V24.1509C441.059 24.7929 441.059 25.221 441.486 25.648C442.342 26.932 440.203 28.429 442.128 29.07C441.7 30.354 441.274 31.637 440.632 32.92C439.99 33.776 439.562 34.418 440.632 35.273L441.914 40.8339C441.273 41.2619 441.059 41.904 441.059 42.545C441.059 42.973 441.273 43.6149 441.7 44.2569C442.128 45.3259 441.059 46.6089 442.342 47.4649C442.984 47.8929 443.198 49.1759 443.198 50.0309C443.411 51.7429 443.198 53.8809 443.411 55.5929L442.556 59.0149C442.77 59.6559 442.342 59.4429 442.342 60.0839C442.342 62.0089 442.128 59.6559 442.128 62.0089C442.128 60.7259 441.914 67.7839 441.914 66.2869C441.914 66.5009 441.914 66.5009 441.7 66.5009C441.273 66.7149 442.128 67.9979 442.128 68.4259C442.128 68.6399 442.128 68.6399 441.914 68.6399C441.486 68.4259 440.845 69.281 441.7 70.565C442.342 71.634 442.556 72.918 442.556 74.201C442.556 75.27 442.556 76.126 442.128 77.195C441.486 80.19 442.984 82.9699 443.411 85.7509C443.625 88.5309 443.411 90.884 443.839 93.451C444.267 96.017 445.122 98.1559 445.764 100.509C445.978 101.792 446.62 102.434 447.475 102.434C447.689 102.434 448.118 102.434 448.546 102.006C449.187 101.578 449.828 101.365 450.47 101.365C451.325 101.365 452.395 102.006 453.464 102.22C455.175 102.434 457.314 101.365 459.025 101.365C459.453 101.365 460.309 101.578 460.522 101.792C460.95 102.862 461.592 103.076 462.02 103.076C462.661 103.076 463.303 102.648 463.945 102.434C464.372 102.22 465.228 101.151 465.656 101.151C466.084 101.151 466.297 101.578 466.297 102.862C466.297 103.076 466.725 103.29 466.939 103.29C470.361 101.365 474.212 100.509 477.848 99.226C481.271 97.942 484.906 96.6589 488.542 95.1619C490.467 94.3059 492.819 93.8789 494.103 92.1669C495.386 90.4559 497.098 89.6009 498.809 88.5309C500.093 87.4619 500.519 85.1089 502.444 85.1089H503.086C503.3 85.1089 503.514 84.4669 503.728 84.4669C505.439 81.2589 507.578 78.2649 509.289 75.2699C509.931 73.9869 510.144 72.276 510.786 70.779ZM533.672 71.42C533.458 71.206 534.314 70.1369 534.314 69.4949C534.528 68.2119 535.383 66.9289 535.383 65.4309C535.383 64.7899 535.169 64.1479 534.742 63.5059C534.1 62.2229 534.955 60.0839 535.597 58.8009C536.239 57.3039 537.094 56.0199 537.094 54.3089V53.4539C536.453 50.0309 537.736 46.8229 539.661 44.4699C542.441 40.8339 543.511 36.129 546.719 32.92C549.928 29.712 553.136 26.2899 556.558 23.2959C559.553 20.5149 563.189 18.3759 566.611 15.8089C567.252 15.3819 567.68 14.9539 568.322 14.9539H568.536C571.958 15.5959 574.311 13.4569 577.091 12.3869C578.375 11.7459 579.444 11.3179 580.727 11.1039C583.936 11.1039 586.716 11.532 589.925 10.248C592.063 9.39296 594.844 9.60688 597.411 8.96488C598.266 8.75088 599.977 8.96497 600.619 9.60697C601.902 10.89 603.186 11.3179 604.469 11.3179C605.538 11.3179 606.822 11.1039 607.891 10.4619C608.319 10.2479 609.175 9.82097 609.602 10.034C610.244 10.462 611.1 10.6759 611.741 10.6759C613.238 10.6759 614.736 10.034 616.233 9.82096C617.302 9.60696 617.088 10.6759 617.088 11.5319C617.088 11.9589 617.302 12.1729 617.516 12.1729C617.73 12.1729 618.158 11.9589 618.586 11.7459C619.441 11.3179 620.724 11.3179 622.008 11.3179C622.649 11.3179 623.719 11.1039 624.147 11.5319C627.783 14.5259 631.419 17.5209 634.413 20.9429C635.055 21.5839 636.124 22.8679 636.124 24.1509C636.124 24.7929 635.911 25.648 635.269 26.29C636.338 27.787 637.408 29.4979 638.691 30.5679C640.616 32.2789 639.333 34.4179 640.402 36.1289C641.258 37.6259 642.969 38.6949 643.824 40.6199C645.322 44.0429 646.177 48.1069 649.172 50.8869C649.599 51.5289 649.385 52.8119 649.599 53.2399C648.958 56.4479 648.744 59.4429 648.102 62.0089C647.888 63.7199 646.391 59.8699 645.963 62.4369C645.749 63.2929 645.749 64.3619 645.963 65.4309C646.177 66.2869 647.033 67.3559 647.033 68.2119V68.4259C646.605 69.0679 646.391 69.4949 646.391 70.1369C646.391 71.2059 647.247 72.0619 647.674 73.1309C647.674 73.5589 647.888 74.2009 647.674 74.4149C647.247 76.7669 646.819 79.1199 646.605 81.4729C646.177 83.3979 644.68 85.3229 644.68 87.4619V88.3169C643.61 88.3169 642.327 87.462 642.113 89.601C641.899 90.884 640.83 92.167 639.974 93.023C638.691 94.092 638.691 95.162 638.691 96.659C638.691 97.301 638.691 97.301 637.408 96.659C637.194 96.445 636.552 96.659 636.338 96.873C635.483 98.37 634.841 100.081 633.986 101.792C633.344 102.862 632.702 103.717 632.061 104.573C631.205 105.642 630.563 105.642 629.922 104.573L629.494 104.787C630.136 108.637 625.216 107.781 624.361 110.776C623.933 112.273 621.58 113.128 619.869 113.984C617.516 115.267 614.736 115.909 612.597 118.048C612.169 118.476 611.527 118.69 610.886 118.69H610.458C608.319 118.476 607.036 119.331 605.538 121.256C604.255 122.967 601.902 123.609 599.55 123.609C598.908 123.609 598.266 123.395 597.625 123.395C596.341 123.181 595.272 121.898 593.988 121.256C593.347 122.326 592.491 122.539 591.636 122.539C590.994 122.539 590.352 122.326 589.711 122.326C588.641 122.326 587.786 121.898 586.93 121.47C583.722 119.973 579.872 120.615 576.877 118.69C576.022 119.545 575.166 119.973 574.311 119.973C573.027 119.973 571.53 119.331 570.247 119.331C569.391 119.331 568.75 119.331 568.108 119.973C567.466 120.401 565.755 120.401 565.755 118.476V118.262C563.189 117.192 561.905 115.267 561.05 112.701C560.622 111.417 558.911 110.776 558.269 110.776C558.055 110.776 557.841 110.99 557.841 110.99C557.2 111.631 556.558 111.845 556.13 111.845C554.847 111.845 554.205 110.562 553.991 109.92C553.35 106.712 550.997 106.07 548.858 105.001C547.575 104.359 546.505 103.931 546.505 102.648C546.505 102.434 546.505 102.22 546.719 101.792C546.933 101.151 546.719 100.509 546.719 99.867C546.719 95.804 546.719 95.8039 542.228 94.9479C540.73 94.5199 539.661 93.6649 539.447 91.9539C539.233 90.0289 538.805 88.3169 536.667 87.6759C536.239 87.4619 536.025 86.1789 536.239 85.7509C536.88 84.6809 537.308 83.8259 537.308 82.7559C537.308 81.6869 536.667 80.6169 535.597 79.5479C535.169 79.1199 534.955 78.265 534.742 77.623C534.314 75.484 535.597 73.345 533.672 71.42ZM573.669 20.9429C573.455 21.1569 573.027 21.7979 572.6 21.7979C569.391 21.5839 568.75 26.076 565.327 25.648C561.05 29.07 556.772 32.7069 553.991 37.4119C550.569 43.4009 548.003 49.8179 547.789 57.0899C547.575 59.6559 548.216 62.2229 548.003 65.0039C548.003 65.6449 547.789 66.5009 547.789 67.3559C547.789 68.2119 548.003 69.0679 548.644 69.9229C550.355 71.8479 548.003 73.3449 548.003 74.8419V75.2699C548.003 75.4839 547.789 75.9119 548.003 75.9119C548.858 76.7669 548.858 77.6229 548.858 78.4789V79.5479C548.858 80.1899 549.072 80.8309 549.286 81.2589C550.141 82.5419 552.066 83.3979 553.35 84.2539C553.991 84.6809 554.633 85.1089 555.489 85.3229C556.558 85.9649 556.558 86.6059 555.703 87.4619C555.061 88.3169 554.847 88.9589 556.13 88.9589C557.628 88.7449 558.269 89.3869 558.911 90.8839C560.622 93.6649 561.691 97.3009 566.183 97.3009C566.825 97.3009 567.894 98.3699 567.894 98.7979C567.68 101.151 569.819 101.151 570.889 101.578C572.814 102.434 574.952 103.503 575.166 105.215C575.594 106.712 576.236 106.926 577.091 106.926H578.161L582.652 107.995C584.364 107.353 583.294 110.134 584.364 110.134C584.364 110.134 584.577 109.92 584.791 109.92C586.075 109.492 587.572 109.92 588.641 109.065C590.138 107.995 591.85 107.781 593.561 107.781C594.844 107.781 596.341 107.995 597.838 108.209C600.405 108.637 602.544 107.567 605.111 107.567C605.752 107.567 606.18 106.926 606.822 106.926H607.036C611.741 107.567 614.094 102.862 618.372 102.648C622.436 98.37 626.286 93.879 630.349 89.601C629.066 86.606 632.916 85.7509 632.916 82.9699C633.13 80.8309 635.269 78.6919 636.124 76.5539C636.552 75.0559 637.194 73.1309 637.194 71.6339C637.194 71.2059 637.194 70.5649 636.98 70.1369C635.269 66.5009 635.697 62.0089 633.13 58.5869C632.702 58.1589 632.702 57.5179 632.702 56.8759C632.702 56.2339 632.702 55.8059 632.916 55.3789C633.13 54.7369 633.344 54.0949 633.344 53.4539C633.344 53.0259 633.13 52.598 632.488 52.17C631.205 51.529 631.847 49.3899 630.136 49.3899H629.708C629.708 48.5339 629.494 47.8929 629.708 47.2509C629.922 46.6089 630.777 46.182 631.205 45.54C631.419 45.112 631.633 44.2569 631.419 44.0429C631.205 43.6149 629.922 43.4009 629.922 43.6149C628.852 44.8979 628.211 44.2569 627.355 43.4009C623.291 39.7649 619.227 35.915 615.163 32.493C614.308 31.851 612.811 32.0649 611.955 31.4229C611.1 30.9949 610.672 29.284 610.03 29.284C608.319 29.284 607.463 28.4289 606.608 27.3589C604.897 25.4339 602.33 23.9369 601.475 21.1569C601.047 20.0869 599.55 19.0179 598.48 18.5899C597.625 18.1619 596.341 19.232 595.272 19.446C593.347 19.446 591.636 19.0179 589.711 18.8039C589.069 18.8039 588.427 18.1619 588.213 18.3759C585.647 20.5149 582.225 19.4459 579.444 20.7289C578.375 21.1569 577.305 22.226 576.022 22.226C575.166 22.226 574.525 22.0119 573.669 20.9429ZM665.213 105.856L666.496 87.248C666.71 85.537 665.855 85.5369 664.571 84.8949C663.716 84.4669 663.288 84.0399 662.433 84.8949C661.791 85.5369 660.721 85.7509 660.08 86.3919C659.01 87.4619 658.583 87.4619 657.513 86.3919C655.802 84.6809 654.947 83.6119 654.947 82.7559C654.947 81.6869 655.802 80.6169 657.513 78.9059C659.866 76.7669 661.363 73.5589 664.571 72.7039C664.785 72.7039 665.213 72.0619 665.213 72.0619C664.785 71.4199 664.571 70.5649 664.571 69.9229C664.571 67.9979 665.641 66.073 665.641 64.148C665.641 63.079 665.213 62.009 664.144 60.94C663.93 60.726 664.358 59.8699 664.571 59.2289C664.999 57.9449 664.999 56.4479 665.855 55.5929C666.924 54.3089 665.213 53.8809 665.213 52.8119V52.5979C665.855 51.1009 666.069 49.1759 666.496 47.4649C666.71 45.9679 667.138 44.4699 667.138 42.9729C666.924 41.4759 667.138 40.407 667.78 39.123C667.78 38.909 667.352 38.268 667.138 38.268C665.427 37.84 664.999 37.1979 664.999 36.3429C664.999 35.2729 665.641 34.2039 665.855 33.1339C666.069 32.2789 666.496 31.2089 666.496 30.5679V30.3539C666.069 29.2839 664.571 28.6429 664.358 27.5729C664.144 26.9319 665.427 26.2899 665.427 25.4339C665.427 25.2209 665.213 24.7929 664.999 24.5789C664.571 24.1509 664.144 23.0819 664.144 23.0819C664.785 22.4399 664.999 21.7979 664.999 21.1569C664.999 20.3009 664.785 19.4459 664.785 18.8039V18.1619C664.999 17.3069 665.427 16.451 666.069 15.596C666.283 15.168 666.71 14.5259 667.352 14.3119C668.635 13.4569 670.133 12.3869 671.416 12.3869H671.844C672.699 12.3869 674.196 14.526 674.196 15.596C674.196 17.948 676.121 20.087 676.121 22.226C676.121 23.082 675.908 24.1509 675.052 25.0069C674.838 25.2209 675.052 26.2899 675.266 26.5039C676.763 27.7869 677.405 29.2839 677.405 30.9949C677.405 32.0649 677.191 33.1339 676.763 34.2039C676.549 35.2729 677.191 36.5569 677.191 37.8399C677.405 39.1229 677.405 40.62 677.191 42.118C676.977 43.829 678.474 44.4699 679.116 45.7539C679.33 46.1819 678.474 47.251 678.474 47.893C678.688 48.962 679.544 49.6039 679.544 50.4589V50.6729C679.33 53.0259 680.399 55.165 680.827 57.518C681.041 58.587 680.827 59.656 682.324 58.159C685.319 55.806 688.099 53.026 691.521 51.315C697.938 47.893 703.285 42.973 709.06 38.695C712.482 36.557 715.263 33.5619 718.685 31.4229C724.032 28.0009 729.166 24.3649 734.085 20.7289C736.866 18.8039 739.432 16.6649 741.999 14.7399C744.566 13.0289 746.918 11.104 749.485 9.60697C754.832 6.61197 759.11 1.69296 765.527 0.195957C768.307 -0.446043 770.66 0.622916 772.799 1.47892C774.51 2.33392 775.152 3.18994 775.152 4.25894C775.152 5.11494 774.51 6.18394 773.013 7.25394C771.729 8.32294 770.446 9.17893 770.446 10.8899V11.7459C770.446 12.1729 769.59 13.029 769.163 13.029C765.313 14.098 764.671 14.7399 761.677 17.9479C758.254 21.3709 753.977 23.723 749.699 25.648C746.918 26.718 744.138 27.7869 741.785 29.9259C739.86 31.6369 737.507 33.5619 735.154 33.9899C732.16 34.6319 730.021 36.3429 727.882 38.0539C721.68 42.1179 715.477 46.1819 709.488 50.4589C709.06 50.6729 708.418 50.6729 708.418 50.8869C708.632 56.0199 703.927 56.02 701.36 58.159C700.505 58.801 700.077 59.6559 700.077 60.5119C700.077 61.1539 700.505 61.7949 701.574 62.4369C702.857 63.2929 704.782 63.293 705.424 64.362C706.066 65.645 706.707 66.7149 707.991 66.7149C708.205 66.7149 708.418 66.7149 708.846 66.5009C709.488 69.7089 713.124 68.64 714.621 71.206C716.118 73.345 718.043 75.484 719.541 77.623C720.182 78.479 720.182 79.548 720.182 80.404C720.396 81.901 720.611 82.7559 721.253 82.7559C721.681 82.7559 722.107 82.5419 722.963 81.9009C723.605 81.4729 725.743 81.4729 726.171 82.1149C727.455 84.0399 729.807 83.1839 731.091 84.6809C731.946 85.9649 732.802 87.6759 733.229 89.1729C734.085 93.2369 737.721 93.6649 740.288 94.7339C744.138 96.2309 750.127 98.1559 751.196 100.723C751.838 102.22 754.191 103.076 754.191 105.001C754.191 105.428 754.191 105.856 753.763 106.498C755.688 107.353 756.329 109.278 756.757 111.203C758.254 111.417 758.682 111.845 758.682 112.273C758.682 112.701 758.04 113.342 757.399 114.198C756.329 115.481 755.26 116.978 754.618 118.476C753.763 119.973 751.196 119.331 750.982 121.898C750.982 122.539 749.271 123.395 748.202 123.609C746.704 124.037 744.138 122.539 743.924 125.748C742.854 125.962 741.572 126.176 740.503 126.176C739.861 126.176 739.218 126.176 738.791 125.748C737.507 125.106 736.224 124.892 734.941 124.892C733.657 124.892 733.443 124.251 733.443 123.609V122.967C733.871 121.042 733.443 119.759 731.732 119.759C731.518 119.759 731.091 119.759 730.663 119.973H728.31L727.668 119.117C727.882 119.117 728.31 118.903 728.524 118.69L729.807 117.192C729.166 116.765 728.952 116.337 728.31 116.337H728.096C726.171 116.551 724.46 115.909 724.032 113.77C723.177 111.203 719.327 110.348 720.182 106.712C720.182 106.712 719.541 106.284 719.113 106.284C717.616 105.642 715.263 105.642 714.621 104.573C713.766 102.862 713.124 101.792 711.199 101.151C708.418 100.081 708.846 96.4449 707.135 94.0919C706.494 93.2369 707.991 92.5949 707.991 92.1669C707.991 91.9539 707.991 91.7399 707.563 91.5259C707.135 91.0979 705.638 92.8089 705.21 92.5949C703.071 91.0979 700.719 89.6009 698.794 87.8899C697.51 86.8199 696.655 85.323 695.799 83.826C694.73 82.329 693.232 81.6869 692.591 79.5479C692.163 78.6919 690.024 77.8369 688.527 77.8369H688.099C685.96 78.0509 685.532 77.1949 685.532 76.1259C685.532 75.6979 685.746 75.0559 685.746 74.4149C685.746 73.5589 686.602 72.9179 686.602 72.2759C686.602 71.6339 685.746 71.206 685.319 70.565C685.105 70.779 684.891 71.206 684.463 71.42C682.966 72.276 684.249 75.0559 681.683 75.4839C680.827 75.6979 680.613 76.554 680.613 77.623C680.613 78.265 680.827 79.1199 681.041 79.5479C681.896 80.6169 682.11 81.4729 682.11 82.3289C682.11 83.1839 681.896 84.0399 681.469 85.1089C681.255 85.9649 681.896 87.0339 681.896 87.8899V88.1039C681.683 90.2419 682.966 91.312 683.821 93.023C684.463 93.665 683.394 95.59 683.394 96.445V96.873C684.677 98.584 685.319 100.081 685.319 101.578C685.319 103.076 684.677 104.359 683.394 105.642C683.18 105.856 683.18 106.498 683.18 106.926C684.249 108.423 684.463 109.706 684.463 110.99C684.463 114.626 681.255 117.834 680.613 121.47C680.613 122.539 678.26 123.181 677.405 124.251C675.694 125.962 675.052 123.823 673.769 123.609H673.341L666.71 122.112C666.283 119.117 665.641 116.337 665.427 113.342C665.213 110.776 665.213 108.423 665.213 105.856ZM800.818 19.446C800.176 22.226 801.888 26.2899 799.535 29.7119C799.321 29.9259 800.39 30.9949 800.39 31.6369C800.39 32.7069 801.032 34.4179 798.893 34.4179C798.679 34.4179 798.251 35.7009 797.824 36.1289C800.39 37.1979 796.968 39.1229 798.251 40.6199C799.107 42.1179 798.679 44.6839 799.107 46.6089C799.321 48.1069 800.39 49.818 800.818 51.315C801.46 53.668 799.749 56.02 801.888 57.945C801.674 58.801 801.46 59.87 801.46 60.726C801.46 64.148 803.385 67.57 804.026 70.779C804.668 74.415 805.31 78.6919 808.518 81.4729C810.657 82.9699 810.229 85.7509 811.299 87.8899C811.94 88.9589 810.657 89.1729 809.587 89.1729C808.946 89.1729 808.518 89.601 807.876 89.815C808.304 90.029 808.518 90.6699 808.946 91.0979C809.801 91.7399 810.443 91.9539 811.299 92.3809C812.582 93.2369 812.368 92.1669 812.582 91.5259C813.01 90.4559 813.224 90.2419 813.865 91.7399C813.865 92.1669 813.437 93.6649 814.507 92.8089C815.362 92.1669 816.004 91.9539 816.646 91.9539C817.074 91.9539 817.715 92.1669 818.143 92.5949C820.068 94.3059 823.276 94.0919 824.132 97.3009C824.56 99.2259 825.415 100.081 826.699 100.081C827.34 100.081 827.768 99.8669 828.41 99.6529C828.837 99.4399 829.479 99.012 829.693 99.44C830.548 100.295 831.19 100.509 832.046 100.509C833.757 100.509 835.469 98.7979 837.18 98.5839C839.747 98.3699 842.098 96.4449 843.596 93.8789C845.521 90.4559 848.515 87.4619 849.371 83.1839C853.007 78.9059 851.723 72.062 855.359 67.57C855.787 66.929 856.001 65.6449 855.573 65.0039C854.718 63.9339 854.504 62.651 854.504 61.368C854.504 59.656 854.932 57.9449 854.718 56.2339C854.504 51.7429 854.076 47.2509 854.076 42.9729C854.076 41.4759 854.076 39.765 854.29 38.268C854.932 31.423 856.001 25.0069 858.14 18.5899C859.209 15.8089 861.348 14.3119 862.204 11.9589C862.632 11.1039 864.129 10.4619 864.984 10.4619C866.054 10.2479 867.337 10.8899 868.621 11.3179C868.834 11.5319 869.048 12.173 869.048 12.601C868.834 17.307 869.476 22.0119 870.973 26.5039C871.401 27.1449 871.187 28.215 871.187 28.857C870.973 31.209 870.546 33.776 870.546 35.915C870.546 36.984 870.546 38.054 870.973 38.909C871.401 39.765 871.401 40.62 871.401 41.69V43.4009C871.401 44.8979 871.615 46.3949 872.898 47.4649C870.332 48.7479 874.609 51.3149 871.615 52.5979C871.401 52.5979 871.401 53.6679 871.615 54.0949C871.829 55.8059 872.471 57.09 873.112 58.373C873.326 59.229 872.898 59.87 872.898 60.726C872.898 60.94 872.898 61.368 873.326 61.795C874.182 62.651 874.182 64.7899 874.396 66.0729C874.609 67.5699 873.968 69.0679 875.037 70.1369C875.465 70.9929 875.251 71.8479 875.251 72.7039C875.251 75.2699 874.609 77.623 876.321 79.976C876.962 81.045 875.251 82.1149 875.251 83.1839C875.251 83.6119 875.465 84.0399 876.107 84.4669C876.534 90.4559 877.818 95.8039 878.887 101.578C879.101 102.006 879.102 102.862 879.102 103.503C879.102 104.573 878.887 105.428 878.459 106.284C878.032 107.567 875.679 107.995 875.465 109.278C875.251 110.348 876.321 111.417 876.321 113.128V113.77C875.893 115.267 875.465 117.406 873.754 117.834C872.471 118.262 872.471 119.117 872.471 120.187C872.471 122.967 871.401 120.401 870.759 120.615C869.904 120.828 868.834 121.256 867.765 121.256C866.909 121.256 866.054 120.828 865.412 118.903C865.198 117.192 863.059 116.123 863.059 114.198C863.059 113.77 863.059 113.556 863.273 113.128C863.487 112.487 862.632 112.059 862.632 111.203V110.99C862.204 107.781 860.921 105.001 861.348 101.792C861.562 100.081 861.562 98.5839 860.279 97.5149C859.423 96.6589 859.423 94.7339 858.782 93.6649C858.568 93.2369 858.14 92.8089 857.926 92.1669C857.498 92.8089 857.071 93.2369 857.071 93.8789C856.001 97.3009 856.429 102.006 852.793 104.573C852.579 104.787 851.723 105.001 851.723 105.428C851.723 111.417 847.873 112.487 843.596 113.984C842.74 113.984 841.457 113.984 840.815 116.123C839.532 119.331 836.11 121.042 833.543 121.256C832.687 121.47 831.618 120.828 830.762 120.401C830.121 123.609 827.982 122.539 826.271 122.967C823.49 122.967 821.351 122.326 820.282 118.903C820.068 118.476 819.64 117.62 819.212 117.62C818.785 117.62 818.571 118.048 818.357 119.117C818.357 119.331 816.86 119.759 816.646 119.545C814.935 118.262 813.437 116.978 811.299 116.978C810.871 116.978 810.871 116.551 810.657 116.337C809.801 114.84 809.16 112.915 808.09 111.631C807.235 110.776 805.951 110.134 805.951 108.423V107.567C805.951 106.284 804.882 107.353 804.454 107.781C803.385 108.637 802.744 109.278 802.102 109.278C801.461 109.278 801.032 108.637 800.604 107.567C799.107 103.29 796.968 99.6529 793.118 97.3009C792.263 96.8729 792.263 94.948 791.621 93.451C791.407 92.809 790.338 92.3809 790.338 91.7399C790.338 91.5259 790.551 91.098 791.193 90.456C791.407 90.456 790.979 88.7449 790.551 88.7449C789.482 88.5309 789.268 88.104 789.268 87.248V86.3919C789.482 85.5369 790.124 84.8949 790.551 84.0399C789.696 83.8259 789.054 83.6119 788.413 83.1839C788.199 82.5419 787.985 81.4729 788.199 81.2589C789.268 79.9759 789.482 78.9059 789.482 77.8369C789.482 75.6979 788.413 73.7729 787.771 71.8479C787.557 70.3509 787.557 67.3559 787.557 65.4309C787.343 62.8649 787.985 60.2979 787.985 57.7309C787.985 56.4479 787.771 55.1649 787.129 53.6679C786.915 53.4539 786.701 53.0259 786.915 52.5979C788.199 50.0309 788.413 47.2509 788.413 44.4699V38.0539C788.413 33.7759 789.482 29.926 790.338 25.862C790.551 25.007 790.765 24.3649 790.765 23.2959C790.765 22.8679 790.765 22.4399 790.551 21.7979C790.124 20.9429 792.05 19.0179 792.477 17.0929C792.905 16.2369 792.904 15.1679 792.904 14.3119V12.1729C793.332 9.60688 794.615 8.32293 796.754 7.46793C797.61 7.25393 798.038 6.18388 798.465 5.54288C799.535 6.82588 801.246 7.46798 801.246 9.39298V9.82096C801.032 12.815 801.032 15.809 800.818 19.446Z" fill="#E20612"/>
</svg>
