<svg width="1562" height="369" viewBox="0 0 1562 369" fill="none" xmlns="http://www.w3.org/2000/svg">
<path d="M96.5 369C34.5 369 0 326.5 0 269V95H80.5V261C80.5 285 95 300 117 300C153 300 162 269.5 162 234.5V95H242.5V362H174L171 323C159 353 126 369 96.5 369Z" fill="#F2712C"/>
<path d="M304.258 362V95H374.258L378.258 134C388.258 106.5 415.258 88 451.258 88C504.258 88 516.258 118 523.258 132C535.758 103.5 565.258 88 597.258 88C657.258 88 688.758 128.5 688.758 185V362H609.758V195.5C609.758 170 597.258 158 575.758 158C548.758 158 535.258 184.5 535.258 210.5V362H457.258V195.5C457.258 170 445.758 158 424.258 158C398.258 158 383.758 182 383.758 210V362H304.258Z" fill="#F2712C"/>
<path d="M828.605 369C767.105 369 733.105 328.5 733.105 286C733.105 234 773.105 205 827.105 199.5L894.105 193.5V181.5C894.105 164 888.105 145.5 854.605 145.5C831.105 145.5 815.105 159 814.605 179.5H741.605C744.105 127.5 786.605 88 857.105 88C918.605 88 971.605 113.5 971.605 196.5V285.5C971.605 299 979.105 302.5 988.605 302.5C991.105 302.5 993.105 302.5 996.605 302V359C988.105 363.5 975.605 366.5 962.105 366.5C934.605 366.5 911.105 352.5 905.605 326.5C891.105 354.5 860.605 369 828.605 369ZM841.105 309.5C882.605 309.5 894.105 282.5 894.105 255V246.5L840.105 251C820.605 252.5 809.105 263.5 809.105 279.5C809.105 297.5 823.105 309.5 841.105 309.5Z" fill="#F2712C"/>
<path d="M1036.19 362V95H1106.19L1110.19 134C1120.19 106.5 1147.19 88 1183.19 88C1236.19 88 1248.19 118 1255.19 132C1267.69 103.5 1297.19 88 1329.19 88C1389.19 88 1420.69 128.5 1420.69 185V362H1341.69V195.5C1341.69 170 1329.19 158 1307.69 158C1280.69 158 1267.19 184.5 1267.19 210.5V362H1189.19V195.5C1189.19 170 1177.69 158 1156.19 158C1130.19 158 1115.69 182 1115.69 210V362H1036.19Z" fill="#F2712C"/>
<path d="M1480.04 95H1560.54V362H1480.04V95ZM1479.54 0H1561.04V66.5H1479.54V0Z" fill="#F2712C"/>
</svg>
