<svg width="385" height="385" viewBox="0 0 385 385" fill="none" xmlns="http://www.w3.org/2000/svg">
<rect width="385" height="385" fill="#2F2C28"/>
<path d="M280.595 91.0337C280.169 91.8018 279.785 93.0393 279.445 94.7462C279.104 96.4531 278.721 98.4161 278.295 100.635C277.954 102.769 277.443 105.073 276.762 107.548C276.165 110.023 275.356 112.455 274.334 114.845C273.397 116.808 272.375 119.667 271.268 123.422L269.479 129.951C268.798 132.085 268.031 134.304 267.179 136.608C266.413 138.912 265.092 142.028 263.218 145.953C262.878 146.38 262.707 146.722 262.707 146.978C262.793 147.148 262.75 147.49 262.58 148.002L261.046 155.555C260.621 157.432 260.109 159.267 259.513 161.06C258.917 162.766 258.491 164.516 258.236 166.308L256.958 170.789C256.617 171.557 256.362 172.325 256.191 173.093C256.106 173.776 256.064 174.672 256.064 175.782V177.062C255.382 179.451 254.658 181.713 253.892 183.847C253.21 185.98 251.932 188.157 250.059 190.376L248.014 192.68H248.27C247.844 193.107 247.461 193.661 247.12 194.344C246.864 194.942 246.737 195.966 246.737 197.417C246.055 198.526 245.076 199.849 243.798 201.385C242.606 202.836 241.669 204.031 240.987 204.97L240.221 207.914L237.026 214.955L237.282 214.699L236.004 217.259C235.749 218.027 235.578 218.753 235.493 219.436C235.408 220.033 235.28 220.801 235.11 221.74C235.025 222.679 234.812 223.874 234.471 225.325C234.13 226.775 233.534 228.653 232.682 230.957C232.427 231.469 232.171 232.109 231.916 232.878C231.66 233.646 231.447 234.371 231.277 235.054L229.488 242.351C229.318 242.948 228.892 243.844 228.211 245.039C227.614 246.234 226.933 247.429 226.166 248.624L226.422 248.368C226.166 248.88 225.868 249.861 225.527 251.312C225.272 252.763 224.931 254.47 224.505 256.433C224.165 258.396 223.696 260.529 223.1 262.834C222.589 265.053 221.95 267.229 221.183 269.363C220.672 270.643 220.204 272.179 219.778 273.971C219.352 275.678 218.926 277.513 218.5 279.476L218.756 279.22L217.223 284.981V284.725L216.456 287.669C216.201 288.608 216.03 290.102 215.945 292.15C215.945 294.284 215.604 296.46 214.923 298.679C214.241 300.898 213.006 302.818 211.218 304.44C209.514 306.147 206.831 307 203.168 307C201.209 307 199.378 306.573 197.675 305.72L192.947 303.031H193.203C189.285 301.239 186.176 299.276 183.876 297.143C181.661 295.094 179.83 292.961 178.382 290.742L178.637 290.998C178.126 290.315 177.658 289.547 177.232 288.693C176.806 287.925 176.593 287.328 176.593 286.901C176.593 285.024 176.764 283.189 177.104 281.396C177.445 279.604 177.828 277.769 178.254 275.892C178.68 273.929 179.063 271.923 179.404 269.875C179.745 267.826 179.915 265.65 179.915 263.346V261.426C179.915 260.657 180 259.633 180.171 258.353C180.426 256.988 180.767 255.75 181.193 254.641C181.193 254.385 181.193 254.086 181.193 253.745C181.193 253.403 181.108 253.019 180.937 252.592L181.448 253.104C181.278 252.763 181.108 252.464 180.937 252.208C180.852 251.867 180.724 251.568 180.554 251.312L180.171 250.544C180.426 249.861 180.554 249.264 180.554 248.752C180.639 248.154 180.682 247.514 180.682 246.832C180.682 245.551 180.596 243.93 180.426 241.967C180.256 240.004 180.043 237.87 179.787 235.566C179.532 233.176 179.319 230.787 179.148 228.397C178.978 225.922 178.893 223.618 178.893 221.484L179.532 209.962C179.361 211.243 179.021 213.248 178.51 215.979C177.999 218.625 177.445 221.271 176.849 223.916C176.338 226.562 175.869 228.866 175.443 230.829C175.017 232.792 174.847 233.688 174.932 233.518C174.336 234.713 173.91 236.121 173.655 237.742L171.61 245.295C171.355 246.063 170.844 247.301 170.077 249.008C169.31 250.629 168.331 253.062 167.138 256.305L167.394 256.049C166.713 258.182 165.903 260.401 164.966 262.706C164.115 264.925 162.922 266.973 161.389 268.851C159.941 270.643 158.025 272.136 155.64 273.331C153.34 274.526 150.401 275.124 146.824 275.124C143.587 275.124 140.095 274.483 136.347 273.203C132.599 271.923 128.681 269.491 124.592 265.906H124.848C122.974 264.285 122.037 262.791 122.037 261.426C122.037 260.401 122.293 259.548 122.804 258.865C123.315 258.097 123.57 257.329 123.57 256.561C123.57 256.305 123.528 256.049 123.443 255.793C123.357 255.537 123.315 255.238 123.315 254.897L123.826 255.537C123.655 255.195 123.485 254.854 123.315 254.513C123.23 254.171 123.102 253.915 122.931 253.745C122.761 253.488 122.633 253.275 122.548 253.104C122.804 252.422 122.931 251.824 122.931 251.312C123.017 250.8 123.059 250.203 123.059 249.52C123.059 247.984 122.974 246.191 122.804 244.143C122.633 242.01 122.42 239.791 122.165 237.486C121.909 235.182 121.696 232.878 121.526 230.573C121.356 228.269 121.271 226.093 121.271 224.044V217.003C121.271 213.163 121.1 210.048 120.759 207.658C120.419 205.268 120.248 203.689 120.248 202.921V200.105C120.248 195.496 119.95 190.76 119.354 185.895C118.843 180.945 118.587 175.91 118.587 170.789C118.587 165.668 118.247 160.633 117.565 155.683C116.969 150.733 116.117 145.825 115.01 140.961C113.988 136.096 112.838 131.317 111.56 126.623C110.283 121.843 109.005 117.149 107.727 112.541C107.216 110.578 106.748 108.316 106.322 105.756C105.981 103.11 105.64 100.635 105.3 98.3307C104.959 95.941 104.661 93.8927 104.405 92.1858C104.15 90.4789 103.852 89.4975 103.511 89.2414C103.17 89.0707 103 88.644 103 87.9613C103 87.2785 103.298 86.6384 103.894 86.041C104.405 85.3582 105.129 84.7608 106.066 84.2487C107.003 83.7367 108.068 83.3099 109.261 82.9686C110.453 82.6272 111.645 82.4565 112.838 82.4565C113.605 82.4565 114.456 82.5845 115.393 82.8405C116.415 83.0112 117.395 83.3099 118.332 83.7367C119.269 84.078 120.121 84.5048 120.887 85.0168C121.739 85.4436 122.378 85.9556 122.804 86.5531L123.059 86.8091C123.826 89.7108 124.465 92.3139 124.976 94.6182C125.572 96.8372 126.126 98.9281 126.637 100.891C127.148 102.854 127.616 104.689 128.042 106.396C128.553 108.103 129.149 109.852 129.831 111.645V111.389C131.108 115.912 132.471 120.307 133.919 124.574C135.453 128.842 136.602 133.109 137.369 137.376V136.992L139.797 144.929C140.478 147.234 140.989 149.41 141.33 151.458C141.756 153.506 142.054 155.299 142.224 156.835C142.394 158.371 142.48 159.609 142.48 160.547C142.565 161.401 142.693 161.828 142.863 161.828C143.118 162.937 143.331 163.919 143.502 164.772C143.757 165.625 143.885 166.138 143.885 166.308C143.374 167.588 143.118 168.655 143.118 169.509C143.118 169.679 143.161 169.807 143.246 169.893C143.246 169.978 143.289 170.021 143.374 170.021H143.118C143.715 171.984 144.098 173.605 144.268 174.885C144.524 176.08 144.652 177.19 144.652 178.214C144.737 179.153 144.779 180.177 144.779 181.286C144.865 182.31 145.035 183.591 145.291 185.127V190.376C145.291 191.57 145.333 192.637 145.418 193.576C145.503 194.515 145.546 195.368 145.546 196.136C145.546 197.673 145.461 199.593 145.291 201.897C145.12 204.116 145.035 206.549 145.035 209.194C145.035 211.072 145.078 212.907 145.163 214.699C145.333 216.491 145.631 218.326 146.057 220.204L149.379 209.45C149.805 207.999 150.444 206.463 151.296 204.842C152.147 203.135 152.829 200.916 153.34 198.185V198.697C154.447 196.649 155.469 194.558 156.406 192.424C157.173 190.632 157.897 188.754 158.578 186.791C159.26 184.828 159.6 182.993 159.6 181.286L160.878 177.062C161.645 175.782 162.198 174.459 162.539 173.093C162.88 171.728 163.22 170.405 163.561 169.125C163.987 167.759 164.541 166.394 165.222 165.028C165.903 163.663 166.968 162.34 168.416 161.06L167.65 161.316C168.416 160.206 168.885 159.353 169.055 158.755C169.31 158.072 169.566 157.347 169.822 156.579C170.077 155.811 170.46 154.915 170.971 153.891C171.483 152.866 172.377 151.415 173.655 149.538L174.166 148.002C177.488 140.747 180.128 134.73 182.087 129.951C184.046 125.086 185.75 121.203 187.198 118.302C188.731 115.4 190.222 113.351 191.67 112.157C193.118 110.962 195.034 110.364 197.419 110.364C199.123 110.364 200.698 110.962 202.146 112.157C203.594 113.351 204.829 114.93 205.852 116.893C206.874 118.771 207.683 120.905 208.279 123.294C208.875 125.684 209.173 128.074 209.173 130.463C209.173 133.792 208.961 136.565 208.535 138.784C208.194 140.918 207.768 142.71 207.257 144.161C206.831 145.612 206.363 146.807 205.852 147.746C205.426 148.684 205.128 149.581 204.957 150.434H205.213C205.042 151.202 204.872 151.757 204.702 152.098C204.531 152.44 204.361 152.994 204.191 153.762L201.124 166.82V168.741C201.72 170.362 202.104 171.77 202.274 172.965C202.444 174.16 202.53 175.27 202.53 176.294C202.53 177.318 202.53 178.342 202.53 179.366C202.53 180.305 202.657 181.372 202.913 182.567V188.071C202.913 189.095 202.956 190.077 203.041 191.016C203.126 191.869 203.168 192.723 203.168 193.576C203.168 195.539 203.041 198.398 202.785 202.153C202.53 205.908 202.402 209.834 202.402 213.931C202.402 216.15 202.444 218.326 202.53 220.46C202.7 222.508 202.998 224.343 203.424 225.965L207.129 207.146C207.385 205.524 207.938 203.946 208.79 202.409C209.727 200.788 210.451 198.526 210.962 195.624V196.136C211.133 196.136 211.558 195.496 212.24 194.216C212.921 192.851 213.603 191.272 214.284 189.48C215.051 187.602 215.732 185.682 216.328 183.719C216.925 181.67 217.223 179.963 217.223 178.598L218.5 174.757C219.267 173.392 219.821 172.026 220.161 170.661C220.502 169.295 220.885 167.972 221.311 166.692C221.822 165.327 222.419 163.961 223.1 162.596C223.781 161.23 224.803 159.865 226.166 158.499L225.272 158.755C226.039 157.731 226.507 156.92 226.677 156.323C226.933 155.725 227.188 155.085 227.444 154.403C227.7 153.72 228.083 152.824 228.594 151.714C229.19 150.605 230.17 149.026 231.532 146.978L230.766 147.49L232.171 144.161C232.342 143.82 232.555 143.478 232.81 143.137C232.98 142.796 233.151 142.454 233.321 142.113C233.577 141.771 233.79 141.387 233.96 140.961L233.704 141.217L239.454 125.342C239.284 123.38 239.752 121.374 240.859 119.326C241.967 117.192 243.031 114.802 244.054 112.157L245.459 109.084C245.885 107.804 246.438 106.31 247.12 104.604C247.801 102.897 248.611 101.062 249.547 99.0988L251.719 94.4902C251.975 93.8928 252.699 92.8686 253.892 91.4177C255.084 89.9669 256.276 88.516 257.469 87.0651L261.302 84.2487H261.046C261.217 84.078 261.387 83.8647 261.557 83.6086C261.813 83.2673 262.367 82.4138 263.218 81.0483L262.324 81.6884C262.58 80.7496 263.261 80.0668 264.368 79.6401C265.561 79.2134 266.881 79 268.329 79C272.332 79 275.441 79.8535 277.656 81.5604C279.956 83.1819 281.404 85.2302 282 87.7052L280.595 91.0337Z" fill="#FFFEF8"/>
</svg>
