<svg xmlns="http://www.w3.org/2000/svg" width="494" height="137" fill="none" viewBox="0 0 494 137"><path fill="#000" d="M95.477 10.954q-.344.617-.618 1.989-.273 1.371-.617 3.153a35 35 0 0 1-.822 3.703 24.5 24.5 0 0 1-1.303 3.907q-.754 1.578-1.645 4.594l-.96 3.497a84 84 0 0 1-1.234 3.565q-.618 1.85-2.126 5.005-.274.342-.274.548.069.137-.069.549l-.822 4.045a31 31 0 0 1-.823 2.948q-.48 1.37-.686 2.81l-.685 2.4q-.274.618-.412 1.234-.068.549-.068 1.44v.686a57 57 0 0 1-1.166 3.633q-.547 1.715-2.056 3.497l-1.097 1.234h.137a3.4 3.4 0 0 0-.617.891q-.206.48-.206 1.646-.549.891-1.577 2.125a42 42 0 0 0-1.508 1.92l-.412 1.577-1.714 3.77.138-.136-.686 1.37q-.206.618-.274 1.166-.07.48-.206 1.234-.069.754-.343 1.92-.275 1.166-.96 3.017a8 8 0 0 0-.411 1.028q-.205.617-.343 1.166l-.96 3.908q-.137.48-.685 1.44-.48.96-1.097 1.919l.137-.137q-.206.411-.48 1.577a72 72 0 0 1-.549 2.742 43 43 0 0 1-.754 3.428 31 31 0 0 1-1.028 3.497q-.412 1.028-.754 2.468a98 98 0 0 0-.686 2.948l.137-.137-.822 3.085v-.137l-.412 1.577q-.205.754-.274 2.399a11.9 11.9 0 0 1-.548 3.497q-.549 1.783-1.989 3.085-1.371 1.371-4.319 1.371a6.5 6.5 0 0 1-2.948-.685l-2.537-1.44h.137q-3.153-1.44-5.005-3.154-1.782-1.645-2.948-3.428l.137.137a8 8 0 0 1-.754-1.234q-.343-.617-.343-.96 0-1.508.275-2.948.274-1.439.617-2.948.342-1.576.617-3.222t.274-3.497v-1.028q0-.617.137-1.645.206-1.098.549-1.989v-.48q0-.273-.138-.617l.275.275a5 5 0 0 0-.275-.48 1.5 1.5 0 0 0-.205-.48l-.206-.412q.206-.547.206-.96.069-.48.068-1.028 0-1.028-.137-2.605a144 144 0 0 0-.343-3.428q-.205-1.92-.342-3.84a54 54 0 0 1-.137-3.702l.342-6.17q-.137 1.028-.548 3.222a140 140 0 0 1-.892 4.25q-.41 2.127-.754 3.703-.343 1.576-.274 1.44-.48.96-.685 2.262l-1.097 4.045q-.206.618-.823 1.989-.617 1.301-1.577 3.908l.137-.137a49 49 0 0 1-1.303 3.565 12 12 0 0 1-1.92 3.29q-1.165 1.44-3.085 2.4-1.85.96-4.73.96-2.605 0-5.622-1.028-3.017-1.03-6.308-3.908h.138q-1.509-1.304-1.509-2.4 0-.823.412-1.371.41-.618.41-1.234 0-.205-.068-.412a1.5 1.5 0 0 1-.068-.48l.274.343-.274-.548a.87.87 0 0 0-.206-.412 3 3 0 0 1-.206-.342q.206-.549.206-.96.069-.412.069-.96 0-1.235-.137-2.88a116 116 0 0 0-.343-3.565 101 101 0 0 1-.343-3.702 48 48 0 0 1-.137-3.497v-3.77q0-3.086-.274-5.005-.275-1.92-.275-2.537v-1.508q0-3.702-.48-7.61a79 79 0 0 1-.41-8.09q0-4.115-.55-8.09a77 77 0 0 0-1.37-7.885 135 135 0 0 0-1.852-7.679 847 847 0 0 0-2.057-7.542 42 42 0 0 1-.754-3.633 215 215 0 0 0-.548-3.977q-.274-1.92-.48-3.29Q.727 10.2.452 9.993.178 9.858.178 9.31t.48-1.029q.41-.547 1.165-.96a8.4 8.4 0 0 1 1.714-.685 7 7 0 0 1 1.92-.274q.617 0 1.371.205a6.3 6.3 0 0 1 1.577.48q.754.275 1.371.686.686.343 1.029.823l.137.137q.617 2.331 1.028 4.182.48 1.782.891 3.36a299 299 0 0 1 .755 2.948 41 41 0 0 0 .96 2.81v-.137a142 142 0 0 0 2.193 7.062 42.4 42.4 0 0 1 1.851 6.856v-.206l1.303 4.251q.549 1.851.823 3.497.342 1.646.48 2.88t.137 1.987q.069.687.206.686.205.891.342 1.577.206.685.206.823-.411 1.028-.411 1.714 0 .137.068.205 0 .069.069.069h-.137q.48 1.577.617 2.605.205.96.205 1.783.069.754.069 1.645.069.823.274 2.057v2.811q0 .96.069 1.714.068.754.068 1.371 0 1.234-.137 3.085a51 51 0 0 0-.137 3.908q0 1.51.069 2.948.137 1.44.48 2.949l1.782-5.76q.343-1.165 1.028-2.468.686-1.37 1.098-3.565v.275a46 46 0 0 0 1.645-3.36q.617-1.44 1.165-3.017.549-1.576.549-2.948l.685-2.262a7.8 7.8 0 0 0 .892-2.126q.274-1.096.548-2.125a15 15 0 0 1 .892-2.194q.548-1.097 1.714-2.125l-.412.137q.618-.891.754-1.371.207-.55.412-1.166.206-.616.617-1.44.411-.822 1.44-2.33l.274-.823q2.674-5.828 4.25-9.667 1.578-3.908 2.743-6.24 1.234-2.33 2.4-3.29t3.085-.96q1.371 0 2.536.96t1.989 2.537q.822 1.508 1.302 3.428t.48 3.839q0 2.674-.343 4.456-.273 1.715-.685 2.88-.343 1.166-.754 1.92a6.7 6.7 0 0 0-.48 1.44h.137q-.138.616-.274.89-.137.274-.275.892l-1.645 6.993v1.028q.48 1.303.617 2.263t.137 1.782v1.646q0 .754.206 1.714v2.948q0 .822.068 1.577.069.685.069 1.371 0 1.577-.206 4.594a93 93 0 0 0-.205 6.307q0 1.782.068 3.497.138 1.646.48 2.948l1.988-10.079a7.7 7.7 0 0 1 .892-2.536q.753-1.303 1.165-3.634v.274q.137 0 .686-1.028.548-1.097 1.097-2.537a35 35 0 0 0 1.097-3.085q.48-1.646.48-2.742l.685-2.057a9 9 0 0 0 .892-2.194q.273-1.097.616-2.126a23 23 0 0 1 .96-2.193q.55-1.098 1.646-2.194l-.48.137q.617-.823.754-1.303.206-.48.411-1.028.207-.549.617-1.44.48-.891 1.577-2.537l-.411.274.754-1.782q.137-.274.343-.549l.274-.548q.206-.275.343-.617l-.137.137L73.4 29.33q-.137-1.578.754-3.223a38 38 0 0 0 1.714-3.84l.754-1.645q.343-1.027.892-2.4.548-1.37 1.302-2.947l1.166-2.468q.205-.48 1.165-1.646l1.92-2.331 2.057-1.508h-.137q.137-.138.274-.343.206-.275.891-1.371l-.48.342q.207-.753 1.097-1.097.96-.342 2.126-.342 3.222 0 5.005 1.37 1.85 1.304 2.33 3.292zm13.592 25.093a.74.74 0 0 0 .137-.411v-.343a2.8 2.8 0 0 0-.275-1.234l.275.137-.412-.411a1.12 1.12 0 0 1-.48-.549 3.5 3.5 0 0 1-.068-.685q0-1.029.685-1.714a5.9 5.9 0 0 1 1.783-1.097 9.8 9.8 0 0 1 2.331-.686 15 15 0 0 1 2.331-.205q2.057-.001 4.662 1.234a32.3 32.3 0 0 1 5.074 3.016 40.5 40.5 0 0 1 4.525 3.634q2.056 1.852 3.085 3.085a33 33 0 0 1 2.605 3.977q1.097 1.92 1.303 3.84v.41h-.137q1.302 2.538 1.508 4.663a41 41 0 0 1 .206 4.045v9.804q0 1.92.205 3.222.206 1.302.206 2.468 0 1.92-.754 4.8a77 77 0 0 1-1.92 6.17l-3.222 8.913q-.891 1.782-2.743 3.702a27.7 27.7 0 0 1-4.113 3.497 26.3 26.3 0 0 1-4.662 2.605q-2.4 1.028-4.251 1.028h-.48q-.822.138-1.577.206-.754.069-1.645.068-1.44 0-2.811-.411a27 27 0 0 1-2.537-.891 35 35 0 0 1-1.92-1.029q-.753-.548-.96-.754l.275.137q-2.263-1.92-3.703-3.565a53 53 0 0 1-2.33-2.948q-.892-1.302-1.372-2.194-.411-.89-.685-1.234l-.617-1.44.137.206q-.891-2.331-1.097-3.702l-.549-1.509v.138a67 67 0 0 1-1.302-4.731 19.7 19.7 0 0 1-.549-4.525V73.55q0-.823-.137-1.988a19 19 0 0 1-.137-2.194q0-6.377 2.057-12.615 2.055-6.24 6.787-12.615l1.508-1.509-.274.137a31 31 0 0 1 1.714-1.988q.96-1.097 2.674-2.81zm14.123 24.75a149 149 0 0 0-.48-5.416q-.275-2.605-1.028-4.388l.411.275q-.617-.96-.891-1.577-.206-.617-.206-1.097 0-.343.069-.617.068-.275.068-.48 0-.137-.068-.206-.069-.068-.069-.205h.274a20 20 0 0 0-1.44-.96 6 6 0 0 1-1.234-1.166l-.274.274a4 4 0 0 1-.823.617q-.41.275-1.097.96-.685.686-1.645 2.057-.96 1.303-2.194 3.84h.137l-2.057 3.496.138-.137-1.029 1.782.274-.274-3.153 10.764a18 18 0 0 0-.343 3.497V73q0 .55.137 1.097v.549q.137.412.206.685.137.275.137.617 0 .343-.069.686a3.5 3.5 0 0 0-.068.686q0 1.713.411 3.222.41 1.508.823 3.222l.137.412a44 44 0 0 0 1.165 3.222q.686 1.44 1.234 2.468.549 1.029.892 1.577.342.549.342.411 0 .138-.274.412 2.331-.549 4.32-2.605 1.987-2.057 4.045-5.76l1.439-2.4-.411.412v-.685q0-.138.069-.343.068-.206.068-.343l.411-2.811q.412-2.605.343-5.416 0-2.811.617-5.348l.275-3.085zm68.471-8.844q-1.713.96-3.908 2.126a145 145 0 0 1-5.073 2.4l3.359 7.541q.618 1.371.96 2.537.411 1.166.617 1.92l.96 4.524q.549 1.234.891 2.674.412 1.44.686 2.948.274 1.44.48 2.88.274 1.371.617 2.537l1.645 5.896v-.275q.344 1.235.549 2.194.274.96.274 1.714v.412h-.137q.274.41.411.754.206.343.343.343v-.137l.274.89h-.137q1.44 4.115 2.194 7.268.823 3.154 1.303 5.691t.823 4.593a28 28 0 0 0 1.096 3.977v-.137q.48 2.331.96 4.25a77 77 0 0 0 1.029 3.84l.411 1.44q.344 1.166.411 2.193.138 1.097.138 2.126 0 2.742-1.097 4.319-1.029 1.577-4.183 1.577-2.056 0-3.428-.274-1.371-.206-2.331-.686a4.9 4.9 0 0 1-1.577-1.165 13 13 0 0 1-1.234-1.646l.138.137a47 47 0 0 1-2.194-4.25 48 48 0 0 1-1.509-3.908 45 45 0 0 1-.96-3.223q-.342-1.37-.342-2.056 0-.549.068-1.029v-.823q.069-.41.069-.685v-.96q0-.411.068-.754.069-.344.069-.549 0-.822-.274-1.097h.137q-1.851-1.713-1.851-2.811 0-.205.068-.274a.6.6 0 0 0 .069-.274.8.8 0 0 0-.069-.343.76.76 0 0 1-.068-.343l-.275-.685a56 56 0 0 1-1.097-2.948 39 39 0 0 1-.548-2.194 114 114 0 0 1-.343-1.783l-.274-1.508-.411-1.783v.137l-1.097-3.839a12 12 0 0 1-.617-1.714 23 23 0 0 1-.48-2.331l-1.852-7.679a712 712 0 0 1-2.673-11.518 69 69 0 0 0-3.497-11.175h-.274q-.549.136-1.44.343-.822.206-1.92.548-1.096.343-2.262.891a9.6 9.6 0 0 0-2.194 1.44l.274-.137-.548.548.96-.822a15 15 0 0 0-.138 1.988v2.879q.138.687.138 1.852v1.508l.411 12.615q.617 1.783.754 3.222.206 1.372.206 2.606.067 1.165 0 2.262 0 1.029.137 2.126h-.137q0 .205.068.342a.76.76 0 0 1 .069.343q0 2.4-1.851 3.908-1.783 1.44-4.868 1.44-1.165 0-2.605-.274a8.6 8.6 0 0 1-2.811-1.097l-1.577-2.537q-1.165-1.989-1.371-2.674l-.275-1.782a53 53 0 0 0-.548-3.223 14.8 14.8 0 0 1-.137-3.496q0-.892.068-1.783.069-.89.069-1.783 0-1.782-.343-3.29-.274-1.578-.274-2.126l-.274-35.72v-1.92q-1.166-.48-1.509-1.233-.342-.823-.411-1.509 0-.754.068-1.234.07-.549-.205-.548l-.549-1.783q0-.891.137-1.166.206-.343.549-.616.343-.275.891-.823.618-.549 1.44-1.92h-.137q.137-.137.754-.48.686-.343 2.331-.891l2.811-2.125q.96-.755 4.251-1.098 3.29-.41 7.816-.41 3.839 0 7.404.685a42.5 42.5 0 0 1 6.719 1.85q3.223 1.167 5.896 2.675 2.743 1.508 4.868 3.154h-.137q2.537 1.713 4.319 3.633 1.783 1.851 2.537 3.497l.754 3.085v3.36q0 .205-.274.754-.206.48-.617 1.165-.344.686-.891 1.508-.55.754-1.166 1.372l.274-.137q-.137.342-.891.822-.755.48-1.92 1.234m-21.459-18.031h-2.194q-1.097 0-2.263.274-1.096.275-2.262.686h.137q-.549.275-.891 1.44-.343 1.166-.617 2.81a37 37 0 0 0-.274 3.497q-.069 1.851-.138 3.497v4.319l.138-.137q1.37-.549 2.605-.823a11 11 0 0 1 2.399-.274h1.166l1.234-.754q.137.068.411.068.275.069 1.029.069t1.371-.137q.685-.206 1.371-.549a28 28 0 0 0 1.714-1.028q.96-.686 2.4-1.646a.86.86 0 0 0 .48-.342q.274-.275.617-.549.411-.342.96-.617.617-.275 1.577-.411l-1.44-3.497a13.7 13.7 0 0 0-2.468-2.4 17.6 17.6 0 0 0-2.811-1.85q-1.44-.755-2.606-1.166-1.165-.48-1.645-.48m43.633 68.149-1.234-.686.274.137q-1.782-1.439-2.811-2.468-1.028-1.096-1.577-1.92-.548-.822-.754-1.44a6.7 6.7 0 0 1-.137-1.302q.206-1.44.137-2.948 0-1.577.137-2.948l.549-7.405v.138-.892q0-.48.137-.891t.48-.823q.412-.48 1.165-1.028l-.137-.274.275.274a13 13 0 0 1-.823-1.44q-.411-.891-.549-1.097v-2.057q0-3.428.48-7.199.48-3.84.48-7.541 0-1.372-.068-2.674a52 52 0 0 1-.069-2.605v-5.896q0-1.509.069-3.017.068-1.508.068-3.017 0-3.084-.274-5.896a63 63 0 0 1-.274-6.102q0-2.126.137-4.113.137-2.058.548-3.634l-.137.137a20 20 0 0 0 .274-3.36q0-.96-.342-1.92a6.3 6.3 0 0 1-.343-1.987q0-.823.823-1.371a7.7 7.7 0 0 1 1.919-1.029q1.165-.411 2.4-.617t2.125-.206q2.88 0 4.594.617 1.713.549 2.605 1.44T225.081 15q.274 1.097.274 2.126v2.537l-.411 6.444a28 28 0 0 0-.274 2.743v5.279q.068 1.233.274 2.605v2.4l5.279-4.525-.274.137a47 47 0 0 1 2.262-2.126 17 17 0 0 1 2.4-1.782 13.4 13.4 0 0 1 2.674-1.371q1.508-.549 3.359-.755 1.851 0 3.84.206 2.056.137 3.565 1.097l-.137-.137q1.233.823 1.782 1.714.549.892.549 1.645-.344.686-.549 1.235-.137.48-.411 1.097-.206.548-.686 1.165-.41.617-1.234 1.508l-2.674 2.811q-1.302 1.44-3.222 2.811a74 74 0 0 0-4.045 3.086q-2.126 1.713-4.457 4.044-2.262 2.331-4.387 5.622l.959 1.92q1.715 2.331 2.606 4.868.96 2.537 1.919 4.525l1.097 2.4-.137-.138 4.868 12.89 1.166 2.33h-.138l2.057 5.486q1.235 2.4 1.988 3.496v-.137a142 142 0 0 0 1.852 3.702l1.097 2.057q.48.891 1.302 2.468.823 1.578 1.783 3.428.96 1.851 1.919 3.908a132 132 0 0 1 1.783 3.84 32 32 0 0 1 1.303 3.222q.548 1.44.685 2.194l-.137-.206.549 2.811q0 .412-.686.823-.685.48-1.714.823a9.7 9.7 0 0 1-2.125.617 9.7 9.7 0 0 1-2.194.274q-1.715 0-2.88-.96l.549.137a64 64 0 0 0-2.331-1.371q-.754-.411-.892-.754a132 132 0 0 1-2.673-4.868 230 230 0 0 0-3.017-5.553 4257 4257 0 0 0-2.948-5.485q-1.44-2.743-2.606-4.937a106 106 0 0 0-1.851-3.565l-.754-1.508.137.137q-.822-1.234-1.508-3.017a86 86 0 0 1-1.303-3.633 85 85 0 0 1-.959-3.497q-.412-1.713-.755-2.674l-3.222-9.53 1.577 15.084q0 6.582-.823 11.38l.137-.273q0 1.988-1.234 2.879-1.166.891-2.742.891h-1.303a11 11 0 0 1-1.44-.274z"/><path fill="#000" d="M263.308 10.132q6.171-4.937 10.764-7.062Q278.734.876 280.86.876h2.194q.685.069 1.577.069a9 9 0 0 1 1.919.068q1.029.069 1.92.343.96.274 1.714.891l3.222 2.811h-.137l5.622 4.936a7.6 7.6 0 0 1 1.44 1.235q.617.686.823 1.44l2.331 6.444q.548 1.371.754 2.88.274 1.44.274 2.81 0 1.303-.343 2.4-.342 1.029-1.097 2.4l-2.948 1.645-1.097.412q-.48.136-1.234.137-1.097 0-2.536-.343-1.44-.411-3.771-1.577a58 58 0 0 0-.96-7.199q-.617-3.496-1.44-6.17t-1.782-4.251q-.892-1.577-1.714-1.577h-3.908q-.618 1.028-1.166 2.468-.48 1.371-.823 3.154l-.822 3.908q-.412 1.029-.412 1.508l-.685 9.804v.892q0 1.165.137 2.605.205 1.37.48 2.674.274 1.234.548 2.262.274.96.48 1.372h-.137l.411.822a116 116 0 0 0 4.731 9.941 317 317 0 0 1 4.868 9.462q2.33 4.525 3.976 8.707 1.645 4.114 1.989 7.747 0 2.263.411 2.674h-.137q.822.823 1.097 1.508.342.686.411 1.303.137.617.137 1.234 0 .549.206 1.166h-.137q.96 2.536 1.302 4.662a44 44 0 0 1 .617 3.976V98.3q0 2.194.138 4.182.137 1.92.548 3.84-.069.547 0 .891t-.069.891q-.068.48-.411 1.371-.275.823-1.028 2.263l-1.44 2.674.343-.137q-.206.616-.754 1.371-.48.754-1.166 1.645t-1.508 1.714a59 59 0 0 1-1.646 1.714l-3.085 3.085q-.549.549-3.085 1.783l-1.508.754q-1.51.754-3.428 1.029-1.852.342-3.428.342h-2.949q-7.267 0-11.449-2.742-4.183-2.674-6.376-8.159a3.3 3.3 0 0 1-.412-1.234 5.4 5.4 0 0 1-.137-1.165v-.48q0-.275.137-.48l2.126-1.988h1.302q.892 0 1.783.068.891.069 1.577.206.755.069.96.274l-.275-.137q1.578 1.302 2.263 2.125.755.754 1.028 1.234.343.48.412.755.137.273.48.548l-.412-.137q1.303.549 3.771.96 1.851-.48 3.291-1.44t2.674-2.605q1.302-1.646 2.468-4.045 1.234-2.4 2.468-5.759.96-2.606.96-5.896v-1.372q0-.685-.137-1.44l-.411-3.77q-.617-5.965-2.057-10.559a170 170 0 0 0-2.674-8.364v.137a68 68 0 0 1-1.783-4.182 65 65 0 0 0-1.714-4.32l-1.028-2.262h.137l-.411-.822q-.344-.618-.617-1.098a5.6 5.6 0 0 1-.48-1.165l-5.759-11.587q-1.577-3.222-2.537-6.102a54 54 0 0 1-1.508-5.553 44 44 0 0 1-.755-5.073 57 57 0 0 1-.205-4.731q0-3.702.48-7.404t1.439-7.816m85.286 48.54q.412-6.924.686-13.917.274-6.994 1.234-14.192.137-.617.137-1.166v-1.234a5.75 5.75 0 0 0-.823-2.194q-.548-.96-.548-1.303 0-.754 1.508-1.37 1.577-.686 4.251-.686 3.702 1.37 5.759 3.085 2.057 1.645 3.017 3.702t1.234 4.594q.274 2.467.48 5.416 0 3.496-.48 6.582-.412 3.016-.412 5.553v1.44q0 .617-.068 1.44 0 .753-.343 1.508v1.37q.137.549.137.96v.891q0 1.029-.068 2.194a32 32 0 0 0-.069 1.988q0 .96.206 1.783.205.822.205 1.44 0 2.33-.342 4.73a31 31 0 0 0-.343 4.525q0 2.194.137 4.114.205 1.85.411 3.565v-.137q.137.549.275.96.205.342.205.685v3.36q0 .89.069 1.714.068.822.068 1.645v3.36q0 1.646-.205 3.908a13.8 13.8 0 0 1-.96 4.319 8.44 8.44 0 0 1-2.4 3.497q-1.577 1.439-4.456 1.439-1.783 0-2.674-.822l-3.085-3.497a8 8 0 0 1-1.509-2.811 20.7 20.7 0 0 1-.685-3.428 46 46 0 0 1-.137-3.565 42 42 0 0 0 0-3.36V86.85q0-1.92-.069-4.594 0-2.742-.068-5.348 0-2.605-.069-4.662 0-2.057-.069-2.605v-.411q-1.234 0-2.673.41h.137a14.4 14.4 0 0 1-3.497.412q-1.303 0-2.605-.205a16 16 0 0 0-2.468-.206q-.96 0-1.989.206a9 9 0 0 1-1.919.205h-.549q.206.206.274.686.07.41.275 1.234v3.839q0 .755.548 1.509v.822a28 28 0 0 0-.205 1.852 21 21 0 0 0-.069 1.782q0 1.576.137 3.36.137 1.782.274 3.427.137 1.578.275 2.674.137 1.098.137 1.234v1.097q0 1.92.205 3.771.275 1.85.686 3.634h-.137q.137.755.206 1.44.068.616.068 1.234 0 2.125-1.371 3.359t-3.702 1.234a7.2 7.2 0 0 1-1.989-.274q-.89-.342-1.645-1.097l-1.508-1.303h.137a63 63 0 0 1-1.371-1.097q-.687-.616-1.303-1.165a15 15 0 0 0-.96-.891q-.343-.343-.411-.343a12.3 12.3 0 0 1-1.577-2.331q-.686-1.371-.686-2.811 0-.823.206-1.577a6.8 6.8 0 0 0 .206-1.645q0-.617-.138-1.646a37 37 0 0 0-.205-2.125q-.138-1.166-.274-2.263a47 47 0 0 1-.206-1.92l-.891-16.522.891.274-2.126-1.714q-1.166-.96-1.851-1.92-.685-1.028-1.234-1.577l-.685-1.645q0-.205.48-.549.48-.41 1.097-.754a8 8 0 0 1 1.439-.548q.824-.275 1.44-.275h.411V53.12q0-3.496.275-6.719.343-3.222.754-6.719v.137q0-.617.274-1.577a54 54 0 0 1 .617-2.125q.411-1.097.754-2.125.412-1.029.686-1.783l1.851-5.69q1.988.48 3.291.822 1.302.274 1.988.48.755.206 1.029.274.342.069.411.069l1.234 1.303q.754 1.028 1.166 1.645.479.549.685 1.097.274.48.343 1.097.068.548.068 1.577v3.222q0 .891.343 1.988.343 1.098.343 2.4 0 .343-.068.686a3 3 0 0 0-.069.685 5.6 5.6 0 0 0 .274 1.783q.274.754.274 2.125v4.868q0 2.605-1.371 5.896-.137.138-.137.412 0 .343.411.754l11.656-.275h1.302q.754 0 1.714-.137l1.989-1.44zm87.558-35.925q0 1.302.206 2.262.274.96.548 1.783.275.754.48 1.37.274.55.274 1.166 0 2.605.412 5.28l.685 9.118v2.4q.55 2.4.686 4.045.206 1.646.206 2.81 0 1.234-.137 2.812a43 43 0 0 1-.206 2.742l-.823 2.674q-.274.617-.343 1.165-.068.48-.205 1.235a28 28 0 0 1-.275 1.988 55 55 0 0 1-.685 3.154 64 64 0 0 0-.686 2.536 52 52 0 0 0-.685 3.017q-.344 1.645-.549 3.84-.206 2.124-.206 4.936 0 .96-.274 2.262a8.8 8.8 0 0 1-.822 2.331l-2.4 5.622q-.344.617-.96 1.44-.549.823-1.714 2.194l.274-.137-6.444 10.489a12.6 12.6 0 0 1-3.223 3.566 20.5 20.5 0 0 1-4.182 2.468 22.2 22.2 0 0 1-4.251 1.44q-2.056.479-3.565.479-7.13 0-12.203-2.399-5.075-2.4-8.433-6.102-3.36-3.77-5.28-8.296-1.851-4.525-2.673-8.775h.137a144 144 0 0 1-1.577-10.353q-.48-4.936-.48-9.667-.069-2.605.137-5.005a83 83 0 0 1 .549-4.868q.343-2.467.754-4.936.41-2.468.754-5.21l.754-5.074q.686-1.165.96-2.194.275-1.029.548-2.125.343-1.166.755-2.537.48-1.371 1.508-3.222v.137q.205-.412.48-1.714.342-1.303.754-2.743l.411-1.577v.137q0-.753.686-2.125.754-1.37 2.537-3.154v-.274q0-.343-.137-.96a6.6 6.6 0 0 1-.138-1.302q0-.48.412-.96.411-.549 1.097-.96t1.508-.617a6 6 0 0 1 1.783-.274h.548q0-.205 1.097-1.509h-.137l.823-1.302-.137.137q.342-.55 1.097-1.097.754-.618 2.125-1.646l-.549.138q-.273.274-.548.274-.137 0-.137-.274 0-.686.411-1.166a5 5 0 0 1 1.097-.823l1.371-.823a5.7 5.7 0 0 0 1.303-.96l5.622-2.125q.823-.754 2.194-1.302 1.371-.549 3.222-.549 2.88 0 5.485.754a28.3 28.3 0 0 1 4.799 1.851 32 32 0 0 1 3.977 2.194q1.783 1.166 3.016 1.92zM421 26.792a43 43 0 0 1-.548-3.223 23 23 0 0 0-.549-2.948q-.274-1.302-.822-2.125-.48-.823-1.303-.823-1.782 0-4.045.892a13.5 13.5 0 0 0-4.045 2.468l.274-.137-3.771 3.222q-3.222 2.605-5.553 6.513-2.331 3.84-3.977 8.776v-.137l-1.028 2.468a62 62 0 0 0-2.331 7.747 126 126 0 0 0-1.508 8.296q-.549 4.182-.823 8.296a156 156 0 0 0-.206 7.747q0 2.88.137 5.69.206 2.743.823 5.348v.275q0 1.645.343 3.359.411 1.646.96 3.29a30 30 0 0 0 1.234 3.017q.685 1.44 1.234 2.674h-.137q1.097 2.537 2.879 4.114a100 100 0 0 0 3.703 2.879h-.138l.138.069v.069l.548.274-.343-.274q.618 0 1.097.068.549.069.96.069h-.137q1.029-.891 2.674-2.743 1.646-1.919 3.359-4.456a49 49 0 0 0 3.223-5.553 33 33 0 0 0 2.468-6.102q-.138 0 .068-.412.206-.48.549-.891h.137q.48-.891.754-2.057.343-1.165.754-2.605a60 60 0 0 1 1.166-3.291q.754-1.782 2.057-3.908l.685-5.896q.685-3.154 1.029-5.965.411-2.811.411-5.073v-9.119q0-1.165-.137-1.302a22.7 22.7 0 0 1-1.44-4.525 26 26 0 0 1-.411-4.525v-4.8q0-1.166-.137-2.33v.136zm25.04 42.713v-7.062a140 140 0 0 0-.068-7.61 78 78 0 0 0-.549-6.993q-.343-3.223-1.165-5.074a312 312 0 0 0-1.166-2.536q-.48-1.029-.754-1.783l-.343-1.371a5 5 0 0 1 0-1.166q0-1.714 1.097-3.29 1.166-1.647 3.359-2.606h-.274q2.742-1.37 6.171-2.194a27.7 27.7 0 0 1 6.993-.891h2.605q1.37 0 2.674.068 1.371 0 2.537.206 1.166.137 1.851.412.343.206.754.41.48.138.617.138 6.17 1.029 10.49 3.428 4.319 2.331 7.061 5.073 2.743 2.675 4.045 5.348 1.372 2.606 1.646 4.25l.274 1.783v.686q0 2.537-1.234 5.485h.137q-.206.547-.206.96 0 .342-.205.822-.206.48-.823 1.166-.549.617-1.988 1.645a18 18 0 0 0-1.44 1.303 83 83 0 0 1-1.851 1.783q-1.097.96-2.605 2.125a53 53 0 0 1-3.634 2.537q.137 0 .206-.069t.205-.068q0 .342-.48.754-.48.411-1.097.822l-1.234.686q-.548.274-.685.411l-5.417 3.154h-.137a63 63 0 0 1-1.234.549l-.685.342a1.8 1.8 0 0 1-.48.275v.137q.137 0 .205-.069.07-.068.206-.068-.548.617-1.92 1.165-1.37.549-3.016.96-1.577.343-3.085.617-1.509.206-2.194.206.068.136 0 1.371v3.222q.068 1.92.205 4.388.138 2.4.48 4.868v1.508q0 1.234-.205 2.674a7.3 7.3 0 0 1-.823 2.743q-.686 1.302-2.126 2.194-1.37.822-3.839.822-1.37 0-2.605-.754t-2.4-2.057l-.48-.823h.206a45 45 0 0 1-1.234-3.496q-.48-1.782-.48-3.36 0-.753.069-1.508.068-.822.068-1.577zm14.398-13.918.137 7.747 1.028-.274q1.851-.206 4.32-1.097 2.536-.89 5.142-2.674 2.604-1.851 4.936-4.662 2.4-2.811 3.908-6.856 0-.137.068-.274a.6.6 0 0 0 .069-.274q0-.754-.274-1.371-.274-.618-.412-1.029h.137q-.411-.617-.411-.96 0-.137.069-.205 0-.069.068-.069l-1.645-.686a94 94 0 0 1-2.057-.822 13 13 0 0 0-1.577-.549 7.3 7.3 0 0 0-1.371-.274 16 16 0 0 0-1.577-.069q-1.92 0-4.868.617-2.948.549-6.376.823l-.411.412q.755 2.331.891 4.113.206 1.715.206 3.291z"/></svg>