<svg width="494" height="137" viewBox="0 0 494 137" fill="none" xmlns="http://www.w3.org/2000/svg">
<path d="M95.4765 10.9543C95.2479 11.3657 95.0422 12.0284 94.8594 12.9426C94.6766 13.8567 94.4709 14.908 94.2424 16.0964C94.0595 17.239 93.7853 18.4731 93.4197 19.7986C93.0997 21.1241 92.6655 22.4267 92.117 23.7065C91.6142 24.7578 91.0658 26.289 90.4716 28.3001L89.5117 31.7966C89.1461 32.9393 88.7347 34.1277 88.2776 35.3618C87.8663 36.5959 87.1578 38.2642 86.1523 40.3667C85.9694 40.5952 85.878 40.778 85.878 40.9152C85.9237 41.0066 85.9009 41.1894 85.8095 41.4636L84.9867 45.5087C84.7582 46.5142 84.484 47.4969 84.164 48.4568C83.8441 49.3709 83.6155 50.3079 83.4784 51.2677L82.7928 53.6674C82.61 54.0787 82.4729 54.4901 82.3814 54.9014C82.3357 55.2671 82.3129 55.747 82.3129 56.3412V57.0268C81.9472 58.3066 81.5587 59.5178 81.1474 60.6605C80.7817 61.8032 80.0961 62.9687 79.0906 64.1571L77.9936 65.3912H78.1307C77.9022 65.6197 77.6965 65.9168 77.5137 66.2824C77.3766 66.6024 77.308 67.1509 77.308 67.9279C76.9423 68.5221 76.4167 69.2305 75.7311 70.0533C75.0912 70.8303 74.5884 71.4702 74.2228 71.9729L73.8114 73.5498L72.0974 77.3206L72.2345 77.1835L71.5489 78.5547C71.4118 78.9661 71.3204 79.3546 71.2747 79.7202C71.229 80.0402 71.1604 80.4516 71.069 80.9543C71.0233 81.4571 70.909 82.097 70.7262 82.874C70.5434 83.651 70.2234 84.6566 69.7664 85.8907C69.6293 86.1649 69.4921 86.5077 69.355 86.9191C69.2179 87.3304 69.1036 87.7189 69.0122 88.0846L68.0524 91.9925C67.961 92.3125 67.7324 92.7924 67.3668 93.4323C67.0468 94.0722 66.6812 94.7121 66.2698 95.352L66.4069 95.2149C66.2698 95.4891 66.1098 96.0147 65.927 96.7917C65.7899 97.5688 65.6071 98.4829 65.3785 99.5341C65.1957 100.585 64.9443 101.728 64.6244 102.962C64.3501 104.151 64.0073 105.316 63.5959 106.459C63.3217 107.144 63.0703 107.967 62.8418 108.927C62.6133 109.841 62.3847 110.824 62.1562 111.875L62.2933 111.738L61.4706 114.823V114.686L61.0592 116.263C60.9221 116.766 60.8307 117.565 60.785 118.662C60.785 119.805 60.6022 120.971 60.2365 122.159C59.8708 123.347 59.2081 124.376 58.2482 125.244C57.3341 126.158 55.8944 126.615 53.929 126.615C52.8777 126.615 51.895 126.387 50.9809 125.93L48.4441 124.49H48.5813C46.4787 123.53 44.8104 122.479 43.5764 121.336C42.388 120.239 41.4053 119.097 40.6283 117.908L40.7654 118.045C40.4912 117.68 40.2398 117.268 40.0112 116.811C39.7827 116.4 39.6684 116.08 39.6684 115.851C39.6684 114.846 39.7598 113.863 39.9427 112.903C40.1255 111.944 40.3312 110.961 40.5597 109.955C40.7882 108.904 40.9939 107.83 41.1768 106.733C41.3596 105.636 41.451 104.47 41.451 103.236V102.208C41.451 101.797 41.4967 101.248 41.5881 100.563C41.7252 99.8312 41.9081 99.1685 42.1366 98.5743C42.1366 98.4372 42.1366 98.2772 42.1366 98.0944C42.1366 97.9116 42.0909 97.7059 41.9995 97.4773L42.2737 97.7516C42.1823 97.5688 42.0909 97.4088 41.9995 97.2717C41.9538 97.0888 41.8852 96.9289 41.7938 96.7917L41.5881 96.3804C41.7252 96.0147 41.7938 95.6948 41.7938 95.4205C41.8395 95.1006 41.8624 94.7578 41.8624 94.3921C41.8624 93.7065 41.8167 92.8381 41.7252 91.7868C41.6338 90.7356 41.5196 89.5929 41.3824 88.3588C41.2453 87.079 41.131 85.7993 41.0396 84.5195C40.9482 83.194 40.9025 81.9599 40.9025 80.8172L41.2453 74.6468C41.1539 75.3324 40.9711 76.4065 40.6968 77.8691C40.4226 79.286 40.1255 80.7029 39.8055 82.1199C39.5313 83.5368 39.2799 84.7708 39.0514 85.8221C38.8229 86.8734 38.7314 87.3533 38.7771 87.2619C38.4572 87.9018 38.2287 88.6559 38.0915 89.5244L36.9946 93.5694C36.8575 93.9808 36.5832 94.6435 36.1719 95.5577C35.7605 96.4261 35.2349 97.7287 34.595 99.4656L34.7321 99.3285C34.3664 100.471 33.9322 101.66 33.4294 102.894C32.9724 104.082 32.3325 105.179 31.5098 106.184C30.7327 107.144 29.7043 107.944 28.4245 108.584C27.1905 109.224 25.6136 109.544 23.6939 109.544C21.957 109.544 20.0831 109.201 18.072 108.516C16.0609 107.83 13.9583 106.527 11.7644 104.608H11.9015C10.896 103.739 10.3932 102.939 10.3932 102.208C10.3932 101.66 10.5303 101.202 10.8046 100.837C11.0788 100.425 11.2159 100.014 11.2159 99.6027C11.2159 99.4656 11.1931 99.3285 11.1474 99.1914C11.1017 99.0542 11.0788 98.8943 11.0788 98.7114L11.3531 99.0542C11.2616 98.8714 11.1702 98.6886 11.0788 98.5058C11.0331 98.3229 10.9645 98.1858 10.8731 98.0944C10.7817 97.9573 10.7132 97.843 10.6674 97.7516C10.8046 97.3859 10.8731 97.066 10.8731 96.7917C10.9188 96.5175 10.9417 96.1976 10.9417 95.8319C10.9417 95.0092 10.896 94.0493 10.8046 92.9524C10.7132 91.8097 10.5989 90.6213 10.4618 89.3872C10.3246 88.1532 10.2104 86.9191 10.119 85.685C10.0276 84.4509 9.98185 83.2854 9.98185 82.1884V78.4176C9.98185 76.3608 9.89043 74.6925 9.70761 73.4127C9.52478 72.1329 9.43337 71.2873 9.43337 70.876V69.3676C9.43337 66.8995 9.27339 64.3628 8.95344 61.7575C8.6792 59.1065 8.54208 56.4098 8.54208 53.6674C8.54208 50.9249 8.35926 48.2282 7.9936 45.5773C7.67365 42.9263 7.21658 40.2981 6.6224 37.6928C6.07391 35.0875 5.45687 32.528 4.77127 30.0141C4.08567 27.4545 3.40007 24.9406 2.71446 22.4724C2.44022 21.4212 2.18883 20.21 1.9603 18.8388C1.77747 17.4218 1.59465 16.0963 1.41182 14.8623C1.22899 13.5825 1.06902 12.4855 0.931897 11.5714C0.794776 10.6572 0.634803 10.1316 0.451975 9.99448C0.269148 9.90307 0.177734 9.67454 0.177734 9.30889C0.177734 8.94323 0.337708 8.60043 0.657656 8.28049C0.931897 7.91483 1.3204 7.59488 1.82318 7.32064C2.32596 7.0464 2.89729 6.81786 3.53719 6.63504C4.17708 6.45221 4.81698 6.3608 5.45687 6.3608C5.86823 6.3608 6.3253 6.42936 6.82808 6.56648C7.37656 6.65789 7.90219 6.81786 8.40496 7.04639C8.90774 7.22923 9.36481 7.45776 9.77617 7.732C10.2332 7.96053 10.576 8.23477 10.8046 8.55472L10.9417 8.69184C11.3531 10.2459 11.6959 11.6399 11.9701 12.874C12.29 14.0624 12.5871 15.1822 12.8614 16.2335C13.1356 17.2847 13.387 18.2674 13.6155 19.1816C13.8898 20.0957 14.2097 21.0327 14.5754 21.9925V21.8554C15.261 24.2779 15.9923 26.6318 16.7693 28.9171C17.592 31.2025 18.2091 33.4878 18.6204 35.7731V35.5675L19.9231 39.8182C20.2887 41.0523 20.563 42.2178 20.7458 43.3148C20.9743 44.4117 21.1343 45.3716 21.2257 46.1943C21.3171 47.017 21.3628 47.6798 21.3628 48.1825C21.4086 48.6396 21.4771 48.8681 21.5685 48.8681C21.7056 49.4623 21.8199 49.988 21.9113 50.445C22.0484 50.9021 22.117 51.1763 22.117 51.2677C21.8428 51.9533 21.7056 52.5247 21.7056 52.9818C21.7056 53.0732 21.7285 53.1417 21.7742 53.1874C21.7742 53.2331 21.7971 53.256 21.8428 53.256H21.7056C22.0256 54.3073 22.2313 55.1757 22.3227 55.8613C22.4598 56.5012 22.5284 57.0954 22.5284 57.6438C22.5741 58.1466 22.5969 58.6951 22.5969 59.2893C22.6426 59.8378 22.7341 60.5234 22.8712 61.3461V64.1571C22.8712 64.797 22.894 65.3683 22.9397 65.8711C22.9854 66.3739 23.0083 66.8309 23.0083 67.2423C23.0083 68.065 22.9626 69.0934 22.8712 70.3275C22.7798 71.5159 22.7341 72.8185 22.7341 74.2354C22.7341 75.241 22.7569 76.2237 22.8026 77.1835C22.894 78.1434 23.054 79.1261 23.2825 80.1316L25.0651 74.3726C25.2936 73.5955 25.6364 72.7728 26.0935 71.9044C26.5506 70.9902 26.9162 69.8019 27.1905 68.3392V68.6135C27.7847 67.5165 28.3331 66.3967 28.8359 65.254C29.2473 64.2942 29.6358 63.2886 30.0014 62.2374C30.3671 61.1861 30.5499 60.2034 30.5499 59.2893L31.2355 57.0268C31.6469 56.3412 31.944 55.6327 32.1268 54.9014C32.3096 54.1701 32.4925 53.4617 32.6753 52.7761C32.9038 52.0448 33.2009 51.3135 33.5666 50.5821C33.9322 49.8508 34.5036 49.1424 35.2806 48.4568L34.8692 48.5939C35.2806 47.9997 35.532 47.5426 35.6234 47.2227C35.7605 46.857 35.8976 46.4685 36.0347 46.0572C36.1719 45.6458 36.3775 45.1659 36.6518 44.6174C36.926 44.0689 37.4059 43.2919 38.0915 42.2864L38.3658 41.4636C40.1484 37.5786 41.5653 34.3562 42.6165 31.7966C43.6678 29.1914 44.5819 27.1117 45.3589 25.5577C46.1817 24.0036 46.9815 22.9067 47.7585 22.2668C48.5356 21.6269 49.564 21.3069 50.8437 21.3069C51.7579 21.3069 52.6035 21.6269 53.3805 22.2668C54.1575 22.9067 54.8202 23.7522 55.3687 24.8035C55.9172 25.809 56.3514 26.9517 56.6714 28.2315C56.9913 29.5113 57.1513 30.7911 57.1513 32.0709C57.1513 33.8535 57.037 35.3389 56.8085 36.5273C56.6257 37.67 56.3971 38.6298 56.1229 39.4068C55.8943 40.1838 55.643 40.8237 55.3687 41.3265C55.1402 41.8293 54.9802 42.3092 54.8888 42.7663H55.0259C54.9345 43.1776 54.8431 43.4747 54.7517 43.6576C54.6603 43.8404 54.5689 44.1375 54.4774 44.5488L52.832 51.542V52.5704C53.1519 53.4388 53.3576 54.193 53.449 54.8329C53.5404 55.4728 53.5862 56.067 53.5862 56.6154C53.5862 57.1639 53.5862 57.7124 53.5862 58.2609C53.5862 58.7637 53.6547 59.335 53.7918 59.9749V62.923C53.7918 63.4715 53.8147 63.9971 53.8604 64.4999C53.9061 64.9569 53.929 65.414 53.929 65.8711C53.929 66.9223 53.8604 68.4535 53.7233 70.4646C53.5862 72.4757 53.5176 74.5782 53.5176 76.7722C53.5176 77.9605 53.5404 79.1261 53.5862 80.2687C53.6776 81.3657 53.8375 82.3484 54.0661 83.2168L56.0543 73.1385C56.1914 72.27 56.4885 71.4245 56.9456 70.6017C57.4484 69.7333 57.8369 68.5221 58.1111 66.968V67.2423C58.2025 67.2423 58.4311 66.8995 58.7967 66.2139C59.1624 65.4826 59.528 64.637 59.8937 63.6772C60.3051 62.6716 60.6707 61.6432 60.9907 60.5919C61.3106 59.495 61.4706 58.5808 61.4706 57.8495L62.1562 55.7927C62.5675 55.0614 62.8646 54.3301 63.0475 53.5988C63.2303 52.8675 63.436 52.159 63.6645 51.4734C63.9388 50.7421 64.2587 50.0108 64.6244 49.2795C64.99 48.5482 65.5385 47.8169 66.2698 47.0856L65.7899 47.2227C66.2012 46.6742 66.4526 46.24 66.544 45.92C66.6812 45.6001 66.8183 45.2573 66.9554 44.8916C67.0925 44.526 67.2982 44.0461 67.5724 43.4519C67.8924 42.8577 68.418 42.0121 69.1493 40.9152L68.738 41.1894L69.4921 39.4068C69.5835 39.224 69.6978 39.0412 69.8349 38.8583C69.9263 38.6755 70.0178 38.4927 70.1092 38.3099C70.2463 38.127 70.3606 37.9214 70.452 37.6928L70.3148 37.8299L73.4001 29.3285C73.3086 28.2772 73.56 27.2031 74.1542 26.1061C74.7484 24.9635 75.3198 23.6837 75.8682 22.2668L76.6224 20.6213C76.8509 19.9357 77.148 19.1359 77.5137 18.2217C77.8793 17.3076 78.3135 16.3249 78.8163 15.2736L79.9818 12.8055C80.119 12.4855 80.5075 11.937 81.1474 11.16C81.7873 10.383 82.4272 9.60598 83.0671 8.82896L85.1239 7.32064H84.9867C85.0782 7.22922 85.1696 7.11495 85.261 6.97784C85.3981 6.79501 85.6952 6.33794 86.1523 5.60663L85.6723 5.94943C85.8095 5.44666 86.1751 5.081 86.7693 4.85247C87.4092 4.62394 88.1177 4.50967 88.8947 4.50967C91.0429 4.50967 92.7112 4.96674 93.8996 5.88087C95.1337 6.7493 95.9107 7.84626 96.2306 9.17176L95.4765 10.9543Z" fill="black"/>
<path d="M109.069 36.0474C109.16 35.9103 109.206 35.7731 109.206 35.636C109.206 35.4989 109.206 35.3846 109.206 35.2932C109.206 34.9733 109.16 34.6762 109.069 34.4019C109.023 34.2648 108.977 34.1505 108.931 34.0591L109.206 34.1962L108.794 33.7849C108.566 33.6478 108.406 33.4649 108.314 33.2364C108.269 33.0079 108.246 32.7793 108.246 32.5508C108.246 31.8652 108.474 31.2939 108.931 30.8368C109.434 30.3797 110.028 30.0141 110.714 29.7398C111.445 29.4199 112.222 29.1914 113.045 29.0542C113.913 28.9171 114.69 28.8486 115.376 28.8486C116.747 28.8486 118.301 29.2599 120.038 30.0826C121.775 30.9054 123.466 31.9109 125.112 33.0993C126.757 34.242 128.265 35.4532 129.637 36.733C131.008 37.9671 132.036 38.9955 132.722 39.8182C133.727 41.1437 134.596 42.4692 135.327 43.7947C136.058 45.0745 136.493 46.3543 136.63 47.6341C136.63 47.8626 136.63 47.9997 136.63 48.0454C136.63 48.0454 136.584 48.0454 136.493 48.0454C137.361 49.7366 137.864 51.2906 138.001 52.7075C138.138 54.0787 138.207 55.4271 138.207 56.7526V66.5567C138.207 67.8365 138.275 68.9106 138.412 69.779C138.549 70.6474 138.618 71.4702 138.618 72.2472C138.618 73.527 138.367 75.1267 137.864 77.0464C137.361 78.9661 136.721 81.0229 135.944 83.2168L132.722 92.1296C132.128 93.318 131.213 94.5521 129.979 95.8319C128.745 97.1117 127.374 98.2772 125.866 99.3285C124.357 100.38 122.803 101.248 121.204 101.934C119.604 102.619 118.187 102.962 116.953 102.962H116.473C115.925 103.054 115.399 103.122 114.896 103.168C114.393 103.214 113.845 103.236 113.251 103.236C112.291 103.236 111.354 103.099 110.44 102.825C109.526 102.551 108.68 102.254 107.903 101.934C107.172 101.568 106.532 101.225 105.983 100.905C105.481 100.54 105.161 100.288 105.023 100.151L105.298 100.288C103.789 99.0085 102.555 97.8201 101.595 96.7232C100.636 95.5805 99.8586 94.5978 99.2644 93.7751C98.6702 92.9067 98.2132 92.1754 97.8932 91.5812C97.619 90.987 97.3904 90.5756 97.2076 90.3471L96.5906 88.9073L96.7277 89.113C96.1335 87.559 95.7678 86.3249 95.6307 85.4107L95.0822 83.9024V84.0395C94.5795 82.4398 94.1452 80.8629 93.7796 79.3089C93.4139 77.7549 93.2311 76.2465 93.2311 74.7839V73.5498C93.2311 73.0013 93.1854 72.3386 93.094 71.5616C93.0026 70.7846 92.9569 70.0533 92.9569 69.3676C92.9569 65.1169 93.6425 60.9119 95.0137 56.7526C96.3849 52.5932 98.6474 48.3882 101.801 44.1375L103.309 42.6292L103.035 42.7663C103.538 42.1264 104.109 41.4636 104.749 40.778C105.389 40.0467 106.28 39.1097 107.423 37.9671L109.069 36.0474ZM123.192 60.7976C123.055 58.8779 122.895 57.0725 122.712 55.3814C122.529 53.6445 122.186 52.1819 121.684 50.9935L122.095 51.2677C121.684 50.6279 121.387 50.1022 121.204 49.6909C121.067 49.2795 120.998 48.9138 120.998 48.5939C120.998 48.3654 121.021 48.1597 121.067 47.9769C121.112 47.794 121.135 47.6341 121.135 47.4969C121.135 47.4055 121.112 47.337 121.067 47.2913C121.021 47.2455 120.998 47.177 120.998 47.0856H121.272C120.769 46.7199 120.29 46.4 119.832 46.1257C119.375 45.8058 118.964 45.4173 118.598 44.9602L118.324 45.2344C118.096 45.463 117.821 45.6687 117.501 45.8515C117.227 46.0343 116.862 46.3543 116.404 46.8113C115.947 47.2684 115.399 47.954 114.759 48.8681C114.119 49.7366 113.388 51.0164 112.565 52.7075H112.702L110.645 56.2041L110.783 56.067L109.754 57.8495L110.028 57.5753L106.875 68.3392C106.646 69.4819 106.532 70.6474 106.532 71.8358C106.532 72.2015 106.532 72.59 106.532 73.0013C106.532 73.367 106.578 73.7327 106.669 74.0983V74.6468C106.76 74.921 106.829 75.1496 106.875 75.3324C106.966 75.5152 107.012 75.7209 107.012 75.9494C107.012 76.178 106.989 76.4065 106.943 76.635C106.897 76.8636 106.875 77.0921 106.875 77.3206C106.875 78.4633 107.012 79.5374 107.286 80.543C107.56 81.5485 107.834 82.6226 108.109 83.7653L108.246 84.1767C108.611 85.3193 109 86.3934 109.411 87.399C109.868 88.3588 110.28 89.1816 110.645 89.8672C111.011 90.5528 111.308 91.0784 111.537 91.444C111.765 91.8097 111.879 91.9468 111.879 91.8554C111.879 91.9468 111.788 92.0839 111.605 92.2668C113.159 91.9011 114.599 91.0327 115.925 89.6615C117.25 88.2903 118.598 86.3706 119.97 83.9024L121.409 81.5028L120.998 81.9142V81.2286C120.998 81.1372 121.021 81.0229 121.067 80.8858C121.112 80.7486 121.135 80.6344 121.135 80.543L121.546 77.732C121.821 75.9951 121.935 74.1897 121.889 72.3157C121.889 70.4418 122.095 68.6592 122.506 66.968L122.781 63.8828L123.192 60.7976Z" fill="black"/>
<path d="M191.663 51.9534C190.521 52.5932 189.218 53.3017 187.755 54.0787C186.293 54.81 184.602 55.6099 182.682 56.4783L186.041 64.02C186.453 64.9341 186.773 65.7797 187.001 66.5567C187.275 67.3337 187.481 67.9736 187.618 68.4764L188.578 73.0013C188.944 73.8241 189.241 74.7153 189.469 75.6752C189.744 76.635 189.972 77.6177 190.155 78.6233C190.338 79.5831 190.498 80.543 190.635 81.5028C190.818 82.417 191.023 83.2625 191.252 84.0395L192.897 89.9357V89.6615C193.126 90.4842 193.309 91.2155 193.446 91.8554C193.629 92.4953 193.72 93.0666 193.72 93.5694C193.72 93.7979 193.72 93.9351 193.72 93.9808C193.72 93.9808 193.674 93.9808 193.583 93.9808C193.766 94.255 193.903 94.5064 193.994 94.7349C194.131 94.9635 194.246 95.0777 194.337 95.0777V94.9406L194.611 95.8319H194.474C195.434 98.5743 196.165 100.997 196.668 103.099C197.217 105.202 197.651 107.099 197.971 108.79C198.291 110.481 198.565 112.012 198.794 113.383C199.068 114.755 199.433 116.08 199.89 117.36V117.223C200.21 118.777 200.53 120.194 200.85 121.473C201.17 122.799 201.513 124.079 201.879 125.313L202.29 126.753C202.519 127.53 202.656 128.261 202.701 128.946C202.793 129.678 202.839 130.386 202.839 131.072C202.839 132.9 202.473 134.34 201.742 135.391C201.056 136.442 199.662 136.968 197.559 136.968C196.188 136.968 195.046 136.877 194.131 136.694C193.217 136.557 192.44 136.328 191.8 136.008C191.206 135.734 190.681 135.345 190.223 134.843C189.812 134.386 189.401 133.837 188.989 133.197L189.127 133.334C188.304 131.917 187.572 130.501 186.933 129.084C186.338 127.712 185.836 126.41 185.424 125.176C185.013 123.942 184.693 122.867 184.464 121.953C184.236 121.039 184.122 120.354 184.122 119.897C184.122 119.531 184.144 119.188 184.19 118.868C184.19 118.594 184.19 118.32 184.19 118.045C184.236 117.771 184.259 117.543 184.259 117.36V116.4C184.259 116.126 184.282 115.874 184.327 115.646C184.373 115.417 184.396 115.234 184.396 115.097C184.396 114.549 184.304 114.183 184.122 114H184.259C183.025 112.858 182.408 111.921 182.408 111.189C182.408 111.052 182.43 110.961 182.476 110.915C182.522 110.824 182.545 110.732 182.545 110.641C182.545 110.504 182.522 110.39 182.476 110.298C182.43 110.207 182.408 110.092 182.408 109.955L182.133 109.27C181.676 108.127 181.311 107.144 181.036 106.322C180.808 105.499 180.625 104.768 180.488 104.128C180.351 103.442 180.237 102.848 180.145 102.345C180.054 101.842 179.962 101.34 179.871 100.837L179.46 99.0542V99.1914L178.363 95.352C178.134 94.8492 177.928 94.2779 177.746 93.638C177.563 92.9524 177.403 92.1754 177.266 91.3069L175.414 83.6282C174.5 79.8345 173.609 75.9951 172.741 72.1101C171.872 68.225 170.707 64.4999 169.244 60.9347H168.97C168.604 61.0262 168.124 61.1404 167.53 61.2775C166.982 61.4147 166.342 61.5975 165.61 61.826C164.879 62.0546 164.125 62.3517 163.348 62.7173C162.571 63.083 161.84 63.5629 161.154 64.1571L161.428 64.02L160.88 64.5684L161.84 63.7457C161.748 64.4313 161.702 65.0941 161.702 65.734C161.702 66.3281 161.702 66.8766 161.702 67.3794V68.6135C161.794 69.0706 161.84 69.6876 161.84 70.4646C161.84 71.1959 161.84 71.6987 161.84 71.9729L162.251 84.588C162.662 85.7764 162.914 86.8505 163.005 87.8104C163.142 88.7245 163.211 89.5929 163.211 90.4156C163.256 91.1927 163.256 91.9468 163.211 92.6781C163.211 93.3637 163.256 94.0722 163.348 94.8035H163.211C163.211 94.9406 163.234 95.0549 163.279 95.1463C163.325 95.2377 163.348 95.352 163.348 95.4891C163.348 97.0888 162.731 98.3915 161.497 99.397C160.308 100.357 158.686 100.837 156.629 100.837C155.852 100.837 154.984 100.745 154.024 100.563C153.064 100.38 152.127 100.014 151.213 99.4656L149.636 96.9289C148.859 95.6034 148.402 94.7121 148.265 94.255L147.99 92.4725C147.853 91.4669 147.67 90.3928 147.442 89.2501C147.259 88.1074 147.213 86.9419 147.305 85.7535C147.305 85.1594 147.328 84.5652 147.373 83.971C147.419 83.3768 147.442 82.7826 147.442 82.1884C147.442 81 147.328 79.9031 147.099 78.8975C146.916 77.8463 146.825 77.1378 146.825 76.7722L146.551 41.0523V39.1326C145.774 38.8126 145.271 38.4013 145.042 37.8985C144.814 37.35 144.677 36.8472 144.631 36.3902C144.631 35.8874 144.654 35.476 144.699 35.1561C144.745 34.7904 144.677 34.6076 144.494 34.6076L143.945 32.825C143.945 32.2309 143.991 31.8424 144.082 31.6595C144.22 31.431 144.402 31.2253 144.631 31.0425C144.859 30.8597 145.157 30.5854 145.522 30.2198C145.934 29.8541 146.414 29.2142 146.962 28.3001H146.825C146.916 28.2087 147.168 28.0487 147.579 27.8202C148.036 27.5916 148.813 27.2945 149.91 26.9289L152.721 24.8035C153.361 24.3007 154.778 23.9351 156.972 23.7065C159.166 23.4323 161.771 23.2952 164.788 23.2952C167.347 23.2952 169.815 23.5237 172.192 23.9808C174.569 24.4378 176.809 25.0549 178.911 25.8319C181.059 26.6089 183.025 27.5002 184.807 28.5057C186.636 29.5113 188.258 30.5626 189.675 31.6595H189.538C191.229 32.8022 192.669 34.0134 193.857 35.2932C195.046 36.5273 195.891 37.6928 196.394 38.7898L197.148 41.875V45.2344C197.148 45.3716 197.057 45.623 196.874 45.9886C196.737 46.3086 196.531 46.6971 196.257 47.1541C196.028 47.6112 195.731 48.114 195.366 48.6625C195 49.1652 194.611 49.6223 194.2 50.0337L194.474 49.8965C194.383 50.1251 194.086 50.3993 193.583 50.7193C193.08 51.0392 192.44 51.4506 191.663 51.9534ZM170.204 33.922H168.01C167.279 33.922 166.524 34.0134 165.747 34.1962C165.016 34.3791 164.262 34.6076 163.485 34.8819H163.622C163.256 35.0647 162.959 35.5446 162.731 36.3216C162.502 37.0986 162.297 38.0356 162.114 39.1326C161.977 40.1838 161.885 41.3494 161.84 42.6292C161.794 43.8632 161.748 45.0288 161.702 46.1257C161.702 47.177 161.702 48.114 161.702 48.9367C161.702 49.7137 161.702 50.2165 161.702 50.445L161.84 50.3079C162.754 49.9422 163.622 49.668 164.445 49.4852C165.268 49.3024 166.067 49.2109 166.844 49.2109H168.01L169.244 48.4568C169.335 48.5025 169.473 48.5253 169.655 48.5253C169.838 48.571 170.181 48.5939 170.684 48.5939C171.187 48.5939 171.644 48.5482 172.055 48.4568C172.512 48.3197 172.969 48.1368 173.426 47.9083C173.929 47.6341 174.5 47.2913 175.14 46.8799C175.78 46.4228 176.58 45.8743 177.54 45.2344C177.723 45.1887 177.883 45.0745 178.02 44.8916C178.203 44.7088 178.408 44.526 178.637 44.3432C178.911 44.1146 179.231 43.9089 179.597 43.7261C180.008 43.5433 180.534 43.4062 181.174 43.3148L179.734 39.8182C179.048 38.9498 178.225 38.1499 177.266 37.4186C176.351 36.6873 175.414 36.0702 174.455 35.5675C173.495 35.0647 172.626 34.6762 171.849 34.4019C171.072 34.082 170.524 33.922 170.204 33.922Z" fill="black"/>
<path d="M213.837 102.071L212.603 101.385L212.877 101.522C211.689 100.563 210.752 99.7398 210.066 99.0542C209.381 98.3229 208.855 97.683 208.489 97.1345C208.124 96.5861 207.872 96.1061 207.735 95.6948C207.644 95.2377 207.598 94.8035 207.598 94.3921C207.735 93.4323 207.781 92.4496 207.735 91.444C207.735 90.3928 207.781 89.4101 207.872 88.496L208.421 81.0914V81.2286C208.421 80.9086 208.421 80.6115 208.421 80.3373C208.421 80.0173 208.467 79.7202 208.558 79.446C208.649 79.1718 208.809 78.8975 209.038 78.6233C209.312 78.3033 209.701 77.9605 210.203 77.5949L210.066 77.3206L210.341 77.5949C210.066 77.1835 209.792 76.7036 209.518 76.1551C209.244 75.5609 209.061 75.1953 208.969 75.0582V73.0013C208.969 70.716 209.129 68.3164 209.449 65.8025C209.769 63.2429 209.929 60.7291 209.929 58.2609C209.929 57.3468 209.906 56.4555 209.861 55.587C209.815 54.6729 209.792 53.8045 209.792 52.9818V47.0856C209.792 46.08 209.815 45.0745 209.861 44.0689C209.906 43.0634 209.929 42.0578 209.929 41.0523C209.929 38.9955 209.838 37.0301 209.655 35.1561C209.472 33.2821 209.381 31.2482 209.381 29.0542C209.381 27.6373 209.426 26.2661 209.518 24.9406C209.609 23.5694 209.792 22.3582 210.066 21.3069L209.929 21.444C210.021 20.8956 210.089 20.3471 210.135 19.7986C210.181 19.2501 210.203 18.6788 210.203 18.0846C210.203 17.4447 210.089 16.8048 209.861 16.1649C209.632 15.4793 209.518 14.8166 209.518 14.1767C209.518 13.6282 209.792 13.1711 210.341 12.8055C210.889 12.3941 211.529 12.0513 212.26 11.7771C213.037 11.5028 213.837 11.2971 214.66 11.16C215.483 11.0229 216.191 10.9543 216.785 10.9543C218.705 10.9543 220.236 11.16 221.379 11.5714C222.521 11.937 223.39 12.417 223.984 13.0111C224.578 13.6053 224.944 14.2681 225.081 14.9994C225.264 15.7307 225.355 16.4392 225.355 17.1248V19.6615L224.944 26.1061C224.807 27.0203 224.715 27.9344 224.67 28.8486C224.67 29.717 224.67 30.6083 224.67 31.5224C224.67 32.3908 224.67 33.2593 224.67 34.1277C224.715 34.9504 224.807 35.8188 224.944 36.733V39.1326L230.223 34.6076L229.949 34.7447C230.726 33.9677 231.48 33.2593 232.211 32.6194C232.988 31.9338 233.788 31.3396 234.611 30.8368C235.434 30.2883 236.325 29.8312 237.285 29.4656C238.29 29.0999 239.41 28.8486 240.644 28.7114C241.878 28.7114 243.158 28.78 244.484 28.9171C245.855 29.0085 247.043 29.3742 248.049 30.0141L247.912 29.877C248.734 30.4254 249.328 30.9968 249.694 31.591C250.06 32.1851 250.243 32.7336 250.243 33.2364C250.014 33.6935 249.831 34.1048 249.694 34.4705C249.603 34.7904 249.466 35.1561 249.283 35.5675C249.146 35.9331 248.917 36.3216 248.597 36.733C248.323 37.1443 247.912 37.6471 247.363 38.2413L244.689 41.0523C243.821 42.0121 242.747 42.9491 241.467 43.8632C240.233 44.7317 238.884 45.7601 237.422 46.9485C236.005 48.0911 234.519 49.4395 232.965 50.9935C231.457 52.5475 229.995 54.4215 228.578 56.6154L229.537 58.5351C230.68 60.0892 231.549 61.7118 232.143 63.4029C232.783 65.0941 233.423 66.6024 234.062 67.9279L235.159 70.3275L235.022 70.1904L239.89 83.0797L241.056 85.4107H240.918L242.975 90.8956C243.798 92.4953 244.461 93.6608 244.963 94.3921V94.255C245.558 95.4891 246.175 96.7232 246.815 97.9573C247.18 98.6429 247.546 99.3285 247.912 100.014C248.232 100.608 248.666 101.431 249.214 102.482C249.763 103.534 250.357 104.676 250.997 105.91C251.637 107.144 252.277 108.447 252.916 109.818C253.556 111.144 254.151 112.423 254.699 113.658C255.248 114.846 255.682 115.92 256.002 116.88C256.367 117.84 256.596 118.571 256.687 119.074L256.55 118.868L257.099 121.679C257.099 121.953 256.87 122.228 256.413 122.502C255.956 122.822 255.385 123.096 254.699 123.325C254.059 123.599 253.351 123.804 252.574 123.942C251.797 124.124 251.065 124.216 250.38 124.216C249.237 124.216 248.277 123.896 247.5 123.256L248.049 123.393C246.997 122.753 246.22 122.296 245.718 122.022C245.215 121.748 244.918 121.496 244.826 121.268C244.004 119.851 243.112 118.228 242.153 116.4C241.193 114.572 240.187 112.721 239.136 110.847C238.13 108.973 237.148 107.144 236.188 105.362C235.228 103.533 234.36 101.888 233.582 100.425C232.851 98.9628 232.234 97.7744 231.731 96.8603C231.274 95.9462 231.023 95.4434 230.977 95.352L231.114 95.4891C230.566 94.6664 230.063 93.6608 229.606 92.4725C229.149 91.2841 228.715 90.0728 228.303 88.8388C227.938 87.6047 227.618 86.4392 227.344 85.3422C227.069 84.1995 226.818 83.3082 226.589 82.6683L223.367 73.1385L224.944 88.2217C224.944 92.6096 224.67 96.4032 224.121 99.6027L224.258 99.3285C224.258 100.654 223.847 101.614 223.024 102.208C222.247 102.802 221.333 103.099 220.282 103.099C219.87 103.099 219.436 103.099 218.979 103.099C218.568 103.054 218.088 102.962 217.539 102.825L213.837 102.071Z" fill="black"/>
<path d="M263.308 10.1316C267.422 6.84071 271.01 4.48681 274.072 3.0699C277.18 1.60729 279.443 0.875977 280.86 0.875977H283.054C283.511 0.921683 284.036 0.944536 284.631 0.944536C285.271 0.89883 285.91 0.921683 286.55 1.0131C287.236 1.0588 287.876 1.17307 288.47 1.35589C289.11 1.53873 289.681 1.83582 290.184 2.24718L293.406 5.05815H293.269L298.891 9.99448C299.44 10.3601 299.92 10.7715 300.331 11.2286C300.742 11.6856 301.017 12.1656 301.154 12.6683L303.485 19.113C303.85 20.0271 304.102 20.987 304.239 21.9925C304.422 22.9524 304.513 23.8894 304.513 24.8035C304.513 25.6719 304.399 26.4718 304.17 27.2031C303.942 27.8887 303.576 28.6886 303.073 29.6027L300.125 31.2482C299.76 31.3853 299.394 31.5224 299.028 31.6595C298.708 31.7509 298.297 31.7966 297.794 31.7966C297.063 31.7966 296.217 31.6824 295.258 31.4538C294.298 31.1796 293.041 30.654 291.487 29.877C291.304 27.3631 290.984 24.9635 290.527 22.6781C290.115 20.3471 289.636 18.2903 289.087 16.5077C288.539 14.7251 287.944 13.3082 287.305 12.257C286.71 11.2057 286.139 10.6801 285.591 10.6801H281.683C281.271 11.3657 280.883 12.1884 280.517 13.1483C280.197 14.0624 279.923 15.1137 279.694 16.302L278.872 20.21C278.597 20.8956 278.46 21.3983 278.46 21.7183L277.775 31.5224V32.4137C277.775 33.1907 277.82 34.0591 277.912 35.019C278.049 35.9331 278.209 36.8244 278.392 37.6928C278.575 38.5155 278.757 39.2697 278.94 39.9553C279.123 40.5952 279.283 41.0523 279.42 41.3265H279.283L279.694 42.1492C281.111 45.5315 282.688 48.8453 284.425 52.0905C286.162 55.3357 287.784 58.4894 289.293 61.5518C290.847 64.5684 292.172 67.4708 293.269 70.2589C294.366 73.0013 295.029 75.5838 295.258 78.0062C295.258 79.5146 295.395 80.4058 295.669 80.6801H295.532C296.08 81.2286 296.446 81.7313 296.629 82.1884C296.857 82.6455 296.994 83.0797 297.04 83.4911C297.131 83.9024 297.177 84.3138 297.177 84.7251C297.177 85.0908 297.246 85.4793 297.383 85.8907H297.246C297.886 87.5818 298.32 89.1359 298.548 90.5528C298.823 91.924 299.028 93.2495 299.165 94.5293V98.3001C299.165 99.7627 299.211 101.157 299.303 102.482C299.394 103.762 299.577 105.042 299.851 106.322C299.805 106.687 299.805 106.984 299.851 107.213C299.897 107.441 299.874 107.739 299.782 108.104C299.737 108.424 299.6 108.881 299.371 109.475C299.188 110.024 298.845 110.778 298.343 111.738L296.903 114.412L297.246 114.275C297.109 114.686 296.857 115.143 296.492 115.646C296.172 116.149 295.783 116.697 295.326 117.291C294.869 117.885 294.366 118.457 293.818 119.005C293.269 119.599 292.721 120.171 292.172 120.719L289.087 123.804C288.721 124.17 287.693 124.764 286.002 125.587L284.494 126.341C283.488 126.844 282.345 127.187 281.066 127.37C279.831 127.598 278.689 127.712 277.638 127.712H274.689C269.844 127.712 266.028 126.798 263.24 124.97C260.452 123.187 258.326 120.468 256.864 116.811C256.635 116.4 256.498 115.989 256.452 115.577C256.361 115.166 256.315 114.777 256.315 114.412C256.315 114.275 256.315 114.115 256.315 113.932C256.315 113.749 256.361 113.589 256.452 113.452L258.578 111.464C258.898 111.464 259.332 111.464 259.88 111.464C260.475 111.464 261.069 111.486 261.663 111.532C262.257 111.578 262.783 111.646 263.24 111.738C263.743 111.784 264.063 111.875 264.2 112.012L263.925 111.875C264.977 112.743 265.731 113.452 266.188 114C266.691 114.503 267.034 114.914 267.216 115.234C267.445 115.554 267.582 115.806 267.628 115.989C267.719 116.171 267.879 116.354 268.108 116.537L267.696 116.4C268.565 116.766 269.822 117.086 271.467 117.36C272.701 117.04 273.798 116.56 274.758 115.92C275.718 115.28 276.609 114.412 277.432 113.315C278.3 112.218 279.123 110.869 279.9 109.27C280.723 107.67 281.545 105.75 282.368 103.511C283.008 101.774 283.328 99.8084 283.328 97.6145C283.328 97.1117 283.328 96.6546 283.328 96.2433C283.328 95.7862 283.282 95.3063 283.191 94.8035L282.78 91.0327C282.368 87.0562 281.683 83.5368 280.723 80.4744C279.809 77.3663 278.917 74.5782 278.049 72.1101V72.2472C277.409 70.876 276.815 69.4819 276.266 68.065C275.764 66.6481 275.192 65.2083 274.552 63.7457L273.524 61.4832H273.661L273.25 60.6605C273.021 60.2491 272.815 59.8835 272.633 59.5635C272.45 59.2436 272.29 58.8551 272.153 58.398L266.394 46.8113C265.342 44.6631 264.497 42.6292 263.857 40.7095C263.217 38.7441 262.714 36.893 262.349 35.1561C261.983 33.3735 261.732 31.6824 261.594 30.0826C261.457 28.4372 261.389 26.8603 261.389 25.352C261.389 22.8838 261.549 20.4156 261.869 17.9475C262.189 15.4793 262.669 12.874 263.308 10.1316Z" fill="black"/>
<path d="M348.594 58.6723C348.869 54.0559 349.097 49.4166 349.28 44.7545C349.463 40.0924 349.874 35.3618 350.514 30.5626C350.605 30.1512 350.651 29.7627 350.651 29.397C350.651 29.0314 350.651 28.62 350.651 28.1629C350.514 27.3402 350.24 26.6089 349.828 25.969C349.463 25.3291 349.28 24.8949 349.28 24.6664C349.28 24.1636 349.783 23.7065 350.788 23.2952C351.839 22.8381 353.256 22.6096 355.039 22.6096C357.507 23.5237 359.427 24.5521 360.798 25.6948C362.169 26.7917 363.175 28.0258 363.815 29.397C364.455 30.7682 364.866 32.2994 365.049 33.9906C365.232 35.636 365.392 37.4414 365.529 39.4068C365.529 41.7379 365.369 43.9318 365.049 45.9886C364.774 47.9997 364.637 49.8508 364.637 51.542V52.9818C364.637 53.3931 364.615 53.873 364.569 54.4215C364.569 54.9243 364.455 55.4271 364.226 55.9298V57.301C364.317 57.6667 364.363 57.9867 364.363 58.2609C364.363 58.5351 364.363 58.8322 364.363 59.1522C364.363 59.8378 364.34 60.5691 364.295 61.3461C364.249 62.0774 364.226 62.7402 364.226 63.3344C364.226 63.9742 364.295 64.5684 364.432 65.1169C364.569 65.6654 364.637 66.1453 364.637 66.5567C364.637 68.1107 364.523 69.6876 364.295 71.2873C364.066 72.8414 363.952 74.3497 363.952 75.8123C363.952 77.2749 363.997 78.6461 364.089 79.9259C364.226 81.16 364.363 82.3484 364.5 83.4911V83.3539C364.592 83.7196 364.683 84.0395 364.775 84.3138C364.912 84.5423 364.98 84.7708 364.98 84.9994V88.3588C364.98 88.953 365.003 89.5244 365.049 90.0728C365.094 90.6213 365.117 91.1698 365.117 91.7183V95.0777C365.117 96.1747 365.049 97.4773 364.912 98.9857C364.82 100.494 364.5 101.934 363.952 103.305C363.449 104.676 362.649 105.842 361.552 106.802C360.501 107.761 359.015 108.241 357.096 108.241C355.907 108.241 355.016 107.967 354.422 107.419L351.337 103.922C350.651 103.099 350.148 102.162 349.828 101.111C349.508 100.014 349.28 98.8714 349.143 97.683C349.051 96.4947 349.006 95.3063 349.006 94.1179C349.051 92.9295 349.051 91.8097 349.006 90.7584V86.8505C349.006 85.5707 348.983 84.0395 348.937 82.257C348.937 80.4287 348.914 78.6461 348.869 76.9093C348.869 75.1724 348.846 73.6184 348.8 72.2472C348.8 70.876 348.777 70.0075 348.731 69.6419V69.2305C347.909 69.2305 347.017 69.3677 346.058 69.6419H346.195C345.098 69.9161 343.932 70.0533 342.698 70.0533C341.83 70.0533 340.961 69.9847 340.093 69.8476C339.224 69.7105 338.402 69.6419 337.625 69.6419C336.985 69.6419 336.322 69.7105 335.636 69.8476C334.997 69.9847 334.357 70.0533 333.717 70.0533H333.168C333.305 70.1904 333.397 70.4189 333.442 70.7389C333.488 71.0131 333.58 71.4245 333.717 71.9729V74.2354C333.717 74.7839 333.717 75.3095 333.717 75.8123C333.717 76.3151 333.9 76.8179 334.265 77.3206V78.1434C334.174 78.7833 334.105 79.4003 334.06 79.9945C334.014 80.543 333.991 81.1372 333.991 81.7771C333.991 82.8283 334.037 83.9481 334.128 85.1365C334.219 86.3249 334.311 87.4676 334.402 88.5645C334.494 89.6158 334.585 90.5071 334.677 91.2384C334.768 91.9697 334.814 92.381 334.814 92.4725V93.5694C334.814 94.8492 334.882 96.1061 335.019 97.3402C335.202 98.5743 335.431 99.7855 335.705 100.974H335.568C335.659 101.477 335.728 101.957 335.774 102.414C335.819 102.825 335.842 103.236 335.842 103.648C335.842 105.065 335.385 106.184 334.471 107.007C333.557 107.83 332.323 108.241 330.769 108.241C330.083 108.241 329.42 108.15 328.78 107.967C328.186 107.739 327.638 107.373 327.135 106.87L325.627 105.567H325.764C325.352 105.248 324.895 104.882 324.393 104.47C323.935 104.059 323.501 103.671 323.09 103.305C322.724 102.939 322.404 102.642 322.13 102.414C321.902 102.185 321.764 102.071 321.719 102.071C321.125 101.385 320.599 100.608 320.142 99.7398C319.685 98.8257 319.456 97.8887 319.456 96.9289C319.456 96.3804 319.525 95.8548 319.662 95.352C319.799 94.8035 319.868 94.255 319.868 93.7065C319.868 93.2952 319.822 92.7467 319.73 92.0611C319.685 91.3755 319.616 90.667 319.525 89.9357C319.433 89.1587 319.342 88.4045 319.251 87.6732C319.159 86.9419 319.091 86.302 319.045 85.7535L318.154 69.2305L319.045 69.5048L316.919 67.7908C316.142 67.1509 315.525 66.511 315.068 65.8711C314.611 65.1855 314.2 64.6598 313.834 64.2942L313.149 62.6487C313.149 62.5116 313.309 62.3288 313.629 62.1003C313.949 61.826 314.314 61.5746 314.726 61.3461C315.183 61.1176 315.663 60.9347 316.165 60.7976C316.714 60.6148 317.194 60.5234 317.605 60.5234H318.016V53.1189C318.016 50.7878 318.108 48.5482 318.291 46.4C318.519 44.2517 318.771 42.0121 319.045 39.6811V39.8182C319.045 39.4068 319.136 38.8812 319.319 38.2413C319.502 37.5557 319.708 36.8472 319.936 36.1159C320.21 35.3846 320.462 34.6762 320.69 33.9906C320.965 33.305 321.193 32.7108 321.376 32.208L323.227 26.5175C324.552 26.8375 325.649 27.1117 326.518 27.3402C327.386 27.5231 328.049 27.683 328.506 27.8202C329.009 27.9573 329.352 28.0487 329.535 28.0944C329.763 28.1401 329.9 28.1629 329.946 28.1629L331.18 29.4656C331.683 30.1512 332.071 30.6997 332.346 31.111C332.665 31.4767 332.894 31.8424 333.031 32.208C333.214 32.528 333.328 32.8936 333.374 33.305C333.42 33.6706 333.442 34.1963 333.442 34.8819V38.1042C333.442 38.6984 333.557 39.3611 333.785 40.0924C334.014 40.8237 334.128 41.6236 334.128 42.492C334.128 42.7206 334.105 42.9491 334.06 43.1776C334.014 43.3605 333.991 43.589 333.991 43.8632C333.991 44.5031 334.082 45.0973 334.265 45.6458C334.448 46.1486 334.539 46.857 334.539 47.7712C334.539 49.2338 334.539 50.8564 334.539 52.639C334.539 54.3758 334.082 56.3412 333.168 58.5351C333.077 58.6265 333.031 58.7637 333.031 58.9465C333.031 59.175 333.168 59.4264 333.442 59.7007L345.098 59.4264C345.509 59.4264 345.943 59.4264 346.4 59.4264C346.903 59.4264 347.474 59.3807 348.114 59.2893L350.103 57.8495L348.594 58.6723Z" fill="black"/>
<path d="M436.152 22.7467C436.152 23.6151 436.221 24.3693 436.358 25.0092C436.541 25.6491 436.723 26.2433 436.906 26.7917C437.089 27.2945 437.249 27.7516 437.386 28.1629C437.569 28.5286 437.66 28.9171 437.66 29.3285C437.66 31.0653 437.798 32.825 438.072 34.6076L438.757 43.7261V46.1257C439.123 47.7255 439.352 49.0738 439.443 50.1708C439.58 51.2677 439.649 52.2047 439.649 52.9818C439.649 53.8045 439.603 54.7415 439.512 55.7927C439.466 56.7983 439.397 57.7124 439.306 58.5351L438.483 61.209C438.3 61.6203 438.186 62.0088 438.14 62.3745C438.095 62.6945 438.026 63.1058 437.935 63.6086C437.889 64.1114 437.798 64.7741 437.66 65.5968C437.523 66.3739 437.295 67.4251 436.975 68.7506C436.746 69.5276 436.518 70.3732 436.289 71.2873C436.061 72.1558 435.832 73.1613 435.604 74.304C435.375 75.4009 435.192 76.6807 435.055 78.1434C434.918 79.5603 434.849 81.2057 434.849 83.0797C434.849 83.7196 434.758 84.4738 434.575 85.3422C434.392 86.2106 434.118 86.9876 433.753 87.6732L431.353 93.2952C431.124 93.7065 430.804 94.1865 430.393 94.7349C430.027 95.2834 429.456 96.0147 428.679 96.9289L428.953 96.7917L422.509 107.281C421.686 108.653 420.612 109.841 419.286 110.847C417.961 111.852 416.567 112.675 415.104 113.315C413.687 113.955 412.27 114.435 410.853 114.755C409.482 115.074 408.294 115.234 407.288 115.234C402.535 115.234 398.467 114.435 395.085 112.835C391.702 111.235 388.891 109.201 386.652 106.733C384.412 104.219 382.652 101.454 381.372 98.4372C380.138 95.4205 379.247 92.4953 378.699 89.6615H378.836C378.15 86.0049 377.625 82.5541 377.259 79.3089C376.939 76.018 376.779 72.7957 376.779 69.6419C376.733 67.905 376.779 66.2367 376.916 64.637C377.053 62.9915 377.236 61.369 377.465 59.7692C377.693 58.1238 377.945 56.4783 378.219 54.8329C378.493 53.1874 378.744 51.4506 378.973 49.6223L379.727 44.5488C380.184 43.7718 380.504 43.0405 380.687 42.3549C380.87 41.6693 381.053 40.9609 381.235 40.2295C381.464 39.4525 381.715 38.607 381.99 37.6928C382.31 36.7787 382.812 35.7046 383.498 34.4705V34.6076C383.635 34.3334 383.795 33.762 383.978 32.8936C384.206 32.0252 384.458 31.111 384.732 30.1512L385.143 28.5743V28.7114C385.143 28.2087 385.372 27.5002 385.829 26.5861C386.332 25.6719 387.177 24.6207 388.366 23.4323V23.1581C388.366 22.9295 388.32 22.6096 388.229 22.1982C388.137 21.7411 388.091 21.3069 388.091 20.8956C388.091 20.5756 388.229 20.2557 388.503 19.9357C388.777 19.5701 389.143 19.2501 389.6 18.9759C390.057 18.7016 390.56 18.496 391.108 18.3588C391.702 18.176 392.296 18.0846 392.891 18.0846H393.439C393.439 17.9475 393.805 17.4447 394.536 16.5763H394.399L395.222 15.2736L395.085 15.4107C395.313 15.0451 395.679 14.6794 396.182 14.3138C396.684 13.9024 397.393 13.3539 398.307 12.6683L397.758 12.8055C397.576 12.9883 397.393 13.0797 397.21 13.0797C397.119 13.0797 397.073 12.9883 397.073 12.8055C397.073 12.3484 397.21 11.9599 397.484 11.6399C397.804 11.32 398.17 11.0457 398.581 10.8172C399.038 10.543 399.495 10.2687 399.952 9.99448C400.455 9.72025 400.889 9.4003 401.255 9.03464L406.877 6.90928C407.425 6.4065 408.157 5.97229 409.071 5.60663C409.985 5.24098 411.059 5.05815 412.293 5.05815C414.213 5.05815 416.041 5.30954 417.778 5.81231C419.515 6.31509 421.115 6.93213 422.577 7.66344C424.04 8.34904 425.365 9.08035 426.554 9.85737C427.742 10.6344 428.748 11.2743 429.57 11.7771L436.152 22.7467ZM421 26.7917C420.772 25.6948 420.589 24.6207 420.452 23.5694C420.315 22.4725 420.132 21.4898 419.903 20.6213C419.721 19.7529 419.446 19.0444 419.081 18.496C418.761 17.9475 418.326 17.6732 417.778 17.6732C416.59 17.6732 415.241 17.9703 413.733 18.5645C412.225 19.1587 410.876 19.9814 409.688 21.0327L409.962 20.8956L406.191 24.1179C404.043 25.8548 402.192 28.0258 400.638 30.6311C399.084 33.1907 397.758 36.1159 396.661 39.4068V39.2697L395.633 41.7379C394.719 44.1603 393.942 46.7428 393.302 49.4852C392.708 52.2276 392.205 54.9929 391.794 57.781C391.428 60.5691 391.154 63.3343 390.971 66.0768C390.834 68.8192 390.765 71.4016 390.765 73.8241C390.765 75.7438 390.811 77.6406 390.902 79.5146C391.039 81.3428 391.314 83.1254 391.725 84.8623V85.1365C391.725 86.2335 391.839 87.3533 392.068 88.496C392.342 89.5929 392.662 90.6899 393.028 91.7868C393.393 92.8381 393.805 93.8437 394.262 94.8035C394.719 95.7633 395.13 96.6546 395.496 97.4773H395.359C396.09 99.1685 397.05 100.54 398.238 101.591C399.472 102.597 400.706 103.556 401.941 104.47H401.803C401.895 104.516 401.941 104.539 401.941 104.539V104.608L402.489 104.882L402.146 104.608C402.558 104.608 402.923 104.63 403.243 104.676C403.609 104.722 403.929 104.745 404.203 104.745H404.066C404.752 104.151 405.643 103.236 406.74 102.002C407.837 100.723 408.957 99.2371 410.099 97.5459C411.242 95.8548 412.316 94.0036 413.322 91.9925C414.373 89.9814 415.196 87.9475 415.79 85.8907C415.698 85.8907 415.721 85.7535 415.858 85.4793C415.995 85.1594 416.178 84.8623 416.407 84.588H416.544C416.864 83.9938 417.115 83.3082 417.298 82.5312C417.527 81.7542 417.778 80.8858 418.052 79.9259C418.372 78.9204 418.761 77.8234 419.218 76.635C419.721 75.4467 420.406 74.144 421.275 72.7271L421.96 66.8309C422.417 64.7284 422.76 62.7402 422.989 60.8662C423.263 58.9922 423.4 57.301 423.4 55.7927V46.6742C423.4 45.8972 423.354 45.463 423.263 45.3716C422.623 43.9089 422.143 42.4006 421.823 40.8466C421.549 39.2926 421.412 37.7842 421.412 36.3216V33.7849C421.412 33.0079 421.412 32.2537 421.412 31.5224C421.412 30.7454 421.366 29.9684 421.275 29.1914V29.3285L421 26.7917Z" fill="black"/>
<path d="M446.04 69.5048C446.04 67.3565 446.04 65.0026 446.04 62.4431C446.086 59.8378 446.063 57.301 445.972 54.8329C445.88 52.319 445.697 49.988 445.423 47.8397C445.195 45.6915 444.806 44.0004 444.258 42.7663C443.8 41.7607 443.412 40.9151 443.092 40.2295C442.772 39.5439 442.521 38.9498 442.338 38.447C442.201 37.8985 442.086 37.4414 441.995 37.0758C441.949 36.6644 441.949 36.2759 441.995 35.9103C441.995 34.7676 442.361 33.6706 443.092 32.6194C443.869 31.5224 444.989 30.654 446.451 30.0141H446.177C448.005 29.0999 450.062 28.3686 452.348 27.8202C454.633 27.226 456.964 26.9289 459.341 26.9289C460.163 26.9289 461.032 26.9289 461.946 26.9289C462.86 26.9289 463.751 26.9517 464.62 26.9974C465.534 26.9974 466.38 27.066 467.157 27.2031C467.934 27.2945 468.551 27.4316 469.008 27.6145C469.236 27.7516 469.488 27.8887 469.762 28.0258C470.082 28.1172 470.288 28.1629 470.379 28.1629C474.493 28.8486 477.989 29.9912 480.869 31.591C483.748 33.145 486.102 34.8361 487.93 36.6644C489.759 38.447 491.107 40.2295 491.975 42.0121C492.89 43.749 493.438 45.1659 493.621 46.2629L493.895 48.0454V48.731C493.895 50.4222 493.484 52.2504 492.661 54.2158H492.798C492.661 54.5815 492.592 54.9014 492.592 55.1757C492.592 55.4042 492.524 55.6785 492.387 55.9984C492.25 56.3184 491.975 56.7069 491.564 57.1639C491.198 57.5753 490.536 58.1238 489.576 58.8094C489.119 59.175 488.639 59.6092 488.136 60.112C487.633 60.6148 487.016 61.209 486.285 61.8946C485.554 62.5345 484.685 63.2429 483.68 64.02C482.674 64.797 481.463 65.6425 480.046 66.5567C480.137 66.5567 480.206 66.5338 480.252 66.4881C480.297 66.4424 480.366 66.4196 480.457 66.4196C480.457 66.6481 480.297 66.8995 479.977 67.1737C479.657 67.448 479.292 67.7222 478.88 67.9964C478.469 68.225 478.058 68.4535 477.646 68.682C477.281 68.8649 477.052 69.002 476.961 69.0934L471.544 72.2472H471.407C470.905 72.4757 470.493 72.6585 470.173 72.7957C469.899 72.9328 469.67 73.047 469.488 73.1385C469.305 73.2756 469.145 73.367 469.008 73.4127V73.5498C469.099 73.5498 469.168 73.527 469.213 73.4813C469.259 73.4356 469.328 73.4127 469.419 73.4127C469.053 73.8241 468.414 74.2126 467.499 74.5782C466.585 74.9439 465.58 75.2638 464.483 75.5381C463.432 75.7666 462.403 75.9723 461.398 76.1551C460.392 76.2922 459.661 76.3608 459.204 76.3608C459.249 76.4522 459.249 76.9093 459.204 77.732C459.204 78.5547 459.204 79.6288 459.204 80.9543C459.249 82.2341 459.318 83.6967 459.409 85.3422C459.501 86.9419 459.661 88.5645 459.889 90.21V91.7183C459.889 92.541 459.821 93.4323 459.684 94.3921C459.592 95.352 459.318 96.2661 458.861 97.1345C458.404 98.003 457.695 98.7343 456.735 99.3285C455.821 99.8769 454.542 100.151 452.896 100.151C451.982 100.151 451.114 99.8998 450.291 99.397C449.468 98.8943 448.668 98.2087 447.891 97.3402L447.411 96.5175H447.617C447.16 95.3748 446.749 94.2093 446.383 93.0209C446.063 91.8326 445.903 90.7127 445.903 89.6615C445.903 89.1587 445.926 88.6559 445.972 88.1532C446.017 87.6047 446.04 87.079 446.04 86.5763V69.5048ZM460.438 55.587L460.575 63.3344L461.603 63.0601C462.837 62.923 464.277 62.5573 465.923 61.9631C467.614 61.369 469.328 60.4777 471.065 59.2893C472.801 58.0552 474.447 56.5012 476.001 54.6272C477.601 52.7532 478.903 50.4679 479.909 47.7712C479.909 47.6798 479.932 47.5883 479.977 47.4969C480.023 47.4055 480.046 47.3141 480.046 47.2227C480.046 46.7199 479.955 46.2629 479.772 45.8515C479.589 45.4401 479.452 45.0973 479.36 44.8231H479.497C479.223 44.4117 479.086 44.0918 479.086 43.8632C479.086 43.7718 479.109 43.7033 479.155 43.6576C479.155 43.6119 479.178 43.589 479.223 43.589L477.578 42.9034C476.755 42.5835 476.069 42.3092 475.521 42.0807C474.972 41.8521 474.447 41.6693 473.944 41.5322C473.487 41.3951 473.03 41.3037 472.573 41.2579C472.116 41.2122 471.59 41.1894 470.996 41.1894C469.716 41.1894 468.094 41.3951 466.128 41.8064C464.163 42.1721 462.037 42.4463 459.752 42.6292L459.341 43.0405C459.844 44.5946 460.141 45.9658 460.232 47.1541C460.369 48.2968 460.438 49.3938 460.438 50.445V55.587Z" fill="black"/>
</svg>
